SplineFontDB: 3.2
FontName: Supercell-Magic
FullName: Supercell-Magic Regular
FamilyName: Supercell-Magic
Weight: Book
Copyright: Copyright (c) Active Images, 2009. All rights reserved.
Version: 1.00 December 19, 2009, initial release
ItalicAngle: 0
UnderlinePosition: -271
UnderlineWidth: 40
Ascent: 1638
Descent: 410
InvalidEm: 0
sfntRevision: 0x00010000
LayerCount: 3
Layer: 0 1 "Back" 1
Layer: 1 1 "Fore" 0
Layer: 2 0 "Back 2" 1
XUID: [1021 154 -973435491 8422]
StyleMap: 0x0040
FSType: 4
OS2Version: 2
OS2_WeightWidthSlopeOnly: 0
OS2_UseTypoMetrics: 0
CreationTime: 1261114860
ModificationTime: 1713035538
PfmFamily: 65
TTFWeight: 400
TTFWidth: 5
LineGap: 0
VLineGap: 0
Panose: 3 2 5 2 5 6 2 2 2 5
OS2TypoAscent: 1638
OS2TypoAOffset: 0
OS2TypoDescent: -410
OS2TypoDOffset: 0
OS2TypoLinegap: 0
OS2WinAscent: 2379
OS2WinAOffset: 0
OS2WinDescent: 634
OS2WinDOffset: 0
HheadAscent: 2379
HheadAOffset: 0
HheadDescent: -634
HheadDOffset: 0
OS2SubXSize: 1434
OS2SubYSize: 1331
OS2SubXOff: 0
OS2SubYOff: 287
OS2SupXSize: 1434
OS2SupYSize: 1331
OS2SupXOff: 0
OS2SupYOff: 977
OS2StrikeYSize: 102
OS2StrikeYPos: 717
OS2CapHeight: 1916
OS2XHeight: 1543
OS2Vendor: 'cbfc'
OS2CodePages: 20000111.00000000
OS2UnicodeRanges: 800000af.4000204a.00000000.00000000
DEI: 91125
TtTable: prep
PUSHW_1
 511
SCANCTRL
PUSHB_1
 1
SCANTYPE
SVTCA[y-axis]
MPPEM
PUSHB_1
 8
LT
IF
PUSHB_2
 1
 1
INSTCTRL
EIF
PUSHB_2
 70
 6
CALL
IF
POP
PUSHB_1
 16
EIF
MPPEM
PUSHB_1
 20
GT
IF
POP
PUSHB_1
 128
EIF
SCVTCI
PUSHB_1
 6
CALL
NOT
IF
SVTCA[y-axis]
PUSHB_1
 3
DUP
RCVT
PUSHB_1
 3
CALL
WCVTP
PUSHB_1
 4
DUP
RCVT
PUSHB_3
 3
 24
 2
CALL
PUSHB_1
 3
CALL
WCVTP
PUSHB_1
 5
DUP
RCVT
PUSHB_3
 4
 12
 2
CALL
PUSHB_1
 3
CALL
WCVTP
PUSHB_1
 6
DUP
RCVT
PUSHB_3
 5
 57
 2
CALL
PUSHB_1
 3
CALL
WCVTP
PUSHB_1
 7
DUP
RCVT
PUSHB_3
 6
 45
 2
CALL
PUSHB_1
 3
CALL
WCVTP
PUSHB_1
 8
DUP
RCVT
PUSHB_3
 7
 33
 2
CALL
PUSHB_1
 3
CALL
WCVTP
PUSHB_1
 9
DUP
RCVT
PUSHB_3
 8
 27
 2
CALL
PUSHB_1
 3
CALL
WCVTP
PUSHB_1
 10
DUP
RCVT
PUSHB_3
 9
 15
 2
CALL
PUSHB_1
 3

StartChar: .notdef
Encoding: 65536 -1 0
Width: 748
GlyphClass: 1
Flags: W
LayerCount: 3
Fore
SplineSet
68 0 m 1,0,-1
 68 1365 l 1,1,-1
 612 1365 l 1,2,-1
 612 0 l 1,3,-1
 68 0 l 1,0,-1
136 68 m 1,4,-1
 544 68 l 1,5,-1
 544 1297 l 1,6,-1
 136 1297 l 1,7,-1
 136 68 l 1,4,-1
EndSplineSet
Validated: 1
EndChar

StartChar: exclam
Encoding: 33 33 4
Width: 905
GlyphClass: 2
Flags: W
LayerCount: 3
Fore
SplineSet
113 86 m 128,-1,1
 115 127 115 127 120 165 c 128,-1,2
 125 203 125 203 129 227 c 0,3,4
 135 264 135 264 169 293 c 128,-1,5
 203 322 203 322 246 340 c 128,-1,6
 289 358 289 358 332 369.5 c 128,-1,7
 375 381 375 381 401 385 c 0,8,9
 426 389 426 389 457.5 386 c 128,-1,10
 489 383 489 383 522 376 c 128,-1,11
 555 369 555 369 586.5 357.5 c 128,-1,12
 618 346 618 346 639 334 c 1,13,14
 668 260 668 260 682 177 c 128,-1,15
 696 94 696 94 686 12 c 1,16,17
 672 -13 672 -13 629 -34 c 128,-1,18
 586 -55 586 -55 527.5 -68.5 c 128,-1,19
 469 -82 469 -82 404.5 -88 c 128,-1,20
 340 -94 340 -94 281.5 -93 c 128,-1,21
 223 -92 223 -92 182 -81 c 128,-1,22
 141 -70 141 -70 129 -47 c 256,23,24
 117 -24 117 -24 114 10.5 c 128,-1,0
 111 45 111 45 113 86 c 128,-1,1
189 1304.5 m 128,-1,26
 193 1624 193 1624 193 1937 c 1,27,28
 353 1957 353 1957 510.5 1962.5 c 128,-1,29
 668 1968 668 1968 799 1919 c 1,30,31
 768 1720 768 1720 740.5 1527.5 c 128,-1,32
 713 1335 713 1335 690.5 1171.5 c 128,-1,33
 668 1008 668 1008 651.5 883 c 128,-1,34
 635 758 635 758 627 692 c 1,35,36
 598 684 598 684 537.5 677 c 128,-1,37
 477 670 477 670 411.5 663.5 c 128,-1,38
 346 657 346 657 287.5 655 c 128,-1,39
 229 653 229 653 205 659 c 1,40,25
 185 985 185 985 189 1304.5 c 128,-1,26
EndSplineSet
Validated: 33
EndChar

StartChar: quotedbl
Encoding: 34 34 5
Width: 1183
GlyphClass: 2
Flags: W
LayerCount: 3
Fore
SplineSet
109 1622 m 1,0,1
 211 1685 211 1685 318.5 1705 c 128,-1,2
 426 1725 426 1725 535 1700 c 1,3,4
 535 1600 535 1600 535 1496.5 c 128,-1,5
 535 1393 535 1393 530.5 1297.5 c 128,-1,6
 526 1202 526 1202 518 1114 c 128,-1,7
 510 1026 510 1026 494 961 c 1,8,9
 441 934 441 934 371 914.5 c 128,-1,10
 301 895 301 895 238 901 c 1,11,12
 232 993 232 993 215.5 1094.5 c 128,-1,13
 199 1196 199 1196 179.5 1293.5 c 128,-1,14
 160 1391 160 1391 140.5 1477 c 128,-1,15
 121 1563 121 1563 109 1622 c 1,0,1
666 1616 m 1,16,17
 781 1669 781 1669 893.5 1676.5 c 128,-1,18
 1006 1684 1006 1684 1112 1649 c 1,19,20
 1094 1553 1094 1553 1074.5 1453.5 c 128,-1,21
 1055 1354 1055 1354 1034.5 1259.5 c 128,-1,22
 1014 1165 1014 1165 990.5 1082 c 128,-1,23
 967 999 967 999 938 936 c 1,24,25
 879 916 879 916 804 903.5 c 128,-1,26
 729 891 729 891 668 907 c 1,27,28
 678 995 678 995 680 1095.5 c 128,-1,29
 682 1196 682 1196 680 1292.5 c 128,-1,30
 678 1389 678 1389 674 1474 c 128,-1,31
 670 1559 670 1559 666 1616 c 1,16,17
EndSplineSet
Validated: 33
EndChar

StartChar: numbersign
Encoding: 35 35 6
Width: 1478
GlyphClass: 2
Flags: W
LayerCount: 3
Fore
SplineSet
102 1175.5 m 128,-1,1
 104 1239 104 1239 110.5 1295.5 c 128,-1,2
 117 1352 117 1352 125 1386 c 1,3,4
 141 1388 141 1388 181 1391.5 c 128,-1,5
 221 1395 221 1395 276 1399 c 1,6,7
 278 1489 278 1489 280.5 1573 c 128,-1,8
 283 1657 283 1657 285 1735 c 1,9,10
 377 1764 377 1764 485.5 1770 c 128,-1,11
 594 1776 594 1776 686 1772 c 1,12,13
 684 1684 684 1684 684 1596.5 c 128,-1,14
 684 1509 684 1509 680 1421 c 1,15,16
 721 1423 721 1423 760 1424 c 128,-1,17
 799 1425 799 1425 838 1427 c 1,18,19
 840 1519 840 1519 842 1610.5 c 128,-1,20
 844 1702 844 1702 848 1794 c 1,21,22
 864 1808 864 1808 916.5 1819.5 c 128,-1,23
 969 1831 969 1831 1028 1836 c 128,-1,24
 1087 1841 1087 1841 1141.5 1842 c 128,-1,25
 1196 1843 1196 1843 1219 1839 c 1,26,27
 1221 1745 1221 1745 1222 1644.5 c 128,-1,28
 1223 1544 1223 1544 1225 1438 c 1,29,30
 1266 1440 1266 1440 1300.5 1439 c 128,-1,31
 1335 1438 1335 1438 1352 1436 c 1,32,33
 1356 1399 1356 1399 1358 1341.5 c 128,-1,34
 1360 1284 1360 1284 1361 1219.5 c 128,-1,35
 1362 1155 1362 1155 1361 1097.5 c 128,-1,36
 1360 1040 1360 1040 1354 1004 c 1,37,38
 1331 1002 1331 1002 1296.5 998.5 c 128,-1,39
 1262 995 1262 995 1223 993 c 1,40,41
 1221 944 1221 944 1221 899 c 128,-1,42
 1221 854 1221 854 1219 807 c 1,43,44
 1274 807 1274 807 1318 806 c 128,-1,45
 1362 805 1362 805 1378 801 c 1,46,47
 1382 764 1382 764 1385.5 706.5 c 128,-1,48
 1389 649 1389 649 1390 585.5 c 128,-1,49
 1391 522 1391 522 1389.5 464 c 128,-1,50
 1388 406 1388 406 1382 369 c 1,51,52
 1355 367 1355 367 1308.5 364.5 c 128,-1,53
 1262 362 1262 362 1208 356 c 1,54,55
 1206 266 1206 266 1204 182 c 128,-1,56
 1202 98 1202 98 1200 23 c 1,57,58
 1108 -6 1108 -6 1019 0 c 128,-1,59
 930 6 930 6 842 8 c 1,60,-1
 842 334 l 1,61,62
 793 332 793 332 743.5 330 c 128,-1,63
 694 328 694 328 645 326 c 1,64,65
 643 260 643 260 641 200.5 c 128,-1,66
 639 141 639 141 635 80 c 1,67,68
 619 64 619 64 569.5 55.5 c 128,-1,69
 520 47 520 47 463 42 c 128,-1,70
 406 37 406 37 354.5 37 c 128,-1,71
 303 37 303 37 281 39 c 1,72,73
 279 162 279 162 274 297 c 1,74,75
 233 293 233 293 199.5 289 c 128,-1,76
 166 285 166 285 143 281 c 1,77,78
 133 340 133 340 130 408.5 c 128,-1,79
 127 477 127 477 130 542.5 c 128,-1,80
 133 608 133 608 139 663.5 c 128,-1,81
 145 719 145 719 154 756 c 1,82,83
 168 756 168 756 197.5 758 c 128,-1,84
 227 760 227 760 270 762 c 1,85,-1
 270 932 l 1,86,87
 219 928 219 928 180 924 c 128,-1,88
 141 920 141 920 115 915 c 1,89,90
 105 972 105 972 102.5 1042 c 128,-1,0
 100 1112 100 1112 102 1175.5 c 128,-1,1
664 784 m 1,91,92
 707 786 707 786 751 789.5 c 128,-1,93
 795 793 795 793 838 795 c 1,94,-1
 838 971 l 1,95,-1
 670 961 l 1,96,-1
 664 784 l 1,91,92
EndSplineSet
Validated: 33
EndChar

StartChar: dollar
Encoding: 36 36 7
Width: 1662
GlyphClass: 2
Flags: W
LayerCount: 3
Fore
SplineSet
100 825 m 1,0,1
 100 905 100 905 106.5 995 c 128,-1,2
 113 1085 113 1085 130 1176.5 c 128,-1,3
 147 1268 147 1268 176 1354 c 128,-1,4
 205 1440 205 1440 248 1513 c 1,5,6
 311 1533 311 1533 384 1551 c 128,-1,7
 457 1569 457 1569 575 1583 c 1,8,9
 573 1646 573 1646 571 1697.5 c 128,-1,10
 569 1749 569 1749 567 1794 c 128,-1,11
 565 1839 565 1839 563 1880 c 128,-1,12
 561 1921 561 1921 557 1966 c 1,13,14
 623 1993 623 1993 696.5 2009 c 128,-1,15
 770 2025 770 2025 846 2033.5 c 128,-1,16
 922 2042 922 2042 994.5 2042 c 128,-1,17
 1067 2042 1067 2042 1128 2036 c 1,18,19
 1108 1915 1108 1915 1103 1815.5 c 128,-1,20
 1098 1716 1098 1716 1087 1626 c 1,21,22
 1222 1638 1222 1638 1311.5 1646.5 c 128,-1,23
 1401 1655 1401 1655 1477 1649 c 1,24,25
 1481 1633 1481 1633 1487 1594.5 c 128,-1,26
 1493 1556 1493 1556 1498 1510 c 128,-1,27
 1503 1464 1503 1464 1505 1420 c 128,-1,28
 1507 1376 1507 1376 1503 1341 c 1,29,30
 1431 1337 1431 1337 1340 1330 c 128,-1,31
 1249 1323 1249 1323 1156 1313 c 128,-1,32
 1063 1303 1063 1303 976 1291.5 c 128,-1,33
 889 1280 889 1280 827 1266 c 0,34,35
 809 1262 809 1262 793.5 1240.5 c 128,-1,36
 778 1219 778 1219 771 1194 c 128,-1,37
 764 1169 764 1169 768 1149.5 c 128,-1,38
 772 1130 772 1130 791 1126 c 0,39,40
 850 1116 850 1116 953.5 1100.5 c 128,-1,41
 1057 1085 1057 1085 1170.5 1071 c 128,-1,42
 1284 1057 1284 1057 1387.5 1044.5 c 128,-1,43
 1491 1032 1491 1032 1550 1024 c 1,44,45
 1573 969 1573 969 1576 888 c 128,-1,46
 1579 807 1579 807 1566.5 722 c 128,-1,47
 1554 637 1554 637 1526.5 560 c 128,-1,48
 1499 483 1499 483 1458 440 c 1,49,50
 1415 422 1415 422 1377 407.5 c 128,-1,51
 1339 393 1339 393 1300.5 380 c 128,-1,52
 1262 367 1262 367 1221 354.5 c 128,-1,53
 1180 342 1180 342 1130 330 c 1,54,55
 1124 226 1124 226 1118 135.5 c 128,-1,56
 1112 45 1112 45 1087 -47 c 1,57,58
 1054 -57 1054 -57 991 -65.5 c 128,-1,59
 928 -74 928 -74 858 -80 c 128,-1,60
 788 -86 788 -86 722.5 -86 c 128,-1,61
 657 -86 657 -86 623 -78 c 1,62,63
 621 28 621 28 617.5 107 c 128,-1,64
 614 186 614 186 610 256 c 1,65,66
 555 248 555 248 508 240.5 c 128,-1,67
 461 233 461 233 417 227 c 128,-1,68
 373 221 373 221 328 216 c 128,-1,69
 283 211 283 211 231 207 c 1,70,71
 213 230 213 230 198.5 276 c 128,-1,72
 184 322 184 322 175 372 c 128,-1,73
 166 422 166 422 161 468 c 128,-1,74
 156 514 156 514 158 532 c 1,75,76
 226 540 226 540 316 553.5 c 128,-1,77
 406 567 406 567 494 582.5 c 128,-1,78
 582 598 582 598 653.5 613.5 c 128,-1,79
 725 629 725 629 758 643 c 0,80,81
 768 649 768 649 781.5 658.5 c 128,-1,82
 795 668 795 668 807 679 c 128,-1,83
 819 690 819 690 827.5 701.5 c 128,-1,84
 836 713 836 713 834 721 c 0,85,86
 828 746 828 746 809.5 759 c 128,-1,87
 791 772 791 772 766 778 c 128,-1,88
 741 784 741 784 712.5 786 c 128,-1,89
 684 788 684 788 657 791 c 0,90,91
 608 797 608 797 538.5 797 c 128,-1,92
 469 797 469 797 392 798 c 128,-1,93
 315 799 315 799 238.5 804 c 128,-1,94
 162 809 162 809 100 825 c 1,0,1
EndSplineSet
Validated: 33
EndChar

StartChar: percent
Encoding: 37 37 8
Width: 2072
GlyphClass: 2
Flags: W
LayerCount: 3
Fore
SplineSet
100 1446.5 m 128,-1,1
 100 1552 100 1552 102 1649.5 c 128,-1,2
 104 1747 104 1747 109 1804 c 1,3,4
 152 1849 152 1849 225.5 1882 c 128,-1,5
 299 1915 299 1915 388 1931.5 c 128,-1,6
 477 1948 477 1948 574.5 1950 c 128,-1,7
 672 1952 672 1952 758 1935.5 c 128,-1,8
 844 1919 844 1919 913.5 1884 c 128,-1,9
 983 1849 983 1849 1016 1796 c 1,10,11
 1020 1761 1020 1761 1024 1699.5 c 128,-1,12
 1028 1638 1028 1638 1032 1567 c 1,13,14
 1085 1657 1085 1657 1138.5 1746 c 128,-1,15
 1192 1835 1192 1835 1251 1929 c 1,16,17
 1343 1939 1343 1939 1433.5 1934 c 128,-1,18
 1524 1929 1524 1929 1599.5 1919 c 128,-1,19
 1675 1909 1675 1909 1729.5 1897.5 c 128,-1,20
 1784 1886 1784 1886 1804 1880 c 1,21,22
 1673 1675 1673 1675 1540 1442.5 c 128,-1,23
 1407 1210 1407 1210 1276 963 c 1,24,25
 1368 986 1368 986 1471.5 990.5 c 128,-1,26
 1575 995 1575 995 1668 980 c 128,-1,27
 1761 965 1761 965 1836 930 c 128,-1,28
 1911 895 1911 895 1948 838 c 1,29,30
 1954 803 1954 803 1957 740.5 c 128,-1,31
 1960 678 1960 678 1963 605 c 128,-1,32
 1966 532 1966 532 1967 453.5 c 128,-1,33
 1968 375 1968 375 1968 306.5 c 128,-1,34
 1968 238 1968 238 1967 186 c 128,-1,35
 1966 134 1966 134 1964 111 c 1,36,37
 1929 60 1929 60 1856.5 25 c 128,-1,38
 1784 -10 1784 -10 1694 -27.5 c 128,-1,39
 1604 -45 1604 -45 1504.5 -46 c 128,-1,40
 1405 -47 1405 -47 1315 -28.5 c 128,-1,41
 1225 -10 1225 -10 1153 25.5 c 128,-1,42
 1081 61 1081 61 1047 115 c 1,43,44
 1041 178 1041 178 1037.5 278.5 c 128,-1,45
 1034 379 1034 379 1032 483 c 1,46,47
 962 342 962 342 895.5 201.5 c 128,-1,48
 829 61 829 61 766 -74 c 1,49,50
 676 -84 676 -84 587 -84 c 128,-1,51
 498 -84 498 -84 424 -80 c 128,-1,52
 350 -76 350 -76 297 -68.5 c 128,-1,53
 244 -61 244 -61 223 -57 c 1,54,55
 346 226 346 226 455.5 463 c 128,-1,56
 565 700 565 700 676 915 c 1,57,58
 592 909 592 909 506 914.5 c 128,-1,59
 420 920 420 920 343 939 c 128,-1,60
 266 958 266 958 205.5 991 c 128,-1,61
 145 1024 145 1024 115 1073 c 1,62,63
 109 1141 109 1141 104.5 1241 c 128,-1,0
 100 1341 100 1341 100 1446.5 c 128,-1,1
438 1421 m 128,-1,65
 438 1380 438 1380 440 1337 c 128,-1,66
 442 1294 442 1294 444 1241 c 1,67,68
 471 1235 471 1235 505 1232 c 128,-1,69
 539 1229 539 1229 572.5 1229 c 128,-1,70
 606 1229 606 1229 637 1234 c 128,-1,71
 668 1239 668 1239 686 1251 c 1,72,73
 686 1351 686 1351 689 1432 c 128,-1,74
 692 1513 692 1513 676 1608 c 1,75,76
 653 1608 653 1608 625.5 1611 c 128,-1,77
 598 1614 598 1614 568.5 1615 c 128,-1,78
 539 1616 539 1616 509 1614 c 128,-1,79
 479 1612 479 1612 455 1599 c 1,80,81
 447 1546 447 1546 442.5 1504 c 128,-1,64
 438 1462 438 1462 438 1421 c 128,-1,65
1370 463 m 128,-1,83
 1370 422 1370 422 1372 379 c 128,-1,84
 1374 336 1374 336 1376 283 c 1,85,86
 1403 277 1403 277 1436.5 273.5 c 128,-1,87
 1470 270 1470 270 1504 270 c 128,-1,88
 1538 270 1538 270 1569 275.5 c 128,-1,89
 1600 281 1600 281 1618 295 c 1,90,91
 1618 393 1618 393 1621 475 c 128,-1,92
 1624 557 1624 557 1608 651 c 1,93,94
 1563 651 1563 651 1499.5 657.5 c 128,-1,95
 1436 664 1436 664 1386 643 c 1,96,97
 1378 590 1378 590 1374 547 c 128,-1,82
 1370 504 1370 504 1370 463 c 128,-1,83
EndSplineSet
Validated: 33
EndChar

StartChar: ampersand
Encoding: 38 38 9
Width: 1613
GlyphClass: 2
Flags: W
LayerCount: 3
Fore
SplineSet
74 739 m 1,0,1
 154 819 154 819 247 881.5 c 128,-1,2
 340 944 340 944 467 983 c 1,3,4
 422 995 422 995 373 1017.5 c 128,-1,5
 324 1040 324 1040 280 1069 c 128,-1,6
 236 1098 236 1098 201 1133.5 c 128,-1,7
 166 1169 166 1169 150 1206 c 1,8,9
 154 1245 154 1245 172 1294 c 128,-1,10
 190 1343 190 1343 214 1390.5 c 128,-1,11
 238 1438 238 1438 264.5 1479 c 128,-1,12
 291 1520 291 1520 311 1538 c 1,13,14
 381 1558 381 1558 446.5 1575.5 c 128,-1,15
 512 1593 512 1593 573 1608 c 1,16,17
 571 1725 571 1725 567 1803.5 c 128,-1,18
 563 1882 563 1882 557 1966 c 1,19,20
 623 1993 623 1993 696.5 2009 c 128,-1,21
 770 2025 770 2025 846 2033.5 c 128,-1,22
 922 2042 922 2042 994.5 2042 c 128,-1,23
 1067 2042 1067 2042 1128 2036 c 1,24,25
 1112 1932 1112 1932 1105 1842.5 c 128,-1,26
 1098 1753 1098 1753 1092 1673 c 1,27,28
 1164 1679 1164 1679 1239.5 1679 c 128,-1,29
 1315 1679 1315 1679 1399 1679 c 1,30,31
 1417 1669 1417 1669 1437.5 1635.5 c 128,-1,32
 1458 1602 1458 1602 1475.5 1561 c 128,-1,33
 1493 1520 1493 1520 1503 1472.5 c 128,-1,34
 1513 1425 1513 1425 1511 1386 c 1,35,36
 1472 1380 1472 1380 1387.5 1376 c 128,-1,37
 1303 1372 1303 1372 1203.5 1364 c 128,-1,38
 1104 1356 1104 1356 1007.5 1340.5 c 128,-1,39
 911 1325 911 1325 850 1298 c 1,40,41
 823 1253 823 1253 812 1216.5 c 128,-1,42
 801 1180 801 1180 817 1118 c 1,43,44
 835 1110 835 1110 885.5 1106 c 128,-1,45
 936 1102 936 1102 992.5 1100 c 128,-1,46
 1049 1098 1049 1098 1102 1098 c 128,-1,47
 1155 1098 1155 1098 1180 1098 c 1,48,49
 1209 1047 1209 1047 1224 982.5 c 128,-1,50
 1239 918 1239 918 1235 860 c 1,51,52
 1188 860 1188 860 1116 854 c 128,-1,53
 1044 848 1044 848 972.5 839.5 c 128,-1,54
 901 831 901 831 841.5 819 c 128,-1,55
 782 807 782 807 760 791 c 1,56,57
 756 711 756 711 758 669 c 128,-1,58
 760 627 760 627 782 600 c 1,59,60
 858 580 858 580 947 571.5 c 128,-1,61
 1036 563 1036 563 1132.5 559 c 128,-1,62
 1229 555 1229 555 1331.5 556 c 128,-1,63
 1434 557 1434 557 1536 557 c 1,64,65
 1542 518 1542 518 1538 473 c 128,-1,66
 1534 428 1534 428 1521.5 384 c 128,-1,67
 1509 340 1509 340 1492 299 c 128,-1,68
 1475 258 1475 258 1458 229 c 1,69,70
 1405 221 1405 221 1318 215 c 128,-1,71
 1231 209 1231 209 1124 205 c 1,72,73
 1120 139 1120 139 1112 77.5 c 128,-1,74
 1104 16 1104 16 1087 -47 c 1,75,76
 1054 -57 1054 -57 991 -65.5 c 128,-1,77
 928 -74 928 -74 858 -80 c 128,-1,78
 788 -86 788 -86 722.5 -86 c 128,-1,79
 657 -86 657 -86 623 -78 c 1,80,81
 621 10 621 10 618.5 78.5 c 128,-1,82
 616 147 616 147 612 207 c 1,83,84
 506 213 506 213 417 225.5 c 128,-1,85
 328 238 328 238 274 258 c 1,86,87
 194 358 194 358 140 491.5 c 128,-1,88
 86 625 86 625 74 739 c 1,0,1
EndSplineSet
Validated: 33
EndChar

StartChar: quotesingle
Encoding: 39 39 10
Width: 753
GlyphClass: 2
Flags: W
LayerCount: 3
Fore
SplineSet
166 1671 m 1,0,1
 295 1724 295 1724 422 1731.5 c 128,-1,2
 549 1739 549 1739 668 1704 c 1,3,4
 648 1608 648 1608 627 1508.5 c 128,-1,5
 606 1409 606 1409 582.5 1315 c 128,-1,6
 559 1221 559 1221 531.5 1138 c 128,-1,7
 504 1055 504 1055 473 991 c 1,8,9
 440 981 440 981 401 973 c 128,-1,10
 362 965 362 965 322.5 959.5 c 128,-1,11
 283 954 283 954 243 954 c 128,-1,12
 203 954 203 954 168 963 c 1,13,14
 180 1051 180 1051 182 1151 c 128,-1,15
 184 1251 184 1251 181 1347.5 c 128,-1,16
 178 1444 178 1444 174 1529 c 128,-1,17
 170 1614 170 1614 166 1671 c 1,0,1
EndSplineSet
Validated: 33
EndChar

StartChar: parenleft
Encoding: 40 40 11
Width: 1032
GlyphClass: 2
Flags: W
LayerCount: 3
Fore
SplineSet
98 910.5 m 128,-1,1
 102 1092 102 1092 120.5 1259.5 c 128,-1,2
 139 1427 139 1427 174 1566.5 c 128,-1,3
 209 1706 209 1706 256 1784 c 1,4,5
 344 1835 344 1835 503 1890.5 c 128,-1,6
 662 1946 662 1946 866 1974 c 1,7,8
 878 1951 878 1951 892.5 1910.5 c 128,-1,9
 907 1870 907 1870 917.5 1822 c 128,-1,10
 928 1774 928 1774 935 1724.5 c 128,-1,11
 942 1675 942 1675 942 1638 c 1,12,13
 868 1630 868 1630 817 1602.5 c 128,-1,14
 766 1575 766 1575 713 1540 c 1,15,16
 697 1485 697 1485 682.5 1382.5 c 128,-1,17
 668 1280 668 1280 657.5 1158 c 128,-1,18
 647 1036 647 1036 641 906 c 128,-1,19
 635 776 635 776 636 659.5 c 128,-1,20
 637 543 637 543 647 454 c 128,-1,21
 657 365 657 365 680 322 c 1,22,23
 709 304 709 304 754 274 c 128,-1,24
 799 244 799 244 858 236 c 1,25,26
 850 138 850 138 827.5 46.5 c 128,-1,27
 805 -45 805 -45 774 -86 c 1,28,29
 706 -76 706 -76 632.5 -55.5 c 128,-1,30
 559 -35 559 -35 485.5 -7.5 c 128,-1,31
 412 20 412 20 342 49 c 128,-1,32
 272 78 272 78 213 100 c 1,33,34
 170 157 170 157 143.5 282.5 c 128,-1,35
 117 408 117 408 105.5 568.5 c 128,-1,0
 94 729 94 729 98 910.5 c 128,-1,1
EndSplineSet
Validated: 33
EndChar

StartChar: parenright
Encoding: 41 41 12
Width: 1032
GlyphClass: 2
Flags: W
LayerCount: 3
Fore
SplineSet
86 238 m 1,0,1
 160 248 160 248 211 274.5 c 128,-1,2
 262 301 262 301 315 336 c 1,3,4
 331 393 331 393 345.5 494.5 c 128,-1,5
 360 596 360 596 371.5 718 c 128,-1,6
 383 840 383 840 389 970 c 128,-1,7
 395 1100 395 1100 393 1216.5 c 128,-1,8
 391 1333 391 1333 381 1423 c 128,-1,9
 371 1513 371 1513 348 1554 c 1,10,11
 319 1574 319 1574 274 1604 c 128,-1,12
 229 1634 229 1634 172 1640 c 1,13,14
 178 1738 178 1738 200.5 1829.5 c 128,-1,15
 223 1921 223 1921 254 1964 c 1,16,17
 322 1954 322 1954 396.5 1932.5 c 128,-1,18
 471 1911 471 1911 543.5 1884.5 c 128,-1,19
 616 1858 616 1858 686 1828 c 128,-1,20
 756 1798 756 1798 815 1776 c 1,21,22
 858 1721 858 1721 884.5 1594.5 c 128,-1,23
 911 1468 911 1468 922.5 1307.5 c 128,-1,24
 934 1147 934 1147 930 966.5 c 128,-1,25
 926 786 926 786 907.5 617.5 c 128,-1,26
 889 449 889 449 855 310.5 c 128,-1,27
 821 172 821 172 772 92 c 1,28,29
 686 43 686 43 526.5 -13.5 c 128,-1,30
 367 -70 367 -70 162 -96 c 1,31,32
 150 -73 150 -73 135.5 -33.5 c 128,-1,33
 121 6 121 6 110.5 55 c 128,-1,34
 100 104 100 104 93 152.5 c 128,-1,35
 86 201 86 201 86 238 c 1,0,1
EndSplineSet
Validated: 33
EndChar

StartChar: asterisk
Encoding: 42 42 13
Width: 1241
GlyphClass: 2
Flags: W
LayerCount: 3
Fore
SplineSet
41 1483 m 1,0,1
 57 1501 57 1501 86 1525.5 c 128,-1,2
 115 1550 115 1550 151.5 1576 c 128,-1,3
 188 1602 188 1602 230 1625.5 c 128,-1,4
 272 1649 272 1649 311 1665 c 1,5,6
 327 1640 327 1640 371.5 1609.5 c 128,-1,7
 416 1579 416 1579 463 1546 c 1,8,9
 465 1601 465 1601 465 1650.5 c 128,-1,10
 465 1700 465 1700 467 1743 c 1,11,12
 541 1759 541 1759 628 1761 c 128,-1,13
 715 1763 715 1763 786 1763 c 1,14,-1
 786 1571 l 1,15,16
 817 1600 817 1600 844.5 1625.5 c 128,-1,17
 872 1651 872 1651 889 1669 c 1,18,19
 899 1673 899 1673 934 1663 c 128,-1,20
 969 1653 969 1653 1012 1634.5 c 128,-1,21
 1055 1616 1055 1616 1101 1591.5 c 128,-1,22
 1147 1567 1147 1567 1180 1538 c 1,23,24
 1108 1460 1108 1460 1026 1395.5 c 128,-1,25
 944 1331 944 1331 874 1247 c 1,26,27
 917 1206 917 1206 952 1176.5 c 128,-1,28
 987 1147 987 1147 1021 1117 c 128,-1,29
 1055 1087 1055 1087 1093 1050 c 128,-1,30
 1131 1013 1131 1013 1180 956 c 1,31,32
 1160 940 1160 940 1130 915.5 c 128,-1,33
 1100 891 1100 891 1066 868.5 c 128,-1,34
 1032 846 1032 846 994 827.5 c 128,-1,35
 956 809 956 809 918 803 c 1,36,37
 895 828 895 828 854 861.5 c 128,-1,38
 813 895 813 895 770 930 c 1,39,40
 768 881 768 881 767 830.5 c 128,-1,41
 766 780 766 780 762 731 c 1,42,43
 748 723 748 723 709 719 c 128,-1,44
 670 715 670 715 625 712 c 128,-1,45
 580 709 580 709 539 708 c 128,-1,46
 498 707 498 707 479 709 c 1,47,48
 475 758 475 758 474 812 c 128,-1,49
 473 866 473 866 471 926 c 1,50,51
 434 891 434 891 396 858 c 128,-1,52
 358 825 358 825 340 797 c 1,53,54
 303 795 303 795 261 808 c 128,-1,55
 219 821 219 821 181 841.5 c 128,-1,56
 143 862 143 862 110.5 887.5 c 128,-1,57
 78 913 78 913 55 936 c 1,58,59
 84 969 84 969 119 1014 c 128,-1,60
 154 1059 154 1059 188.5 1102 c 128,-1,61
 223 1145 223 1145 256 1183 c 128,-1,62
 289 1221 289 1221 315 1245 c 1,63,64
 270 1288 270 1288 232.5 1318 c 128,-1,65
 195 1348 195 1348 162 1372.5 c 128,-1,66
 129 1397 129 1397 99.5 1422.5 c 128,-1,67
 70 1448 70 1448 41 1483 c 1,0,1
EndSplineSet
Validated: 33
EndChar

StartChar: plus
Encoding: 43 43 14
Width: 1110
GlyphClass: 2
Flags: W
LayerCount: 3
Fore
SplineSet
100 812 m 128,-1,1
 102 868 102 868 107.5 917.5 c 128,-1,2
 113 967 113 967 121 997 c 1,3,4
 144 1001 144 1001 195 1002.5 c 128,-1,5
 246 1004 246 1004 311 1006 c 1,6,7
 311 1049 311 1049 312 1099 c 128,-1,8
 313 1149 313 1149 315 1202 c 128,-1,9
 317 1255 317 1255 319.5 1305.5 c 128,-1,10
 322 1356 322 1356 324 1395 c 1,11,12
 439 1415 439 1415 573 1418 c 128,-1,13
 707 1421 707 1421 819 1419 c 1,14,15
 819 1372 819 1372 819 1318 c 128,-1,16
 819 1264 819 1264 819 1208.5 c 128,-1,17
 819 1153 819 1153 819 1102 c 128,-1,18
 819 1051 819 1051 817 1010 c 1,19,20
 885 1010 885 1010 936 1008 c 128,-1,21
 987 1006 987 1006 1010 1001 c 1,22,23
 1014 968 1014 968 1017 918 c 128,-1,24
 1020 868 1020 868 1022 813 c 128,-1,25
 1024 758 1024 758 1023 708 c 128,-1,26
 1022 658 1022 658 1018 625 c 1,27,28
 977 621 977 621 920.5 619.5 c 128,-1,29
 864 618 864 618 799 616 c 1,30,31
 797 579 797 579 794 534 c 128,-1,32
 791 489 791 489 787.5 442 c 128,-1,33
 784 395 784 395 782 347 c 128,-1,34
 780 299 780 299 776 256 c 1,35,36
 756 248 756 248 694.5 242 c 128,-1,37
 633 236 633 236 564.5 231.5 c 128,-1,38
 496 227 496 227 432.5 227 c 128,-1,39
 369 227 369 227 340 229 c 1,40,41
 338 268 338 268 334 317.5 c 128,-1,42
 330 367 330 367 327 418 c 128,-1,43
 324 469 324 469 321.5 516 c 128,-1,44
 319 563 319 563 317 604 c 1,45,46
 256 598 256 598 204 595 c 128,-1,47
 152 592 152 592 115 586 c 1,48,49
 105 637 105 637 101.5 696.5 c 128,-1,0
 98 756 98 756 100 812 c 128,-1,1
EndSplineSet
Validated: 33
EndChar

StartChar: comma
Encoding: 44 44 15
Width: 790
GlyphClass: 2
Flags: W
LayerCount: 3
Fore
SplineSet
51 -86 m 1,0,1
 86 -8 86 -8 115.5 85 c 128,-1,2
 145 178 145 178 170 270 c 128,-1,3
 195 362 195 362 213 445 c 128,-1,4
 231 528 231 528 244 584 c 1,5,6
 379 582 379 582 500 540 c 128,-1,7
 621 498 621 498 725 420 c 1,8,9
 680 336 680 336 633 250 c 128,-1,10
 586 164 586 164 537.5 84 c 128,-1,11
 489 4 489 4 441 -64.5 c 128,-1,12
 393 -133 393 -133 346 -180 c 1,13,14
 280 -172 280 -172 197.5 -150.5 c 128,-1,15
 115 -129 115 -129 51 -86 c 1,0,1
EndSplineSet
Validated: 1
EndChar

StartChar: hyphen
Encoding: 45 45 16
Width: 819
GlyphClass: 2
Flags: W
LayerCount: 3
Fore
SplineSet
108.5 762.5 m 128,-1,1
 111 829 111 829 116 885.5 c 128,-1,2
 121 942 121 942 127 979 c 1,3,4
 170 985 170 985 249 988 c 128,-1,5
 328 991 328 991 414 994 c 128,-1,6
 500 997 500 997 577.5 994 c 128,-1,7
 655 991 655 991 696 985 c 1,8,9
 700 948 700 948 703.5 887.5 c 128,-1,10
 707 827 707 827 708 762.5 c 128,-1,11
 709 698 709 698 707.5 640 c 128,-1,12
 706 582 706 582 702 545 c 1,13,14
 561 527 561 527 411.5 525.5 c 128,-1,15
 262 524 262 524 123 498 c 1,16,17
 113 559 113 559 109.5 627.5 c 128,-1,0
 106 696 106 696 108.5 762.5 c 128,-1,1
EndSplineSet
Validated: 33
EndChar

StartChar: period
Encoding: 46 46 17
Width: 905
GlyphClass: 2
Flags: W
LayerCount: 3
Fore
SplineSet
154 120 m 128,-1,1
 156 158 156 158 161 194.5 c 128,-1,2
 166 231 166 231 170 254 c 0,3,4
 176 291 176 291 210 316.5 c 128,-1,5
 244 342 244 342 287 360.5 c 128,-1,6
 330 379 330 379 373 389 c 128,-1,7
 416 399 416 399 442 403 c 0,8,9
 467 409 467 409 498.5 405 c 128,-1,10
 530 401 530 401 563 394 c 128,-1,11
 596 387 596 387 627.5 376 c 128,-1,12
 659 365 659 365 680 354 c 1,13,14
 709 282 709 282 723 204.5 c 128,-1,15
 737 127 737 127 727 47 c 1,16,17
 715 22 715 22 671 4 c 128,-1,18
 627 -14 627 -14 568.5 -27.5 c 128,-1,19
 510 -41 510 -41 445.5 -47 c 128,-1,20
 381 -53 381 -53 322.5 -52 c 128,-1,21
 264 -51 264 -51 223 -40 c 128,-1,22
 182 -29 182 -29 170 -8 c 0,23,24
 158 10 158 10 155 46 c 128,-1,0
 152 82 152 82 154 120 c 128,-1,1
EndSplineSet
Validated: 33
EndChar

StartChar: slash
Encoding: 47 47 18
Width: 1654
GlyphClass: 2
Flags: W
LayerCount: 3
Fore
SplineSet
41 -57 m 1,0,1
 176 252 176 252 298 513 c 128,-1,2
 420 774 420 774 542 1009.5 c 128,-1,3
 664 1245 664 1245 793 1469.5 c 128,-1,4
 922 1694 922 1694 1071 1929 c 1,5,6
 1161 1939 1161 1939 1251 1934 c 128,-1,7
 1341 1929 1341 1929 1417 1919 c 128,-1,8
 1493 1909 1493 1909 1547.5 1897.5 c 128,-1,9
 1602 1886 1602 1886 1622 1880 c 1,10,11
 1487 1671 1487 1671 1350.5 1431.5 c 128,-1,12
 1214 1192 1214 1192 1081 939 c 128,-1,13
 948 686 948 686 822 428 c 128,-1,14
 696 170 696 170 584 -74 c 1,15,16
 494 -84 494 -84 404.5 -84 c 128,-1,17
 315 -84 315 -84 241.5 -80 c 128,-1,18
 168 -76 168 -76 114.5 -68.5 c 128,-1,19
 61 -61 61 -61 41 -57 c 1,0,1
EndSplineSet
Validated: 33
EndChar

StartChar: zero
Encoding: 48 48 19
Width: 2002
GlyphClass: 2
Flags: W
LayerCount: 3
Fore
SplineSet
92 638 m 128,-1,1
 92 780 92 780 92 924.5 c 128,-1,2
 92 1069 92 1069 95 1204 c 128,-1,3
 98 1339 98 1339 102 1444 c 1,4,5
 131 1473 131 1473 174 1527 c 128,-1,6
 217 1581 217 1581 263 1637.5 c 128,-1,7
 309 1694 309 1694 352 1742 c 128,-1,8
 395 1790 395 1790 426 1806 c 1,9,10
 530 1816 530 1816 677.5 1829.5 c 128,-1,11
 825 1843 825 1843 983 1851.5 c 128,-1,12
 1141 1860 1141 1860 1294.5 1855.5 c 128,-1,13
 1448 1851 1448 1851 1567 1827 c 1,14,15
 1610 1790 1610 1790 1652 1736.5 c 128,-1,16
 1694 1683 1694 1683 1734 1626 c 128,-1,17
 1774 1569 1774 1569 1810.5 1509.5 c 128,-1,18
 1847 1450 1847 1450 1880 1397 c 1,19,20
 1884 1327 1884 1327 1888 1233 c 128,-1,21
 1892 1139 1892 1139 1895 1035.5 c 128,-1,22
 1898 932 1898 932 1900.5 825.5 c 128,-1,23
 1903 719 1903 719 1903 623.5 c 128,-1,24
 1903 528 1903 528 1900.5 452.5 c 128,-1,25
 1898 377 1898 377 1892 332 c 1,26,27
 1822 240 1822 240 1762 141.5 c 128,-1,28
 1702 43 1702 43 1628 -49 c 1,29,30
 1554 -61 1554 -61 1455 -70.5 c 128,-1,31
 1356 -80 1356 -80 1243 -85 c 128,-1,32
 1130 -90 1130 -90 1007.5 -90 c 128,-1,33
 885 -90 885 -90 766 -86 c 128,-1,34
 647 -82 647 -82 537.5 -76 c 128,-1,35
 428 -70 428 -70 338 -57 c 1,36,37
 307 -26 307 -26 271.5 29 c 128,-1,38
 236 84 236 84 202 145.5 c 128,-1,39
 168 207 168 207 139.5 268.5 c 128,-1,40
 111 330 111 330 94 377 c 1,41,0
 92 496 92 496 92 638 c 128,-1,1
762 842.5 m 128,-1,43
 762 743 762 743 763 651 c 128,-1,44
 764 559 764 559 766 485.5 c 128,-1,45
 768 412 768 412 768 377 c 1,46,47
 815 352 815 352 877.5 346 c 128,-1,48
 940 340 940 340 1003.5 348 c 128,-1,49
 1067 356 1067 356 1124 378.5 c 128,-1,50
 1181 401 1181 401 1214 434 c 1,51,52
 1218 624 1218 624 1224.5 858 c 128,-1,53
 1231 1092 1231 1092 1202 1337 c 1,54,55
 1143 1335 1143 1335 1089.5 1334 c 128,-1,56
 1036 1333 1036 1333 987 1328 c 128,-1,57
 938 1323 938 1323 890 1310.5 c 128,-1,58
 842 1298 842 1298 791 1274 c 1,59,60
 781 1251 781 1251 774.5 1184.5 c 128,-1,61
 768 1118 768 1118 765 1030 c 128,-1,42
 762 942 762 942 762 842.5 c 128,-1,43
EndSplineSet
Validated: 33
EndChar

StartChar: one
Encoding: 49 49 20
Width: 995
GlyphClass: 2
Flags: W
LayerCount: 3
Fore
SplineSet
78 1479 m 1,0,1
 80 1563 80 1563 97.5 1655 c 128,-1,2
 115 1747 115 1747 137 1812 c 1,3,4
 205 1826 205 1826 300 1842 c 128,-1,5
 395 1858 395 1858 496.5 1870 c 128,-1,6
 598 1882 598 1882 694 1889 c 128,-1,7
 790 1896 790 1896 856 1896 c 1,8,9
 856 1675 856 1675 852 1443.5 c 128,-1,10
 848 1212 848 1212 841 977.5 c 128,-1,11
 834 743 834 743 824.5 508.5 c 128,-1,12
 815 274 815 274 805 49 c 1,13,14
 789 39 789 39 750 32 c 128,-1,15
 711 25 711 25 660.5 18.5 c 128,-1,16
 610 12 610 12 554 9 c 128,-1,17
 498 6 498 6 445.5 5 c 128,-1,18
 393 4 393 4 351 4 c 128,-1,19
 309 4 309 4 287 6 c 1,20,21
 277 166 277 166 270.5 349 c 128,-1,22
 264 532 264 532 261 721.5 c 128,-1,23
 258 911 258 911 258 1098.5 c 128,-1,24
 258 1286 258 1286 260 1458 c 1,25,26
 248 1458 248 1458 222.5 1460 c 128,-1,27
 197 1462 197 1462 169 1464 c 128,-1,28
 141 1466 141 1466 115.5 1470.5 c 128,-1,29
 90 1475 90 1475 78 1479 c 1,0,1
EndSplineSet
Validated: 1
EndChar

StartChar: two
Encoding: 50 50 21
Width: 1556
GlyphClass: 2
Flags: W
LayerCount: 3
Fore
SplineSet
74 394.5 m 128,-1,1
 72 502 72 502 78 609.5 c 128,-1,2
 84 717 84 717 104 805 c 1,3,4
 194 864 194 864 311 938 c 128,-1,5
 428 1012 428 1012 542.5 1080.5 c 128,-1,6
 657 1149 657 1149 753.5 1207.5 c 128,-1,7
 850 1266 850 1266 899 1290 c 1,8,9
 915 1358 915 1358 908 1404 c 128,-1,10
 901 1450 901 1450 872 1485 c 1,11,12
 802 1489 802 1489 700 1485 c 128,-1,13
 598 1481 598 1481 489.5 1473.5 c 128,-1,14
 381 1466 381 1466 279.5 1457 c 128,-1,15
 178 1448 178 1448 111 1440 c 1,16,17
 113 1485 113 1485 118 1541 c 128,-1,18
 123 1597 123 1597 131 1653.5 c 128,-1,19
 139 1710 139 1710 150.5 1761 c 128,-1,20
 162 1812 162 1812 176 1847 c 1,21,22
 239 1865 239 1865 333.5 1881.5 c 128,-1,23
 428 1898 428 1898 535.5 1910.5 c 128,-1,24
 643 1923 643 1923 756.5 1932.5 c 128,-1,25
 870 1942 870 1942 975.5 1943 c 128,-1,26
 1081 1944 1081 1944 1170.5 1939.5 c 128,-1,27
 1260 1935 1260 1935 1317 1923 c 1,28,29
 1370 1831 1370 1831 1402 1731.5 c 128,-1,30
 1434 1632 1434 1632 1450 1525.5 c 128,-1,31
 1466 1419 1466 1419 1470.5 1307.5 c 128,-1,32
 1475 1196 1475 1196 1475 1079 c 1,33,34
 1412 1018 1412 1018 1326.5 953.5 c 128,-1,35
 1241 889 1241 889 1142.5 824.5 c 128,-1,36
 1044 760 1044 760 936.5 694.5 c 128,-1,37
 829 629 829 629 719 565 c 0,38,39
 711 559 711 559 708 542.5 c 128,-1,40
 705 526 705 526 708 505.5 c 128,-1,41
 711 485 711 485 718 470 c 128,-1,42
 725 455 725 455 733 449 c 0,43,44
 753 441 753 441 803.5 432.5 c 128,-1,45
 854 424 854 424 920.5 421 c 128,-1,46
 987 418 987 418 1065 415 c 128,-1,47
 1143 412 1143 412 1217.5 412 c 128,-1,48
 1292 412 1292 412 1357.5 414 c 128,-1,49
 1423 416 1423 416 1466 416 c 1,50,51
 1468 385 1468 385 1467 335 c 128,-1,52
 1466 285 1466 285 1460 228.5 c 128,-1,53
 1454 172 1454 172 1444 117.5 c 128,-1,54
 1434 63 1434 63 1417 27 c 1,55,56
 1274 15 1274 15 1099 1.5 c 128,-1,57
 924 -12 924 -12 744.5 -18.5 c 128,-1,58
 565 -25 565 -25 397 -17.5 c 128,-1,59
 229 -10 229 -10 100 23 c 1,60,61
 92 91 92 91 84 189 c 128,-1,0
 76 287 76 287 74 394.5 c 128,-1,1
EndSplineSet
Validated: 33
EndChar

StartChar: three
Encoding: 51 51 22
Width: 1613
GlyphClass: 2
Flags: W
LayerCount: 3
Fore
SplineSet
109.5 220.5 m 128,-1,1
 106 279 106 279 113 336 c 1,2,3
 213 348 213 348 312.5 358.5 c 128,-1,4
 412 369 412 369 506 383 c 128,-1,5
 600 397 600 397 687 419.5 c 128,-1,6
 774 442 774 442 848 479 c 1,7,8
 871 510 871 510 878 534.5 c 128,-1,9
 885 559 885 559 884 588.5 c 128,-1,10
 883 618 883 618 877.5 655 c 128,-1,11
 872 692 872 692 870 750 c 1,12,13
 850 768 850 768 791.5 778 c 128,-1,14
 733 788 733 788 662.5 793.5 c 128,-1,15
 592 799 592 799 522.5 799 c 128,-1,16
 453 799 453 799 406 793 c 1,17,18
 402 869 402 869 417 963 c 128,-1,19
 432 1057 432 1057 459 1130 c 1,20,21
 484 1132 484 1132 536 1138.5 c 128,-1,22
 588 1145 588 1145 643 1153 c 128,-1,23
 698 1161 698 1161 746.5 1173.5 c 128,-1,24
 795 1186 795 1186 813 1200 c 1,25,26
 829 1286 829 1286 819 1337.5 c 128,-1,27
 809 1389 809 1389 782 1444 c 1,28,29
 723 1479 723 1479 629 1489 c 128,-1,30
 535 1499 535 1499 437.5 1500 c 128,-1,31
 340 1501 340 1501 256 1497 c 128,-1,32
 172 1493 172 1493 135 1495 c 1,33,34
 133 1550 133 1550 143.5 1616.5 c 128,-1,35
 154 1683 154 1683 170 1745.5 c 128,-1,36
 186 1808 186 1808 206.5 1856.5 c 128,-1,37
 227 1905 227 1905 246 1919 c 1,38,39
 400 1935 400 1935 531 1942.5 c 128,-1,40
 662 1950 662 1950 786.5 1942.5 c 128,-1,41
 911 1935 911 1935 1038 1910.5 c 128,-1,42
 1165 1886 1165 1886 1309 1843 c 1,43,44
 1329 1818 1329 1818 1354.5 1765 c 128,-1,45
 1380 1712 1380 1712 1402.5 1648.5 c 128,-1,46
 1425 1585 1425 1585 1442.5 1518.5 c 128,-1,47
 1460 1452 1460 1452 1466 1401 c 1,48,49
 1450 1346 1450 1346 1416 1291.5 c 128,-1,50
 1382 1237 1382 1237 1339 1191 c 128,-1,51
 1296 1145 1296 1145 1248 1108 c 128,-1,52
 1200 1071 1200 1071 1155 1049 c 1,53,54
 1278 1008 1278 1008 1387.5 931 c 128,-1,55
 1497 854 1497 854 1567 721 c 1,56,57
 1559 643 1559 643 1540.5 549 c 128,-1,58
 1522 455 1522 455 1496 365.5 c 128,-1,59
 1470 276 1470 276 1436.5 205.5 c 128,-1,60
 1403 135 1403 135 1366 102 c 1,61,62
 1311 67 1311 67 1215.5 37.5 c 128,-1,63
 1120 8 1120 8 1004.5 -12.5 c 128,-1,64
 889 -33 889 -33 764 -47 c 128,-1,65
 639 -61 639 -61 523.5 -70.5 c 128,-1,66
 408 -80 408 -80 313.5 -81 c 128,-1,67
 219 -82 219 -82 164 -78 c 1,68,69
 154 -43 154 -43 141.5 5 c 128,-1,70
 129 53 129 53 121 107.5 c 128,-1,0
 113 162 113 162 109.5 220.5 c 128,-1,1
EndSplineSet
Validated: 33
EndChar

StartChar: four
Encoding: 52 52 23
Width: 1900
GlyphClass: 2
Flags: W
LayerCount: 3
Fore
SplineSet
74 752 m 1,0,1
 103 830 103 830 150 931 c 128,-1,2
 197 1032 197 1032 253 1142.5 c 128,-1,3
 309 1253 309 1253 371.5 1365 c 128,-1,4
 434 1477 434 1477 493.5 1577 c 128,-1,5
 553 1677 553 1677 606 1758 c 128,-1,6
 659 1839 659 1839 696 1888 c 1,7,8
 741 1896 741 1896 813 1897 c 128,-1,9
 885 1898 885 1898 970 1895 c 128,-1,10
 1055 1892 1055 1892 1145 1884 c 128,-1,11
 1235 1876 1235 1876 1319 1869 c 128,-1,12
 1403 1862 1403 1862 1473.5 1854.5 c 128,-1,13
 1544 1847 1544 1847 1589 1845 c 1,14,15
 1599 1784 1599 1784 1605.5 1667 c 128,-1,16
 1612 1550 1612 1550 1615 1403.5 c 128,-1,17
 1618 1257 1618 1257 1618 1098.5 c 128,-1,18
 1618 940 1618 940 1618 793 c 1,19,20
 1679 793 1679 793 1730.5 790.5 c 128,-1,21
 1782 788 1782 788 1810 782 c 1,22,23
 1814 749 1814 749 1817.5 702 c 128,-1,24
 1821 655 1821 655 1822 607 c 128,-1,25
 1823 559 1823 559 1822 513 c 128,-1,26
 1821 467 1821 467 1817 430 c 1,27,28
 1768 424 1768 424 1717.5 423 c 128,-1,29
 1667 422 1667 422 1614 420 c 1,30,31
 1610 324 1610 324 1608 219.5 c 128,-1,32
 1606 115 1606 115 1602 37 c 1,33,34
 1567 27 1567 27 1510.5 17.5 c 128,-1,35
 1454 8 1454 8 1390.5 2 c 128,-1,36
 1327 -4 1327 -4 1262.5 -6 c 128,-1,37
 1198 -8 1198 -8 1144 -8 c 128,-1,38
 1090 -8 1090 -8 1052 -3 c 128,-1,39
 1014 2 1014 2 1006 12 c 1,40,41
 1010 86 1010 86 1014 170 c 128,-1,42
 1018 254 1018 254 1018 393 c 1,43,44
 944 395 944 395 829.5 392 c 128,-1,45
 715 389 715 389 589 387 c 128,-1,46
 463 385 463 385 340 387 c 128,-1,47
 217 389 217 389 127 401 c 1,48,49
 117 446 117 446 106.5 495.5 c 128,-1,50
 96 545 96 545 89 593 c 128,-1,51
 82 641 82 641 78 683 c 128,-1,52
 74 725 74 725 74 752 c 1,0,1
686 850 m 1,53,54
 704 842 704 842 750.5 836.5 c 128,-1,55
 797 831 797 831 848 829 c 128,-1,56
 899 827 899 827 946 832.5 c 128,-1,57
 993 838 993 838 1014 852 c 1,58,59
 1018 889 1018 889 1019 944 c 128,-1,60
 1020 999 1020 999 1020 1061.5 c 128,-1,61
 1020 1124 1020 1124 1021 1191 c 128,-1,62
 1022 1258 1022 1258 1022 1317 c 0,63,64
 1022 1364 1022 1364 1011.5 1383.5 c 128,-1,65
 1001 1403 1001 1403 984 1402 c 128,-1,66
 967 1401 967 1401 947.5 1383.5 c 128,-1,67
 928 1366 928 1366 911 1335 c 0,68,69
 876 1278 876 1278 841.5 1207.5 c 128,-1,70
 807 1137 807 1137 776 1069 c 128,-1,71
 745 1001 745 1001 721.5 944 c 128,-1,72
 698 887 698 887 686 850 c 1,53,54
EndSplineSet
Validated: 33
EndChar

StartChar: five
Encoding: 53 53 24
Width: 1613
GlyphClass: 2
Flags: W
LayerCount: 3
Fore
SplineSet
82 829 m 1,0,1
 78 948 78 948 84 1083.5 c 128,-1,2
 90 1219 90 1219 101.5 1351 c 128,-1,3
 113 1483 113 1483 129 1604.5 c 128,-1,4
 145 1726 145 1726 160 1819 c 1,5,6
 297 1862 297 1862 459 1881.5 c 128,-1,7
 621 1901 621 1901 791 1907 c 128,-1,8
 961 1913 961 1913 1127.5 1909 c 128,-1,9
 1294 1905 1294 1905 1442 1896 c 1,10,11
 1471 1800 1471 1800 1477 1693.5 c 128,-1,12
 1483 1587 1483 1587 1481 1483 c 1,13,14
 1401 1477 1401 1477 1305.5 1472.5 c 128,-1,15
 1210 1468 1210 1468 1111 1465 c 128,-1,16
 1012 1462 1012 1462 914.5 1456 c 128,-1,17
 817 1450 817 1450 737 1440 c 1,18,19
 708 1383 708 1383 704 1308 c 128,-1,20
 700 1233 700 1233 698 1161 c 1,21,22
 786 1145 786 1145 885.5 1122.5 c 128,-1,23
 985 1100 985 1100 1087.5 1079.5 c 128,-1,24
 1190 1059 1190 1059 1290.5 1037.5 c 128,-1,25
 1391 1016 1391 1016 1479 999 c 1,26,27
 1514 911 1514 911 1525 808 c 128,-1,28
 1536 705 1536 705 1527 599.5 c 128,-1,29
 1518 494 1518 494 1491 392.5 c 128,-1,30
 1464 291 1464 291 1423 211 c 1,31,32
 1286 135 1286 135 1135.5 82 c 128,-1,33
 985 29 985 29 831.5 -9 c 128,-1,34
 678 -47 678 -47 523.5 -72.5 c 128,-1,35
 369 -98 369 -98 219 -119 c 1,36,37
 201 -105 201 -105 186.5 -43.5 c 128,-1,38
 172 18 172 18 163 92 c 128,-1,39
 154 166 154 166 149.5 234.5 c 128,-1,40
 145 303 145 303 147 334 c 1,41,42
 229 338 229 338 329.5 354.5 c 128,-1,43
 430 371 430 371 526.5 390.5 c 128,-1,44
 623 410 623 410 703.5 434.5 c 128,-1,45
 784 459 784 459 825 481 c 1,46,47
 835 510 835 510 839.5 559 c 128,-1,48
 844 608 844 608 840 651 c 1,49,50
 815 669 815 669 761 682.5 c 128,-1,51
 707 696 707 696 634 707.5 c 128,-1,52
 561 719 561 719 480 729 c 128,-1,53
 399 739 399 739 322.5 752.5 c 128,-1,54
 246 766 246 766 182.5 784.5 c 128,-1,55
 119 803 119 803 82 829 c 1,0,1
EndSplineSet
Validated: 33
EndChar

StartChar: six
Encoding: 54 54 25
Width: 1810
GlyphClass: 2
Flags: W
LayerCount: 3
Fore
SplineSet
98 616.5 m 128,-1,1
 94 780 94 780 103.5 961.5 c 128,-1,2
 113 1143 113 1143 133.5 1308 c 128,-1,3
 154 1473 154 1473 183.5 1605 c 128,-1,4
 213 1737 213 1737 248 1806 c 1,5,6
 307 1831 307 1831 402.5 1854.5 c 128,-1,7
 498 1878 498 1878 611.5 1897.5 c 128,-1,8
 725 1917 725 1917 848 1932.5 c 128,-1,9
 971 1948 971 1948 1086.5 1958 c 128,-1,10
 1202 1968 1202 1968 1302.5 1972 c 128,-1,11
 1403 1976 1403 1976 1470 1972 c 1,12,13
 1478 1943 1478 1943 1490.5 1896 c 128,-1,14
 1503 1849 1503 1849 1514.5 1794 c 128,-1,15
 1526 1739 1526 1739 1532 1681.5 c 128,-1,16
 1538 1624 1538 1624 1534 1575 c 1,17,18
 1462 1567 1462 1567 1361 1548.5 c 128,-1,19
 1260 1530 1260 1530 1152 1508.5 c 128,-1,20
 1044 1487 1044 1487 944 1463.5 c 128,-1,21
 844 1440 844 1440 774 1423 c 1,22,23
 745 1380 745 1380 735 1318.5 c 128,-1,24
 725 1257 725 1257 725 1202 c 1,25,26
 815 1194 815 1194 943 1181.5 c 128,-1,27
 1071 1169 1071 1169 1208.5 1148.5 c 128,-1,28
 1346 1128 1346 1128 1476 1097.5 c 128,-1,29
 1606 1067 1606 1067 1700 1022 c 1,30,31
 1710 938 1710 938 1705 809 c 128,-1,32
 1700 680 1700 680 1680.5 545 c 128,-1,33
 1661 410 1661 410 1630 290 c 128,-1,34
 1599 170 1599 170 1559 100 c 1,35,36
 1440 30 1440 30 1275 -7.5 c 128,-1,37
 1110 -45 1110 -45 925.5 -46 c 128,-1,38
 741 -47 741 -47 548.5 -9 c 128,-1,39
 356 29 356 29 180 111 c 1,40,41
 143 183 143 183 122.5 318 c 128,-1,0
 102 453 102 453 98 616.5 c 128,-1,1
686 711 m 1,42,43
 684 541 684 541 733 412 c 1,44,45
 776 396 776 396 832.5 391.5 c 128,-1,46
 889 387 889 387 941 391 c 128,-1,47
 993 395 993 395 1032 405.5 c 128,-1,48
 1071 416 1071 416 1081 428 c 1,49,50
 1087 455 1087 455 1097.5 487.5 c 128,-1,51
 1108 520 1108 520 1117 554 c 128,-1,52
 1126 588 1126 588 1129 619.5 c 128,-1,53
 1132 651 1132 651 1124 674 c 1,54,55
 1095 692 1095 692 1037 702.5 c 128,-1,56
 979 713 979 713 912.5 716 c 128,-1,57
 846 719 846 719 783.5 717 c 128,-1,58
 721 715 721 715 686 711 c 1,42,43
EndSplineSet
Validated: 33
EndChar

StartChar: seven
Encoding: 55 55 26
Width: 1556
GlyphClass: 2
Flags: W
LayerCount: 3
Fore
SplineSet
103.5 1683.5 m 128,-1,1
 109 1786 109 1786 129 1878 c 1,2,3
 289 1901 289 1901 458 1911 c 128,-1,4
 627 1921 627 1921 792.5 1921 c 128,-1,5
 958 1921 958 1921 1115 1915 c 128,-1,6
 1272 1909 1272 1909 1403 1901 c 1,7,8
 1421 1854 1421 1854 1436.5 1798.5 c 128,-1,9
 1452 1743 1452 1743 1463.5 1687.5 c 128,-1,10
 1475 1632 1475 1632 1479 1582 c 128,-1,11
 1483 1532 1483 1532 1479 1497 c 1,12,13
 1424 1393 1424 1393 1337.5 1222 c 128,-1,14
 1251 1051 1251 1051 1149 845 c 128,-1,15
 1047 639 1047 639 934 414.5 c 128,-1,16
 821 190 821 190 713 -25 c 1,17,18
 652 -31 652 -31 574 -28 c 128,-1,19
 496 -25 496 -25 416 -13.5 c 128,-1,20
 336 -2 336 -2 263 16.5 c 128,-1,21
 190 35 190 35 139 59 c 1,22,23
 225 278 225 278 315.5 477 c 128,-1,24
 406 676 406 676 490.5 857 c 128,-1,25
 575 1038 575 1038 650 1200 c 128,-1,26
 725 1362 725 1362 782 1503 c 1,27,28
 714 1509 714 1509 625.5 1506 c 128,-1,29
 537 1503 537 1503 443.5 1498 c 128,-1,30
 350 1493 350 1493 262 1488 c 128,-1,31
 174 1483 174 1483 106 1491 c 1,32,0
 98 1581 98 1581 103.5 1683.5 c 128,-1,1
EndSplineSet
Validated: 33
EndChar

StartChar: eight
Encoding: 56 56 27
Width: 1871
GlyphClass: 2
Flags: W
LayerCount: 3
Fore
SplineSet
78 682 m 1,0,1
 107 719 107 719 144.5 756 c 128,-1,2
 182 793 182 793 222 827.5 c 128,-1,3
 262 862 262 862 303 895 c 128,-1,4
 344 928 344 928 377 958 c 1,5,6
 342 999 342 999 300 1040 c 128,-1,7
 258 1081 258 1081 219 1120 c 128,-1,8
 180 1159 180 1159 148.5 1194 c 128,-1,9
 117 1229 117 1229 104 1253 c 1,10,11
 120 1425 120 1425 162.5 1577 c 128,-1,12
 205 1729 205 1729 279 1872 c 1,13,14
 459 1901 459 1901 647.5 1916 c 128,-1,15
 836 1931 836 1931 1002.5 1932 c 128,-1,16
 1169 1933 1169 1933 1298 1922 c 128,-1,17
 1427 1911 1427 1911 1491 1892 c 1,18,19
 1569 1839 1569 1839 1627.5 1726.5 c 128,-1,20
 1686 1614 1686 1614 1708 1479 c 1,21,22
 1690 1416 1690 1416 1656 1350 c 128,-1,23
 1622 1284 1622 1284 1579 1226.5 c 128,-1,24
 1536 1169 1536 1169 1488 1123 c 128,-1,25
 1440 1077 1440 1077 1393 1053 c 1,26,27
 1426 1037 1426 1037 1486 1005 c 128,-1,28
 1546 973 1546 973 1610.5 926 c 128,-1,29
 1675 879 1675 879 1732.5 815.5 c 128,-1,30
 1790 752 1790 752 1817 670 c 1,31,32
 1821 627 1821 627 1804.5 548 c 128,-1,33
 1788 469 1788 469 1756 382 c 128,-1,34
 1724 295 1724 295 1680 210 c 128,-1,35
 1636 125 1636 125 1585 68 c 1,36,37
 1519 25 1519 25 1408.5 0 c 128,-1,38
 1298 -25 1298 -25 1167 -36 c 128,-1,39
 1036 -47 1036 -47 895 -44 c 128,-1,40
 754 -41 754 -41 623 -28.5 c 128,-1,41
 492 -16 492 -16 382 5.5 c 128,-1,42
 272 27 272 27 207 49 c 1,43,44
 182 104 182 104 159.5 176 c 128,-1,45
 137 248 137 248 118.5 329 c 128,-1,46
 100 410 100 410 89 500 c 128,-1,47
 78 590 78 590 78 682 c 1,0,1
682 607 m 128,-1,49
 680 557 680 557 683 509 c 128,-1,50
 686 461 686 461 695.5 422 c 128,-1,51
 705 383 705 383 719 369 c 1,52,53
 750 357 750 357 794 351.5 c 128,-1,54
 838 346 838 346 885 346 c 128,-1,55
 932 346 932 346 978 347 c 128,-1,56
 1024 348 1024 348 1057 348 c 1,57,58
 1082 373 1082 373 1098 421 c 128,-1,59
 1114 469 1114 469 1119 523.5 c 128,-1,60
 1124 578 1124 578 1120 626.5 c 128,-1,61
 1116 675 1116 675 1100 702 c 1,62,63
 1073 714 1073 714 1022 719.5 c 128,-1,64
 971 725 971 725 912.5 722 c 128,-1,65
 854 719 854 719 795.5 713 c 128,-1,66
 737 707 737 707 692 696 c 1,67,48
 684 657 684 657 682 607 c 128,-1,49
712 1282 m 128,-1,69
 713 1237 713 1237 719 1229 c 0,70,71
 735 1206 735 1206 776 1197 c 128,-1,72
 817 1188 817 1188 864 1188 c 128,-1,73
 911 1188 911 1188 956 1194 c 128,-1,74
 1001 1200 1001 1200 1024 1208 c 1,75,76
 1036 1237 1036 1237 1043.5 1276 c 128,-1,77
 1051 1315 1051 1315 1053 1355 c 128,-1,78
 1055 1395 1055 1395 1049.5 1435.5 c 128,-1,79
 1044 1476 1044 1476 1032 1507 c 1,80,81
 1016 1536 1016 1536 980 1546 c 128,-1,82
 944 1556 944 1556 903 1559.5 c 128,-1,83
 862 1563 862 1563 823 1556.5 c 128,-1,84
 784 1550 784 1550 760 1540 c 1,85,86
 744 1526 744 1526 732.5 1479 c 128,-1,87
 721 1432 721 1432 716 1379.5 c 128,-1,68
 711 1327 711 1327 712 1282 c 128,-1,69
EndSplineSet
Validated: 33
EndChar

StartChar: nine
Encoding: 57 57 28
Width: 1724
GlyphClass: 2
Flags: W
LayerCount: 3
Fore
SplineSet
74.5 1016 m 128,-1,1
 82 1163 82 1163 108.5 1313.5 c 128,-1,2
 135 1464 135 1464 178 1602.5 c 128,-1,3
 221 1741 221 1741 268 1839 c 1,4,5
 422 1876 422 1876 565.5 1894.5 c 128,-1,6
 709 1913 709 1913 852 1914 c 128,-1,7
 995 1915 995 1915 1142.5 1899.5 c 128,-1,8
 1290 1884 1290 1884 1450 1858 c 1,9,10
 1513 1713 1513 1713 1553 1549.5 c 128,-1,11
 1593 1386 1593 1386 1613.5 1222.5 c 128,-1,12
 1634 1059 1634 1059 1637 903.5 c 128,-1,13
 1640 748 1640 748 1630 614.5 c 128,-1,14
 1620 481 1620 481 1598.5 380.5 c 128,-1,15
 1577 280 1577 280 1546 225 c 1,16,17
 1394 149 1394 149 1250 100 c 128,-1,18
 1106 51 1106 51 960.5 19.5 c 128,-1,19
 815 -12 815 -12 665.5 -32.5 c 128,-1,20
 516 -53 516 -53 352 -74 c 1,21,22
 332 -60 332 -60 313.5 -5.5 c 128,-1,23
 295 49 295 49 279.5 112.5 c 128,-1,24
 264 176 264 176 256 237.5 c 128,-1,25
 248 299 248 299 250 330 c 1,26,27
 340 334 340 334 455.5 353.5 c 128,-1,28
 571 373 571 373 682 399.5 c 128,-1,29
 793 426 793 426 886 454.5 c 128,-1,30
 979 483 979 483 1024 506 c 1,31,32
 1034 539 1034 539 1034 578.5 c 128,-1,33
 1034 618 1034 618 1030 662 c 1,34,35
 952 672 952 672 831.5 679 c 128,-1,36
 711 686 711 686 577.5 694 c 128,-1,37
 444 702 444 702 315 715.5 c 128,-1,38
 186 729 186 729 90 752 c 1,39,0
 67 869 67 869 74.5 1016 c 128,-1,1
670 1147 m 1,40,41
 707 1141 707 1141 754 1140 c 128,-1,42
 801 1139 801 1139 852 1137 c 128,-1,43
 903 1135 903 1135 951 1133.5 c 128,-1,44
 999 1132 999 1132 1036 1126 c 1,45,46
 1048 1212 1048 1212 1047.5 1298 c 128,-1,47
 1047 1384 1047 1384 1036 1430 c 1,48,49
 1009 1430 1009 1430 971.5 1433 c 128,-1,50
 934 1436 934 1436 893 1437 c 128,-1,51
 852 1438 852 1438 814 1439 c 128,-1,52
 776 1440 776 1440 750 1438 c 1,53,54
 715 1385 715 1385 693.5 1302 c 128,-1,55
 672 1219 672 1219 670 1147 c 1,40,41
EndSplineSet
Validated: 33
EndChar

StartChar: colon
Encoding: 58 58 29
Width: 905
GlyphClass: 2
Flags: W
LayerCount: 3
Fore
SplineSet
154 120 m 128,-1,1
 156 158 156 158 161 194.5 c 128,-1,2
 166 231 166 231 170 254 c 0,3,4
 176 291 176 291 210 316.5 c 128,-1,5
 244 342 244 342 287 360.5 c 128,-1,6
 330 379 330 379 373 389 c 128,-1,7
 416 399 416 399 442 403 c 0,8,9
 467 409 467 409 498.5 405 c 128,-1,10
 530 401 530 401 563 394 c 128,-1,11
 596 387 596 387 627.5 376 c 128,-1,12
 659 365 659 365 680 354 c 1,13,14
 709 282 709 282 723 204.5 c 128,-1,15
 737 127 737 127 727 47 c 1,16,17
 715 22 715 22 671 4 c 128,-1,18
 627 -14 627 -14 568.5 -27.5 c 128,-1,19
 510 -41 510 -41 445.5 -47 c 128,-1,20
 381 -53 381 -53 322.5 -52 c 128,-1,21
 264 -51 264 -51 222 -40 c 128,-1,22
 180 -29 180 -29 170 -8 c 0,23,24
 158 10 158 10 155 46 c 128,-1,0
 152 82 152 82 154 120 c 128,-1,1
158 949 m 128,-1,26
 160 991 160 991 165 1029 c 128,-1,27
 170 1067 170 1067 174 1092 c 0,28,29
 180 1131 180 1131 212 1159.5 c 128,-1,30
 244 1188 244 1188 285 1207.5 c 128,-1,31
 326 1227 326 1227 367 1238 c 128,-1,32
 408 1249 408 1249 432 1253 c 0,33,34
 455 1259 455 1259 484.5 1255 c 128,-1,35
 514 1251 514 1251 546 1243 c 128,-1,36
 578 1235 578 1235 607.5 1223.5 c 128,-1,37
 637 1212 637 1212 657 1200 c 1,38,39
 686 1124 686 1124 699 1040 c 128,-1,40
 712 956 712 956 702 870 c 1,41,42
 690 845 690 845 649 825 c 128,-1,43
 608 805 608 805 553 791.5 c 128,-1,44
 498 778 498 778 435.5 770 c 128,-1,45
 373 762 373 762 318.5 765 c 128,-1,46
 264 768 264 768 224 779.5 c 128,-1,47
 184 791 184 791 174 811 c 0,48,49
 162 834 162 834 159 870.5 c 128,-1,25
 156 907 156 907 158 949 c 128,-1,26
EndSplineSet
Validated: 33
EndChar

StartChar: semicolon
Encoding: 59 59 30
Width: 802
GlyphClass: 2
Flags: W
LayerCount: 3
Fore
SplineSet
14 -162 m 1,0,1
 49 -80 49 -80 79 13 c 128,-1,2
 109 106 109 106 133.5 198.5 c 128,-1,3
 158 291 158 291 176.5 374 c 128,-1,4
 195 457 195 457 207 512 c 1,5,6
 342 510 342 510 463 467 c 128,-1,7
 584 424 584 424 688 346 c 1,8,9
 643 262 643 262 596 176 c 128,-1,10
 549 90 549 90 502 11 c 128,-1,11
 455 -68 455 -68 406.5 -136.5 c 128,-1,12
 358 -205 358 -205 311 -252 c 1,13,14
 243 -244 243 -244 160.5 -223.5 c 128,-1,15
 78 -203 78 -203 14 -162 c 1,0,1
137 1001.5 m 128,-1,17
 139 1042 139 1042 144.5 1081 c 128,-1,18
 150 1120 150 1120 154 1145 c 0,19,20
 160 1184 160 1184 191.5 1211.5 c 128,-1,21
 223 1239 223 1239 264 1259.5 c 128,-1,22
 305 1280 305 1280 346 1290 c 128,-1,23
 387 1300 387 1300 412 1307 c 0,24,25
 435 1311 435 1311 464.5 1308 c 128,-1,26
 494 1305 494 1305 525.5 1295.5 c 128,-1,27
 557 1286 557 1286 586.5 1275 c 128,-1,28
 616 1264 616 1264 637 1251 c 1,29,30
 666 1175 666 1175 679 1092.5 c 128,-1,31
 692 1010 692 1010 682 924 c 1,32,33
 670 899 670 899 629 877.5 c 128,-1,34
 588 856 588 856 532.5 842.5 c 128,-1,35
 477 829 477 829 414.5 823 c 128,-1,36
 352 817 352 817 298 818 c 128,-1,37
 244 819 244 819 204 830.5 c 128,-1,38
 164 842 164 842 154 864 c 0,39,40
 142 887 142 887 138.5 924 c 128,-1,16
 135 961 135 961 137 1001.5 c 128,-1,17
EndSplineSet
Validated: 33
EndChar

StartChar: less
Encoding: 60 60 31
Width: 1130
GlyphClass: 2
Flags: W
LayerCount: 3
Fore
SplineSet
98 903 m 1,0,1
 227 1161 227 1161 341 1411 c 128,-1,2
 455 1661 455 1661 575 1925 c 1,3,4
 657 1935 657 1935 738 1930 c 128,-1,5
 819 1925 819 1925 887.5 1916 c 128,-1,6
 956 1907 956 1907 1004.5 1895.5 c 128,-1,7
 1053 1884 1053 1884 1071 1876 c 1,8,9
 1010 1735 1010 1735 951.5 1608 c 128,-1,10
 893 1481 893 1481 836.5 1365 c 128,-1,11
 780 1249 780 1249 725 1141.5 c 128,-1,12
 670 1034 670 1034 616 926 c 1,13,14
 661 824 661 824 716.5 698.5 c 128,-1,15
 772 573 772 573 828.5 447.5 c 128,-1,16
 885 322 885 322 940 202 c 128,-1,17
 995 82 995 82 1040 -12 c 1,18,19
 979 -20 979 -20 902 -31.5 c 128,-1,20
 825 -43 825 -43 753.5 -52 c 128,-1,21
 682 -61 682 -61 628.5 -66.5 c 128,-1,22
 575 -72 575 -72 561 -68 c 1,23,24
 430 176 430 176 314.5 414.5 c 128,-1,25
 199 653 199 653 98 903 c 1,0,1
EndSplineSet
Validated: 33
EndChar

StartChar: equal
Encoding: 61 61 32
Width: 819
GlyphClass: 2
Flags: W
LayerCount: 3
Fore
SplineSet
108.5 477.5 m 128,-1,1
 111 541 111 541 116 596 c 128,-1,2
 121 651 121 651 127 686 c 1,3,4
 170 690 170 690 249 694 c 128,-1,5
 328 698 328 698 414 700 c 128,-1,6
 500 702 500 702 577.5 700 c 128,-1,7
 655 698 655 698 696 690 c 1,8,9
 700 655 700 655 703.5 598 c 128,-1,10
 707 541 707 541 708 478.5 c 128,-1,11
 709 416 709 416 707.5 357.5 c 128,-1,12
 706 299 706 299 702 266 c 1,13,14
 632 258 632 258 558.5 254 c 128,-1,15
 485 250 485 250 411.5 248 c 128,-1,16
 338 246 338 246 265.5 239.5 c 128,-1,17
 193 233 193 233 123 221 c 1,18,19
 113 280 113 280 109.5 347 c 128,-1,0
 106 414 106 414 108.5 477.5 c 128,-1,1
108.5 1125.5 m 128,-1,21
 111 1190 111 1190 116 1245 c 128,-1,22
 121 1300 121 1300 127 1335 c 1,23,24
 170 1339 170 1339 249 1343.5 c 128,-1,25
 328 1348 328 1348 414 1350 c 128,-1,26
 500 1352 500 1352 577.5 1350 c 128,-1,27
 655 1348 655 1348 696 1339 c 1,28,29
 700 1304 700 1304 703.5 1247 c 128,-1,30
 707 1190 707 1190 708 1127.5 c 128,-1,31
 709 1065 709 1065 707.5 1006.5 c 128,-1,32
 706 948 706 948 702 913 c 1,33,34
 632 907 632 907 558.5 903 c 128,-1,35
 485 899 485 899 411.5 897 c 128,-1,36
 338 895 338 895 265.5 889 c 128,-1,37
 193 883 193 883 123 870 c 1,38,39
 113 929 113 929 109.5 995 c 128,-1,20
 106 1061 106 1061 108.5 1125.5 c 128,-1,21
EndSplineSet
Validated: 33
EndChar

StartChar: greater
Encoding: 62 62 33
Width: 1130
GlyphClass: 2
Flags: W
LayerCount: 3
Fore
SplineSet
98 -2 m 1,0,1
 157 141 157 141 215.5 267 c 128,-1,2
 274 393 274 393 331.5 509 c 128,-1,3
 389 625 389 625 443.5 732.5 c 128,-1,4
 498 840 498 840 551 948 c 1,5,6
 506 1050 506 1050 451.5 1175 c 128,-1,7
 397 1300 397 1300 341 1426 c 128,-1,8
 285 1552 285 1552 229.5 1672 c 128,-1,9
 174 1792 174 1792 129 1886 c 1,10,11
 190 1894 190 1894 267 1905.5 c 128,-1,12
 344 1917 344 1917 415.5 1926 c 128,-1,13
 487 1935 487 1935 540.5 1940.5 c 128,-1,14
 594 1946 594 1946 608 1942 c 1,15,16
 739 1698 739 1698 855 1459.5 c 128,-1,17
 971 1221 971 1221 1071 971 c 1,18,19
 942 711 942 711 828.5 462 c 128,-1,20
 715 213 715 213 594 -51 c 1,21,22
 512 -61 512 -61 431 -56 c 128,-1,23
 350 -51 350 -51 281.5 -42 c 128,-1,24
 213 -33 213 -33 164.5 -21.5 c 128,-1,25
 116 -10 116 -10 98 -2 c 1,0,1
EndSplineSet
Validated: 33
EndChar

StartChar: question
Encoding: 63 63 34
Width: 1449
GlyphClass: 2
Flags: W
LayerCount: 3
Fore
SplineSet
66 1378 m 1,0,1
 78 1441 78 1441 89 1500 c 128,-1,2
 100 1559 100 1559 114.5 1615 c 128,-1,3
 129 1671 129 1671 145.5 1730.5 c 128,-1,4
 162 1790 162 1790 186 1855 c 1,5,6
 252 1890 252 1890 346 1910.5 c 128,-1,7
 440 1931 440 1931 547.5 1938.5 c 128,-1,8
 655 1946 655 1946 767 1942.5 c 128,-1,9
 879 1939 879 1939 979 1927 c 128,-1,10
 1079 1915 1079 1915 1159 1895.5 c 128,-1,11
 1239 1876 1239 1876 1282 1851 c 1,12,13
 1294 1804 1294 1804 1308.5 1720 c 128,-1,14
 1323 1636 1323 1636 1332 1544 c 128,-1,15
 1341 1452 1341 1452 1343 1362.5 c 128,-1,16
 1345 1273 1345 1273 1331 1212 c 1,17,18
 1294 1177 1294 1177 1244 1135.5 c 128,-1,19
 1194 1094 1194 1094 1140.5 1053 c 128,-1,20
 1087 1012 1087 1012 1036 978 c 128,-1,21
 985 944 985 944 946 922 c 1,22,23
 913 844 913 844 906 770 c 128,-1,24
 899 696 899 696 881 610 c 1,25,26
 842 598 842 598 765 589 c 128,-1,27
 688 580 688 580 603 573.5 c 128,-1,28
 518 567 518 567 439 564 c 128,-1,29
 360 561 360 561 319 561 c 1,30,31
 311 602 311 602 307 656.5 c 128,-1,32
 303 711 303 711 303 767 c 128,-1,33
 303 823 303 823 307 878.5 c 128,-1,34
 311 934 311 934 315 973 c 1,35,36
 342 1000 342 1000 381 1032.5 c 128,-1,37
 420 1065 420 1065 468 1097.5 c 128,-1,38
 516 1130 516 1130 570.5 1163 c 128,-1,39
 625 1196 625 1196 680 1225 c 1,40,41
 690 1274 690 1274 687 1325 c 128,-1,42
 684 1376 684 1376 672 1417 c 1,43,44
 645 1435 645 1435 594 1440.5 c 128,-1,45
 543 1446 543 1446 482.5 1443 c 128,-1,46
 422 1440 422 1440 356.5 1432.5 c 128,-1,47
 291 1425 291 1425 232.5 1415 c 128,-1,48
 174 1405 174 1405 130 1395.5 c 128,-1,49
 86 1386 86 1386 66 1378 c 1,0,1
290 108.5 m 128,-1,51
 289 158 289 158 293 201 c 128,-1,52
 297 244 297 244 307 256 c 0,53,54
 354 311 354 311 428 341 c 128,-1,55
 502 371 502 371 583 377 c 128,-1,56
 664 383 664 383 741.5 370.5 c 128,-1,57
 819 358 819 358 877 332 c 1,58,59
 881 322 881 322 890 296 c 128,-1,60
 899 270 899 270 908.5 233.5 c 128,-1,61
 918 197 918 197 922 149.5 c 128,-1,62
 926 102 926 102 918 53 c 1,63,64
 881 14 881 14 798 -12.5 c 128,-1,65
 715 -39 715 -39 620.5 -51 c 128,-1,66
 526 -63 526 -63 441 -60 c 128,-1,67
 356 -57 356 -57 315 -29 c 0,68,69
 303 -23 303 -23 297 18 c 128,-1,50
 291 59 291 59 290 108.5 c 128,-1,51
EndSplineSet
Validated: 33
EndChar

StartChar: at
Encoding: 64 64 35
Width: 1810
GlyphClass: 2
Flags: W
LayerCount: 3
Fore
SplineSet
76 649.5 m 128,-1,1
 72 805 72 805 81 969 c 128,-1,2
 90 1133 90 1133 109.5 1278 c 128,-1,3
 129 1423 129 1423 157.5 1542 c 128,-1,4
 186 1661 186 1661 221 1722 c 1,5,6
 293 1767 293 1767 401.5 1803 c 128,-1,7
 510 1839 510 1839 637 1862.5 c 128,-1,8
 764 1886 764 1886 902 1897.5 c 128,-1,9
 1040 1909 1040 1909 1172.5 1911 c 128,-1,10
 1305 1913 1305 1913 1421.5 1905.5 c 128,-1,11
 1538 1898 1538 1898 1624 1882 c 1,12,13
 1679 1712 1679 1712 1702.5 1515.5 c 128,-1,14
 1726 1319 1726 1319 1731.5 1119.5 c 128,-1,15
 1737 920 1737 920 1729.5 732.5 c 128,-1,16
 1722 545 1722 545 1716 391 c 1,17,18
 1700 383 1700 383 1638.5 371.5 c 128,-1,19
 1577 360 1577 360 1505.5 351 c 128,-1,20
 1434 342 1434 342 1369.5 339 c 128,-1,21
 1305 336 1305 336 1282 338 c 1,22,23
 1282 358 1282 358 1281 389 c 128,-1,24
 1280 420 1280 420 1278 438 c 1,25,26
 1225 438 1225 438 1153 438 c 128,-1,27
 1081 438 1081 438 1003.5 443.5 c 128,-1,28
 926 449 926 449 846 459 c 128,-1,29
 766 469 766 469 698 489 c 1,30,31
 669 542 669 542 658 660 c 128,-1,32
 647 778 647 778 651 914.5 c 128,-1,33
 655 1051 655 1051 675.5 1179 c 128,-1,34
 696 1307 696 1307 729 1378 c 1,35,36
 852 1431 852 1431 976 1454 c 128,-1,37
 1100 1477 1100 1477 1247 1473 c 1,38,39
 1247 1496 1247 1496 1243 1516 c 0,40,41
 1239 1532 1239 1532 1236 1550.5 c 128,-1,42
 1233 1569 1233 1569 1225 1581 c 1,43,44
 1180 1583 1180 1583 1098 1583 c 128,-1,45
 1016 1583 1016 1583 925 1573 c 128,-1,46
 834 1563 834 1563 748 1536 c 128,-1,47
 662 1509 662 1509 608 1458 c 1,48,49
 575 1372 575 1372 555 1240 c 128,-1,50
 535 1108 535 1108 528.5 958.5 c 128,-1,51
 522 809 522 809 530.5 660.5 c 128,-1,52
 539 512 539 512 563 391 c 1,53,54
 645 342 645 342 738 314.5 c 128,-1,55
 831 287 831 287 931.5 268.5 c 128,-1,56
 1032 250 1032 250 1137.5 237.5 c 128,-1,57
 1243 225 1243 225 1350 211 c 1,58,59
 1360 113 1360 113 1341.5 54.5 c 128,-1,60
 1323 -4 1323 -4 1294 -53 c 1,61,62
 1247 -65 1247 -65 1157 -66.5 c 128,-1,63
 1067 -68 1067 -68 956.5 -59.5 c 128,-1,64
 846 -51 846 -51 725 -32.5 c 128,-1,65
 604 -14 604 -14 493.5 12.5 c 128,-1,66
 383 39 383 39 294 71.5 c 128,-1,67
 205 104 205 104 158 141 c 1,68,69
 119 227 119 227 99.5 360.5 c 128,-1,0
 80 494 80 494 76 649.5 c 128,-1,1
1050 778.5 m 128,-1,71
 1053 717 1053 717 1067 680 c 1,72,73
 1104 668 1104 668 1162.5 679 c 128,-1,74
 1221 690 1221 690 1270 690 c 1,75,76
 1266 837 1266 837 1265 961 c 128,-1,77
 1264 1085 1264 1085 1266 1225 c 1,78,79
 1237 1223 1237 1223 1216.5 1221 c 128,-1,80
 1196 1219 1196 1219 1177.5 1212.5 c 128,-1,81
 1159 1206 1159 1206 1137.5 1196 c 128,-1,82
 1116 1186 1116 1186 1085 1169 c 1,83,84
 1075 1116 1075 1116 1065 1046.5 c 128,-1,85
 1055 977 1055 977 1051 908.5 c 128,-1,70
 1047 840 1047 840 1050 778.5 c 128,-1,71
EndSplineSet
Validated: 33
EndChar

StartChar: A
Encoding: 65 65 36
Width: 2078
GlyphClass: 2
Flags: W
LayerCount: 3
Fore
SplineSet
6 -31 m 1,0,1
 24 104 24 104 73.5 294.5 c 128,-1,2
 123 485 123 485 187.5 696 c 128,-1,3
 252 907 252 907 323.5 1118 c 128,-1,4
 395 1329 395 1329 459 1507 c 1,5,6
 428 1509 428 1509 401 1513 c 0,7,8
 378 1519 378 1519 356 1524.5 c 128,-1,9
 334 1530 334 1530 322 1536 c 1,10,11
 332 1575 332 1575 342 1622 c 128,-1,12
 352 1669 352 1669 363.5 1717 c 128,-1,13
 375 1765 375 1765 387 1808 c 128,-1,14
 399 1851 399 1851 414 1880 c 1,15,16
 477 1894 477 1894 577.5 1908.5 c 128,-1,17
 678 1923 678 1923 798 1930 c 0,18,19
 918 1938 918 1938 1047 1940 c 0,20,21
 1101 1941 1101 1941 1153 1941 c 0,22,23
 1226 1940 1226 1940 1298 1938 c 0,24,25
 1420 1934 1420 1934 1525 1924.5 c 128,-1,26
 1630 1915 1630 1915 1702 1894 c 1,27,28
 1751 1661 1751 1661 1800 1433.5 c 128,-1,29
 1849 1206 1849 1206 1895.5 977 c 128,-1,30
 1942 748 1942 748 1984.5 507 c 128,-1,31
 2027 266 2027 266 2062 6 c 1,32,33
 1984 -10 1984 -10 1900.5 -18.5 c 128,-1,34
 1817 -27 1817 -27 1734 -32 c 128,-1,35
 1651 -37 1651 -37 1574 -38 c 0,36,37
 1548 -38 1548 -38 1524 -38 c 0,38,39
 1476 -38 1476 -38 1436 -37 c 1,40,41
 1420 14 1420 14 1407.5 53 c 128,-1,42
 1395 92 1395 92 1385.5 126 c 128,-1,43
 1376 160 1376 160 1367 200 c 128,-1,44
 1358 240 1358 240 1348 293 c 1,45,46
 1276 303 1276 303 1183 305 c 0,47,48
 1121 306 1121 306 1059 306 c 0,49,50
 1028 306 1028 306 998 306 c 0,51,52
 906 305 906 305 823.5 297 c 128,-1,53
 741 289 741 289 688 276 c 1,54,55
 668 231 668 231 652.5 198.5 c 128,-1,56
 637 166 637 166 625.5 132 c 128,-1,57
 614 98 614 98 605 61.5 c 128,-1,58
 596 25 596 25 584 -25 c 1,59,60
 527 -39 527 -39 449 -45 c 128,-1,61
 371 -51 371 -51 290 -51 c 128,-1,62
 209 -51 209 -51 134 -46 c 128,-1,63
 59 -41 59 -41 6 -31 c 1,0,1
838 780 m 1,64,65
 873 772 873 772 933 768 c 0,66,67
 973 765 973 765 1014 765 c 0,68,69
 1036 765 1036 765 1056 766 c 0,70,71
 1118 768 1118 768 1171.5 772 c 128,-1,72
 1225 776 1225 776 1245 782 c 1,73,74
 1239 850 1239 850 1226.5 935 c 128,-1,75
 1214 1020 1214 1020 1198 1105 c 128,-1,76
 1182 1190 1182 1190 1162.5 1264.5 c 128,-1,77
 1143 1339 1143 1339 1122 1389 c 0,78,79
 1099 1445 1099 1445 1071 1445 c 0,80,81
 1068 1445 1068 1445 1066 1444 c 0,82,83
 1034 1438 1034 1438 1012 1389 c 0,84,85
 1006 1377 1006 1377 990.5 1331.5 c 128,-1,86
 975 1286 975 1286 955.5 1224.5 c 128,-1,87
 936 1163 936 1163 914.5 1091.5 c 128,-1,88
 893 1020 893 1020 875.5 956.5 c 128,-1,89
 858 893 858 893 848 845 c 128,-1,90
 838 797 838 797 838 780 c 1,64,65
EndSplineSet
Validated: 1
EndChar

StartChar: B
Encoding: 66 66 37
Width: 2105
GlyphClass: 2
Flags: W
LayerCount: 3
Fore
SplineSet
90 1468 m 1,0,1
 94 1587 94 1587 105.5 1689.5 c 128,-1,2
 117 1792 117 1792 127 1884 c 1,3,4
 225 1896 225 1896 350 1908.5 c 128,-1,5
 475 1921 475 1921 616 1930 c 0,6,7
 758 1938 758 1938 910 1942 c 0,8,9
 1007 1944 1007 1944 1103 1945 c 0,10,11
 1158 1945 1158 1945 1212 1944 c 0,12,13
 1362 1942 1362 1942 1504.5 1932.5 c 128,-1,14
 1647 1923 1647 1923 1769 1907 c 1,15,16
 1792 1878 1792 1878 1818.5 1820.5 c 128,-1,17
 1845 1763 1845 1763 1869.5 1694.5 c 128,-1,18
 1894 1626 1894 1626 1912.5 1553.5 c 128,-1,19
 1931 1481 1931 1481 1937 1425 c 1,20,21
 1919 1366 1919 1366 1883 1308.5 c 128,-1,22
 1847 1251 1847 1251 1801 1200 c 128,-1,23
 1755 1149 1755 1149 1705 1110 c 128,-1,24
 1655 1071 1655 1071 1608 1047 c 1,25,26
 1739 1006 1739 1006 1854.5 920.5 c 128,-1,27
 1970 835 1970 835 2044 692 c 1,28,29
 2036 606 2036 606 2016.5 502.5 c 128,-1,30
 1997 399 1997 399 1969.5 304 c 128,-1,31
 1942 209 1942 209 1907 132 c 128,-1,32
 1872 55 1872 55 1831 23 c 1,33,34
 1776 13 1776 13 1687.5 -2.5 c 128,-1,35
 1599 -18 1599 -18 1495 -31.5 c 128,-1,36
 1391 -45 1391 -45 1280 -57.5 c 128,-1,37
 1169 -70 1169 -70 1073 -74 c 0,38,39
 891 -84 891 -84 721 -84 c 0,40,41
 678 -84 678 -84 637 -83 c 0,42,43
 428 -80 428 -80 254 -43 c 1,44,45
 242 51 242 51 240 221 c 0,46,47
 239 289 239 289 239 363 c 0,48,49
 239 474 239 474 241 597 c 0,50,51
 244 803 244 803 251 1028 c 128,-1,52
 258 1253 258 1253 262 1454 c 1,53,54
 248 1456 248 1456 226.5 1455 c 128,-1,55
 205 1454 205 1454 180.5 1454 c 128,-1,56
 156 1454 156 1454 131 1457 c 128,-1,57
 106 1460 106 1460 90 1468 c 1,0,1
891 491 m 0,58,59
 897 375 897 375 909 297 c 1,60,61
 939 291 939 291 973 291 c 0,62,63
 982 291 982 291 990 291 c 0,64,65
 1034 293 1034 293 1078 297 c 128,-1,66
 1122 301 1122 301 1164 310 c 128,-1,67
 1206 319 1206 319 1237 330 c 1,68,69
 1284 398 1284 398 1298 499 c 0,70,71
 1308 577 1308 577 1308 668 c 0,72,73
 1308 695 1308 695 1307 723 c 1,74,75
 1284 741 1284 741 1234 753.5 c 128,-1,76
 1184 766 1184 766 1124 770 c 0,77,78
 1098 772 1098 772 1072 772 c 2,79,-1
 1006 769 l 2,80,81
 946 764 946 764 905 750 c 1,82,83
 890 640 890 640 889 546 c 0,84,85
 890 518 890 518 891 491 c 0,58,59
891 1243 m 128,-1,87
 891 1202 891 1202 893 1174 c 1,88,89
 918 1168 918 1168 969 1166 c 0,90,91
 982 1166 982 1166 995 1166 c 0,92,93
 1034 1166 1034 1166 1075 1170 c 0,94,95
 1130 1174 1130 1174 1179.5 1185 c 128,-1,96
 1229 1196 1229 1196 1247 1210 c 1,97,98
 1254 1252 1254 1252 1254 1299 c 0,99,100
 1254 1304 1254 1304 1254 1310 c 0,101,102
 1253 1364 1253 1364 1243 1414 c 128,-1,103
 1233 1464 1233 1464 1212.5 1503 c 128,-1,104
 1192 1542 1192 1542 1161 1565 c 1,105,106
 1128 1572 1128 1572 1092 1572 c 0,107,108
 1064 1572 1064 1572 1034 1568 c 0,109,110
 964 1559 964 1559 905 1536 c 1,111,112
 903 1489 903 1489 899 1437.5 c 128,-1,113
 895 1386 895 1386 893 1335 c 128,-1,86
 891 1284 891 1284 891 1243 c 128,-1,87
EndSplineSet
Validated: 1
EndChar

StartChar: C
Encoding: 67 67 38
Width: 1679
GlyphClass: 2
Flags: W
LayerCount: 3
Fore
SplineSet
75 590 m 0,0,1
 72 654 72 654 72 720 c 0,2,3
 72 806 72 806 77 898 c 0,4,5
 86 1061 86 1061 109.5 1213.5 c 128,-1,6
 133 1366 133 1366 171 1496 c 128,-1,7
 209 1626 209 1626 256 1708 c 1,8,9
 315 1743 315 1743 422.5 1774.5 c 128,-1,10
 530 1806 530 1806 662.5 1832 c 128,-1,11
 795 1858 795 1858 936 1877 c 128,-1,12
 1077 1896 1077 1896 1202 1904 c 0,13,14
 1291 1909 1291 1909 1366 1909 c 0,15,16
 1396 1909 1396 1909 1422 1908 c 0,17,18
 1518 1905 1518 1905 1556 1884 c 1,19,20
 1560 1857 1560 1857 1564.5 1812 c 128,-1,21
 1569 1767 1569 1767 1571 1710 c 0,22,23
 1572 1687 1572 1687 1572 1663 c 0,24,25
 1572 1626 1572 1626 1570 1588 c 0,26,27
 1567 1524 1567 1524 1556 1456 c 1,28,29
 1450 1448 1450 1448 1357 1443 c 128,-1,30
 1264 1438 1264 1438 1178 1430.5 c 128,-1,31
 1092 1423 1092 1423 1011 1406 c 128,-1,32
 930 1389 930 1389 848 1352 c 1,33,34
 825 1264 825 1264 803.5 1147 c 128,-1,35
 782 1030 782 1030 772 912 c 0,36,37
 766 842 766 842 766 777 c 0,38,39
 766 732 766 732 769 688 c 0,40,41
 776 584 776 584 809 520 c 1,42,43
 844 495 844 495 909.5 481 c 128,-1,44
 975 467 975 467 1055 460 c 128,-1,45
 1135 453 1135 453 1221 448.5 c 128,-1,46
 1307 444 1307 444 1382.5 442 c 128,-1,47
 1458 440 1458 440 1515 435 c 128,-1,48
 1572 430 1572 430 1597 418 c 1,49,50
 1598 403 1598 403 1598 387 c 0,51,52
 1598 346 1598 346 1594 296 c 0,53,54
 1589 225 1589 225 1580 160.5 c 128,-1,55
 1571 96 1571 96 1555.5 45 c 128,-1,56
 1540 -6 1540 -6 1520 -23 c 1,57,58
 1362 -21 1362 -21 1188 -14.5 c 128,-1,59
 1014 -8 1014 -8 839 9.5 c 128,-1,60
 664 27 664 27 494 61.5 c 128,-1,61
 324 96 324 96 172 154 c 1,62,63
 129 213 129 213 105.5 328.5 c 128,-1,64
 82 444 82 444 75 590 c 0,0,1
EndSplineSet
Validated: 1
EndChar

StartChar: D
Encoding: 68 68 39
Width: 2162
GlyphClass: 2
Flags: W
LayerCount: 3
Fore
SplineSet
78 1487 m 1,0,1
 78 1550 78 1550 82 1619 c 128,-1,2
 86 1688 86 1688 91 1748 c 128,-1,3
 96 1808 96 1808 100 1855.5 c 128,-1,4
 104 1903 104 1903 106 1923 c 1,5,6
 276 1948 276 1948 496 1964 c 256,7,8
 716 1980 716 1980 946 1982 c 0,9,10
 982 1982 982 1982 1018 1983 c 0,11,12
 1210 1984 1210 1984 1394 1972 c 0,13,14
 1612 1958 1612 1958 1778 1923 c 1,15,16
 1827 1878 1827 1878 1864 1833 c 128,-1,17
 1901 1788 1901 1788 1931.5 1742 c 128,-1,18
 1962 1696 1962 1696 1992.5 1642.5 c 128,-1,19
 2023 1589 2023 1589 2060 1526 c 1,20,21
 2066 1481 2066 1481 2069.5 1394 c 128,-1,22
 2073 1307 2073 1307 2073 1199.5 c 128,-1,23
 2073 1092 2073 1092 2070.5 973 c 128,-1,24
 2068 854 2068 854 2064 745.5 c 128,-1,25
 2060 637 2060 637 2054 548 c 128,-1,26
 2048 459 2048 459 2040 412 c 1,27,28
 2003 357 2003 357 1963 294 c 128,-1,29
 1923 231 1923 231 1880 171 c 128,-1,30
 1837 111 1837 111 1791 55.5 c 128,-1,31
 1745 0 1745 0 1698 -39 c 1,32,33
 1626 -47 1626 -47 1522.5 -57.5 c 128,-1,34
 1419 -68 1419 -68 1296.5 -75 c 128,-1,35
 1174 -82 1174 -82 1036 -84 c 0,36,37
 996 -85 996 -85 956 -85 c 0,38,39
 858 -85 858 -85 758 -81 c 0,40,41
 618 -76 618 -76 483 -61.5 c 128,-1,42
 348 -47 348 -47 229 -18 c 1,43,44
 217 120 217 120 214 306 c 0,45,46
 212 417 212 417 212 535 c 0,47,48
 212 612 212 612 213 694 c 0,49,50
 215 896 215 896 218 1100.5 c 128,-1,51
 221 1305 221 1305 223 1477 c 1,52,-1
 78 1487 l 1,0,1
872 696.5 m 128,-1,54
 872 596 872 596 875.5 526.5 c 128,-1,55
 879 457 879 457 883 446 c 1,56,57
 934 432 934 432 997.5 425 c 128,-1,58
 1061 418 1061 418 1123.5 418 c 128,-1,59
 1186 418 1186 418 1243 425 c 128,-1,60
 1300 432 1300 432 1341 446 c 1,61,62
 1378 555 1378 555 1395.5 685 c 128,-1,63
 1413 815 1413 815 1415 945 c 0,64,65
 1415 966 1415 966 1415 986 c 0,66,67
 1414 1094 1414 1094 1406 1194 c 0,68,69
 1396 1313 1396 1313 1378 1393 c 1,70,71
 1337 1430 1337 1430 1272.5 1449 c 128,-1,72
 1208 1468 1208 1468 1136 1472 c 0,73,74
 1117 1473 1117 1473 1099 1474 c 0,75,76
 1046 1474 1046 1474 996 1464 c 0,77,78
 928 1452 928 1452 879 1427 c 1,79,80
 877 1400 877 1400 875.5 1320.5 c 128,-1,81
 874 1241 874 1241 873 1135.5 c 128,-1,82
 872 1030 872 1030 872 913.5 c 128,-1,53
 872 797 872 797 872 696.5 c 128,-1,54
EndSplineSet
Validated: 33
EndChar

StartChar: E
Encoding: 69 69 40
Width: 1736
GlyphClass: 2
Flags: W
LayerCount: 3
Fore
SplineSet
72 1522 m 1,0,1
 76 1616 76 1616 88 1714 c 128,-1,2
 100 1812 100 1812 121 1898 c 1,3,4
 227 1921 227 1921 351 1934.5 c 128,-1,5
 475 1948 475 1948 607 1955 c 0,6,7
 738 1962 738 1962 874 1963 c 0,8,9
 919 1963 919 1963 964 1963 c 0,10,11
 1053 1963 1053 1963 1140 1962 c 0,12,13
 1270 1960 1270 1960 1388.5 1956 c 128,-1,14
 1507 1952 1507 1952 1606 1948 c 1,15,16
 1618 1915 1618 1915 1622 1860.5 c 128,-1,17
 1626 1806 1626 1806 1627 1748 c 0,18,19
 1627 1730 1627 1730 1627 1710 c 0,20,21
 1627 1672 1627 1672 1626 1634 c 0,22,23
 1624 1578 1624 1578 1622 1540 c 1,24,25
 1518 1535 1518 1535 1415 1535 c 0,26,27
 1364 1535 1364 1535 1312 1536 c 0,28,29
 1281 1537 1281 1537 1250 1537 c 0,30,31
 1126 1537 1126 1537 1001 1524 c 1,32,33
 985 1499 985 1499 974 1450 c 0,34,35
 964 1402 964 1402 960 1344 c 0,36,37
 959 1322 959 1322 958 1299 c 0,38,39
 958 1264 958 1264 962 1231 c 0,40,41
 968 1176 968 1176 981 1139 c 1,42,43
 987 1137 987 1137 1024 1137 c 128,-1,44
 1061 1137 1061 1137 1115 1138 c 128,-1,45
 1169 1139 1169 1139 1233.5 1139 c 128,-1,46
 1298 1139 1298 1139 1358.5 1139 c 128,-1,47
 1419 1139 1419 1139 1471.5 1138 c 128,-1,48
 1524 1137 1524 1137 1550 1130 c 1,49,50
 1558 1056 1558 1056 1562 970 c 0,51,52
 1563 945 1563 945 1564 922 c 0,53,54
 1564 865 1564 865 1556 815 c 1,55,56
 1486 807 1486 807 1412.5 806 c 128,-1,57
 1339 805 1339 805 1265.5 804 c 128,-1,58
 1192 803 1192 803 1119.5 799 c 128,-1,59
 1047 795 1047 795 977 780 c 1,60,61
 964 749 964 749 958 699 c 0,62,63
 954 662 954 662 953 623 c 0,64,65
 953 609 953 609 954 594 c 0,66,67
 956 539 956 539 961.5 486.5 c 128,-1,68
 967 434 967 434 973 401 c 1,69,70
 1018 387 1018 387 1101 384 c 0,71,72
 1143 382 1143 382 1186.5 382 c 128,-1,73
 1230 382 1230 382 1277 384 c 0,74,75
 1370 387 1370 387 1460 389 c 0,76,77
 1482 389 1482 389 1503 390 c 0,78,79
 1565 390 1565 390 1608 385 c 1,80,81
 1622 292 1622 292 1624 186 c 0,82,83
 1624 178 1624 178 1624 169 c 0,84,85
 1624 72 1624 72 1602 -14 c 1,86,87
 1434 -30 1434 -30 1273 -40.5 c 128,-1,88
 1112 -51 1112 -51 947 -52 c 0,89,90
 929 -52 929 -52 910 -52 c 0,91,92
 763 -52 763 -52 610 -45 c 0,93,94
 438 -37 438 -37 250 -14 c 1,95,96
 236 156 236 156 230 348 c 0,97,98
 225 538 225 538 224 736 c 0,99,100
 224 785 224 785 224 835 c 0,101,102
 224 984 224 984 226 1134 c 0,103,104
 229 1334 229 1334 233 1520 c 1,105,106
 198 1520 198 1520 152 1521 c 128,-1,107
 106 1522 106 1522 72 1522 c 1,0,1
EndSplineSet
Validated: 1
EndChar

StartChar: F
Encoding: 70 70 41
Width: 1626
GlyphClass: 2
Flags: W
LayerCount: 3
Fore
SplineSet
80 1538 m 1,0,1
 86 1649 86 1649 88 1744 c 128,-1,2
 90 1839 90 1839 92 1882 c 1,3,4
 203 1911 203 1911 334 1927.5 c 128,-1,5
 465 1944 465 1944 604 1950 c 0,6,7
 708 1954 708 1954 812 1955 c 0,8,9
 848 1955 848 1955 882 1954 c 0,10,11
 1020 1952 1020 1952 1144 1948 c 128,-1,12
 1268 1944 1268 1944 1371 1938 c 128,-1,13
 1474 1932 1474 1932 1542 1927 c 1,14,15
 1543 1892 1543 1892 1543 1857 c 0,16,17
 1543 1788 1543 1788 1538 1716 c 0,18,19
 1530 1608 1530 1608 1501 1513 c 1,20,21
 1426 1497 1426 1497 1344 1495 c 0,22,23
 1303 1494 1303 1494 1261.5 1494 c 128,-1,24
 1220 1494 1220 1494 1179 1495 c 0,25,26
 1096 1497 1096 1497 1014 1500 c 0,27,28
 987 1501 987 1501 960 1501 c 0,29,30
 906 1501 906 1501 852 1497 c 1,31,32
 834 1483 834 1483 826 1437 c 0,33,34
 819 1392 819 1392 817 1334 c 0,35,36
 816 1305 816 1305 816 1277.5 c 128,-1,37
 816 1250 816 1250 817 1224 c 0,38,39
 819 1172 819 1172 819 1145 c 1,40,41
 866 1129 866 1129 946 1125.5 c 128,-1,42
 1026 1122 1026 1122 1115 1121 c 0,43,44
 1159 1121 1159 1121 1202.5 1120.5 c 128,-1,45
 1246 1120 1246 1120 1289 1121 c 0,46,47
 1301 1121 1301 1121 1313 1121 c 0,48,49
 1383 1121 1383 1121 1432 1116 c 1,50,51
 1444 1065 1444 1065 1449 1023 c 0,52,53
 1453 993 1453 993 1453 964 c 0,54,55
 1453 952 1453 952 1452 941 c 0,56,57
 1450 901 1450 901 1443 860 c 128,-1,58
 1436 819 1436 819 1421 768 c 1,59,60
 1345 758 1345 758 1271.5 755 c 128,-1,61
 1198 752 1198 752 1124.5 747.5 c 128,-1,62
 1051 743 1051 743 976 737 c 128,-1,63
 901 731 901 731 827 711 c 1,64,65
 825 705 825 705 824 628 c 128,-1,66
 823 551 823 551 822.5 444.5 c 128,-1,67
 822 338 822 338 824.5 217 c 128,-1,68
 827 96 827 96 831 2 c 1,69,70
 792 -14 792 -14 715.5 -27.5 c 128,-1,71
 639 -41 639 -41 550 -48 c 128,-1,72
 461 -55 461 -55 368.5 -55 c 128,-1,73
 276 -55 276 -55 205 -45 c 1,74,75
 186 150 186 150 182 360 c 0,76,77
 179 486 179 486 180 609 c 0,78,79
 180 692 180 692 181 774 c 0,80,81
 184 979 184 979 192.5 1168.5 c 128,-1,82
 201 1358 201 1358 209 1509 c 1,83,84
 186 1509 186 1509 144 1520.5 c 128,-1,85
 102 1532 102 1532 80 1538 c 1,0,1
EndSplineSet
Validated: 33
EndChar

StartChar: G
Encoding: 71 71 42
Width: 1945
GlyphClass: 2
Flags: W
LayerCount: 3
Fore
SplineSet
97 736 m 0,0,1
 98 852 98 852 111.5 977 c 128,-1,2
 125 1102 125 1102 151.5 1229 c 128,-1,3
 178 1356 178 1356 220 1463.5 c 128,-1,4
 262 1571 262 1571 320.5 1651 c 128,-1,5
 379 1731 379 1731 459 1765 c 0,6,7
 570 1814 570 1814 722 1846 c 128,-1,8
 874 1878 874 1878 1037 1899.5 c 128,-1,9
 1200 1921 1200 1921 1354.5 1931.5 c 128,-1,10
 1509 1942 1509 1942 1626 1950 c 1,11,12
 1661 1850 1661 1850 1678 1728 c 0,13,14
 1692 1637 1692 1637 1692 1560 c 0,15,16
 1692 1534 1692 1534 1690 1509 c 1,17,18
 1608 1499 1608 1499 1504.5 1490 c 128,-1,19
 1401 1481 1401 1481 1294.5 1467.5 c 128,-1,20
 1188 1454 1188 1454 1086.5 1432.5 c 128,-1,21
 985 1411 985 1411 905 1382 c 1,22,23
 872 1349 872 1349 847.5 1289 c 128,-1,24
 823 1229 823 1229 805.5 1153 c 128,-1,25
 788 1077 788 1077 777 993 c 128,-1,26
 766 909 766 909 764 828 c 0,27,28
 764 811 764 811 764 793 c 0,29,30
 764 733 764 733 769 679 c 0,31,32
 776 610 776 610 791 563 c 1,33,34
 838 545 838 545 899.5 528.5 c 128,-1,35
 961 512 961 512 1022 500.5 c 128,-1,36
 1083 489 1083 489 1136 486 c 0,37,38
 1169 484 1169 484 1193 484 c 0,39,40
 1209 484 1209 484 1221 485 c 1,41,42
 1235 534 1235 534 1243 567 c 128,-1,43
 1251 600 1251 600 1253 631 c 128,-1,44
 1255 662 1255 662 1250 693.5 c 128,-1,45
 1245 725 1245 725 1233 772 c 1,46,47
 1174 799 1174 799 1103 803 c 0,48,49
 1068 805 1068 805 1036 805 c 128,-1,50
 1004 805 1004 805 975 803 c 1,51,52
 967 866 967 866 967 922 c 0,53,54
 967 938 967 938 968 954 c 0,55,56
 971 1024 971 1024 995 1104 c 1,57,58
 1079 1124 1079 1124 1188.5 1137.5 c 128,-1,59
 1298 1151 1298 1151 1411 1159 c 128,-1,60
 1524 1167 1524 1167 1627.5 1171.5 c 128,-1,61
 1731 1176 1731 1176 1802 1176 c 1,62,63
 1810 1037 1810 1037 1816.5 860.5 c 128,-1,64
 1823 684 1823 684 1828 504 c 128,-1,65
 1833 324 1833 324 1835 152.5 c 128,-1,66
 1837 -19 1837 -19 1837 -150 c 1,67,68
 1788 -156 1788 -156 1715 -160 c 128,-1,69
 1642 -164 1642 -164 1561.5 -164 c 128,-1,70
 1481 -164 1481 -164 1399 -157 c 128,-1,71
 1317 -150 1317 -150 1249 -131 c 1,72,-1
 1249 -8 l 1,73,74
 1155 0 1155 0 1035 9 c 128,-1,75
 915 18 915 18 789.5 30.5 c 128,-1,76
 664 43 664 43 543 63.5 c 128,-1,77
 422 84 422 84 328 123 c 0,78,79
 252 156 252 156 210 190.5 c 128,-1,80
 168 225 168 225 146.5 271 c 128,-1,81
 125 317 125 317 117 381.5 c 128,-1,82
 109 446 109 446 102 535 c 0,83,84
 97 609 97 609 97 704 c 0,85,86
 97 720 97 720 97 736 c 0,0,1
EndSplineSet
Validated: 1
EndChar

StartChar: H
Encoding: 72 72 43
Width: 1949
GlyphClass: 2
Flags: W
LayerCount: 3
Fore
SplineSet
118 902 m 0,0,1
 119 1110 119 1110 122 1302.5 c 128,-1,2
 125 1495 125 1495 129 1655 c 128,-1,3
 133 1815 133 1815 135 1907 c 1,4,5
 172 1919 172 1919 230.5 1927 c 128,-1,6
 289 1935 289 1935 356.5 1940.5 c 128,-1,7
 424 1946 424 1946 494 1948 c 0,8,9
 529 1949 529 1949 561.5 1949 c 128,-1,10
 594 1949 594 1949 624 1948 c 0,11,12
 682 1946 682 1946 723 1940.5 c 128,-1,13
 764 1935 764 1935 772 1923 c 1,14,15
 749 1770 749 1770 749 1600 c 0,16,17
 750 1596 750 1596 750 1593 c 0,18,19
 750 1419 750 1419 750 1264 c 1,20,21
 795 1250 795 1250 863 1250 c 0,22,23
 866 1250 866 1250 868 1250 c 0,24,25
 938 1250 938 1250 1010.5 1259 c 128,-1,26
 1083 1268 1083 1268 1142.5 1280 c 128,-1,27
 1202 1292 1202 1292 1225 1300 c 1,28,29
 1235 1347 1235 1347 1235 1425 c 128,-1,30
 1235 1503 1235 1503 1232 1590 c 128,-1,31
 1229 1677 1229 1677 1227 1765 c 0,32,33
 1226 1794 1226 1794 1226 1822 c 0,34,35
 1226 1877 1226 1877 1229 1923 c 1,36,37
 1262 1939 1262 1939 1342.5 1951.5 c 128,-1,38
 1423 1964 1423 1964 1514.5 1970 c 128,-1,39
 1606 1976 1606 1976 1688.5 1976 c 128,-1,40
 1771 1976 1771 1976 1806 1968 c 1,41,42
 1816 1841 1816 1841 1820 1665 c 0,43,44
 1824 1521 1824 1521 1824 1361 c 0,45,46
 1824 1326 1824 1326 1824 1290 c 0,47,48
 1823 1090 1823 1090 1819 885 c 128,-1,49
 1815 680 1815 680 1810.5 497.5 c 128,-1,50
 1806 315 1806 315 1802 173 c 128,-1,51
 1798 31 1798 31 1796 -45 c 1,52,53
 1753 -53 1753 -53 1668 -56 c 128,-1,54
 1583 -59 1583 -59 1492 -59 c 128,-1,55
 1401 -59 1401 -59 1324 -57 c 128,-1,56
 1247 -55 1247 -55 1221 -53 c 1,57,58
 1218 -5 1218 -5 1218 51 c 0,59,60
 1218 79 1218 79 1219 110 c 0,61,62
 1221 201 1221 201 1224 298 c 0,63,64
 1226 356 1226 356 1226 414 c 0,65,66
 1226 452 1226 452 1225 490 c 0,67,68
 1223 584 1223 584 1208 659 c 1,69,70
 1180 660 1180 660 1112 666 c 0,71,72
 1055 671 1055 671 994 671 c 0,73,74
 984 671 984 671 972 671 c 0,75,76
 900 670 900 670 839 657.5 c 128,-1,77
 778 645 778 645 762 612 c 1,78,79
 752 444 752 444 746 278 c 0,80,81
 744 205 744 205 744 132 c 0,82,83
 744 39 744 39 748 -55 c 1,84,85
 680 -69 680 -69 605 -78.5 c 128,-1,86
 530 -88 530 -88 452 -91 c 0,87,88
 406 -93 406 -93 360 -93 c 0,89,90
 329 -93 329 -93 298 -92 c 0,91,92
 221 -90 221 -90 150 -82 c 1,93,94
 138 4 138 4 130 158 c 0,95,96
 123 314 123 314 120 504 c 0,97,98
 118 647 118 647 118 799 c 0,99,100
 118 850 118 850 118 902 c 0,0,1
EndSplineSet
Validated: 1
EndChar

StartChar: I
Encoding: 73 73 44
Width: 897
GlyphClass: 2
Flags: W
LayerCount: 3
Fore
SplineSet
161 922 m 0,0,1
 161 1001 161 1001 161 1079 c 0,2,3
 161 1234 161 1234 162 1386 c 0,4,5
 164 1614 164 1614 170 1802 c 1,6,7
 238 1818 238 1818 313.5 1825.5 c 128,-1,8
 389 1833 389 1833 466 1836 c 128,-1,9
 543 1839 543 1839 616.5 1839 c 128,-1,10
 690 1839 690 1839 756 1839 c 1,11,12
 756 1397 756 1397 743 950.5 c 128,-1,13
 730 504 730 504 707 49 c 1,14,15
 691 39 691 39 651.5 32 c 128,-1,16
 612 25 612 25 562 18.5 c 128,-1,17
 512 12 512 12 455.5 9 c 128,-1,18
 399 6 399 6 347 5 c 128,-1,19
 295 4 295 4 253 4 c 128,-1,20
 211 4 211 4 188 6 c 1,21,22
 176 213 176 213 169 448.5 c 128,-1,23
 162 684 162 684 161 922 c 0,0,1
EndSplineSet
Validated: 1
EndChar

StartChar: J
Encoding: 74 74 45
Width: 1568
GlyphClass: 2
Flags: W
LayerCount: 3
Fore
SplineSet
96 95 m 0,0,1
 94 125 94 125 94 157 c 0,2,3
 94 246 94 246 109 348 c 1,4,5
 193 352 193 352 272.5 355 c 128,-1,6
 352 358 352 358 431 366.5 c 128,-1,7
 510 375 510 375 588 396.5 c 128,-1,8
 666 418 666 418 745 455 c 1,9,10
 768 547 768 547 779.5 718 c 128,-1,11
 791 889 791 889 791 1090.5 c 128,-1,12
 791 1292 791 1292 782.5 1501 c 128,-1,13
 774 1710 774 1710 758 1882 c 1,14,15
 813 1896 813 1896 889 1910.5 c 128,-1,16
 965 1925 965 1925 1052 1934 c 0,17,18
 1114 1940 1114 1940 1178 1940 c 0,19,20
 1204 1940 1204 1940 1231 1938 c 0,21,22
 1323 1935 1323 1935 1409 1917 c 1,23,24
 1421 1821 1421 1821 1428 1672 c 0,25,26
 1433 1544 1433 1544 1433 1394 c 0,27,28
 1433 1371 1433 1371 1433 1348 c 0,29,30
 1432 1171 1432 1171 1426.5 985 c 128,-1,31
 1421 799 1421 799 1413 627 c 128,-1,32
 1405 455 1405 455 1397 313.5 c 128,-1,33
 1389 172 1389 172 1380 86 c 1,34,35
 1323 49 1323 49 1217.5 16.5 c 128,-1,36
 1112 -16 1112 -16 983 -41 c 128,-1,37
 854 -66 854 -66 716 -82 c 128,-1,38
 578 -98 578 -98 456 -104 c 0,39,40
 400 -106 400 -106 350 -106 c 0,41,42
 291 -106 291 -106 240 -102 c 0,43,44
 147 -96 147 -96 109 -78 c 1,45,46
 103 -19 103 -19 96 95 c 0,0,1
EndSplineSet
Validated: 1
EndChar

StartChar: K
Encoding: 75 75 46
Width: 1912
GlyphClass: 2
Flags: W
LayerCount: 3
Fore
SplineSet
114 597 m 0,0,1
 115 780 115 780 119 970.5 c 128,-1,2
 123 1161 123 1161 128 1328 c 128,-1,3
 133 1495 133 1495 137 1628 c 128,-1,4
 141 1761 141 1761 143 1829 c 1,5,6
 200 1841 200 1841 292.5 1844 c 128,-1,7
 385 1847 385 1847 478 1847 c 128,-1,8
 571 1847 571 1847 649 1843 c 128,-1,9
 727 1839 727 1839 754 1837 c 1,10,11
 752 1774 752 1774 747.5 1698 c 128,-1,12
 743 1622 743 1622 743 1544 c 128,-1,13
 743 1466 743 1466 747.5 1387.5 c 128,-1,14
 752 1309 752 1309 762 1237 c 0,15,16
 766 1202 766 1202 794 1199 c 0,17,18
 795 1199 795 1199 796 1199 c 0,19,20
 822 1199 822 1199 856 1249 c 0,21,22
 889 1298 889 1298 941 1380 c 128,-1,23
 993 1462 993 1462 1050.5 1553.5 c 128,-1,24
 1108 1645 1108 1645 1163.5 1735 c 128,-1,25
 1219 1825 1219 1825 1257 1890 c 1,26,27
 1283 1892 1283 1892 1309 1892 c 0,28,29
 1353 1892 1353 1892 1401 1886 c 0,30,31
 1477 1876 1477 1876 1555.5 1859.5 c 128,-1,32
 1634 1843 1634 1843 1713 1824.5 c 128,-1,33
 1792 1806 1792 1806 1864 1790 c 1,34,35
 1833 1733 1833 1733 1772.5 1625.5 c 128,-1,36
 1712 1518 1712 1518 1642.5 1391 c 128,-1,37
 1573 1264 1573 1264 1503.5 1136 c 128,-1,38
 1434 1008 1434 1008 1384 909 c 1,39,40
 1431 790 1431 790 1489.5 682.5 c 128,-1,41
 1548 575 1548 575 1609.5 475 c 128,-1,42
 1671 375 1671 375 1731.5 275.5 c 128,-1,43
 1792 176 1792 176 1843 66 c 1,44,45
 1788 43 1788 43 1703 24.5 c 128,-1,46
 1618 6 1618 6 1529 -6 c 128,-1,47
 1440 -18 1440 -18 1359 -24.5 c 128,-1,48
 1278 -31 1278 -31 1231 -33 c 1,49,50
 1157 69 1157 69 1091.5 171.5 c 128,-1,51
 1026 274 1026 274 972 363.5 c 128,-1,52
 918 453 918 453 878 520.5 c 128,-1,53
 838 588 838 588 813 621 c 1,54,55
 795 633 795 633 780 633 c 0,56,57
 768 633 768 633 758 623.5 c 128,-1,58
 748 614 748 614 748 586 c 0,59,60
 748 537 748 537 750 464 c 128,-1,61
 752 391 752 391 752 311 c 128,-1,62
 752 231 752 231 750 152.5 c 128,-1,63
 748 74 748 74 743 10 c 1,64,65
 723 0 723 0 676 -9 c 128,-1,66
 629 -18 629 -18 568.5 -24.5 c 128,-1,67
 508 -31 508 -31 442 -35 c 256,68,69
 376 -39 376 -39 314 -40 c 0,70,71
 294 -40 294 -40 274 -40 c 0,72,73
 236 -40 236 -40 204 -39 c 0,74,75
 156 -37 156 -37 131 -31 c 1,76,77
 121 84 121 84 117 249 c 0,78,79
 114 381 114 381 114 525 c 0,80,81
 114 560 114 560 114 597 c 0,0,1
EndSplineSet
Validated: 1
EndChar

StartChar: L
Encoding: 76 76 47
Width: 1548
GlyphClass: 2
Flags: W
LayerCount: 3
Fore
SplineSet
116 1577 m 0,0,1
 117 1733 117 1733 123 1847 c 1,2,3
 141 1857 141 1857 189.5 1864.5 c 128,-1,4
 238 1872 238 1872 302.5 1877 c 128,-1,5
 367 1882 367 1882 440.5 1885 c 128,-1,6
 514 1888 514 1888 582.5 1888 c 128,-1,7
 651 1888 651 1888 706.5 1886 c 128,-1,8
 762 1884 762 1884 791 1880 c 1,9,10
 787 1698 787 1698 784.5 1494 c 128,-1,11
 782 1290 782 1290 782 1101.5 c 128,-1,12
 782 913 782 913 782 759.5 c 128,-1,13
 782 606 782 606 782 528 c 1,14,15
 862 508 862 508 949 504 c 0,16,17
 993 502 993 502 1036.5 502 c 128,-1,18
 1080 502 1080 502 1124 504 c 0,19,20
 1212 508 1212 508 1298 518.5 c 128,-1,21
 1384 529 1384 529 1462 539 c 1,22,23
 1474 414 1474 414 1476 295 c 0,24,25
 1476 288 1476 288 1476 280 c 0,26,27
 1476 168 1476 168 1454 51 c 1,28,29
 1403 45 1403 45 1314 36 c 128,-1,30
 1225 27 1225 27 1114.5 18.5 c 128,-1,31
 1004 10 1004 10 878 3 c 128,-1,32
 752 -4 752 -4 624 -8 c 128,-1,33
 496 -12 496 -12 375 -12 c 128,-1,34
 254 -12 254 -12 152 -4 c 1,35,36
 150 96 150 96 144.5 239.5 c 128,-1,37
 139 383 139 383 134 550 c 128,-1,38
 129 717 129 717 124 897 c 128,-1,39
 119 1077 119 1077 117 1249 c 0,40,41
 116 1364 116 1364 116 1471 c 0,42,43
 116 1525 116 1525 116 1577 c 0,0,1
EndSplineSet
Validated: 1
EndChar

StartChar: M
Encoding: 77 77 48
Width: 2529
GlyphClass: 2
Flags: W
LayerCount: 3
Fore
SplineSet
83 252 m 0,0,1
 86 424 86 424 92 613.5 c 128,-1,2
 98 803 98 803 107.5 994.5 c 128,-1,3
 117 1186 117 1186 127 1353 c 128,-1,4
 137 1520 137 1520 146.5 1648 c 128,-1,5
 156 1776 156 1776 162 1835 c 1,6,7
 219 1851 219 1851 297 1867.5 c 128,-1,8
 375 1884 375 1884 459 1894.5 c 128,-1,9
 543 1905 543 1905 625 1914 c 128,-1,10
 707 1923 707 1923 775.5 1926 c 128,-1,11
 844 1929 844 1929 892 1929 c 128,-1,12
 940 1929 940 1929 952 1925 c 1,13,14
 1003 1767 1003 1767 1048.5 1606.5 c 128,-1,15
 1094 1446 1094 1446 1159 1296 c 0,16,17
 1171 1269 1171 1269 1200 1255 c 128,-1,18
 1229 1241 1229 1241 1255 1262 c 0,19,20
 1267 1272 1267 1272 1291 1318 c 128,-1,21
 1315 1364 1315 1364 1343.5 1431.5 c 128,-1,22
 1372 1499 1372 1499 1404 1579 c 128,-1,23
 1436 1659 1436 1659 1464.5 1731.5 c 128,-1,24
 1493 1804 1493 1804 1514.5 1862.5 c 128,-1,25
 1536 1921 1536 1921 1544 1946 c 1,26,27
 1605 1960 1605 1960 1710 1968 c 0,28,29
 1814 1976 1814 1976 1930 1977 c 0,30,31
 1946 1977 1946 1977 1963 1977 c 0,32,33
 2060 1977 2060 1977 2156 1972 c 0,34,35
 2266 1966 2266 1966 2341 1954 c 1,36,37
 2361 1467 2361 1467 2375.5 985.5 c 128,-1,38
 2390 504 2390 504 2419 6 c 1,39,40
 2374 -21 2374 -21 2297 -32 c 128,-1,41
 2220 -43 2220 -43 2131 -46 c 0,42,43
 2098 -47 2098 -47 2064 -47 c 0,44,45
 2008 -47 2008 -47 1950 -44 c 0,46,47
 1858 -39 1858 -39 1780 -31 c 1,48,49
 1778 4 1778 4 1773.5 74.5 c 128,-1,50
 1769 145 1769 145 1764 235.5 c 128,-1,51
 1759 326 1759 326 1754 421 c 128,-1,52
 1749 516 1749 516 1744 598 c 128,-1,53
 1739 680 1739 680 1735 736.5 c 128,-1,54
 1731 793 1731 793 1729 803 c 0,55,56
 1715 851 1715 851 1691 851 c 0,57,58
 1688 851 1688 851 1686 850 c 0,59,60
 1659 844 1659 844 1642 809 c 0,61,62
 1617 754 1617 754 1576.5 659.5 c 128,-1,63
 1536 565 1536 565 1489 454.5 c 128,-1,64
 1442 344 1442 344 1390.5 227.5 c 128,-1,65
 1339 111 1339 111 1292 6 c 1,66,67
 1236 6 1236 6 1178 3 c 0,68,69
 1165 2 1165 2 1151 2 c 0,70,71
 1107 2 1107 2 1063 10 c 1,72,73
 1008 108 1008 108 960.5 213.5 c 128,-1,74
 913 319 913 319 872 420.5 c 128,-1,75
 831 522 831 522 798.5 611 c 128,-1,76
 766 700 766 700 739 768 c 0,77,78
 729 797 729 797 700.5 806 c 128,-1,79
 672 815 672 815 655 780 c 0,80,81
 645 760 645 760 638 699.5 c 128,-1,82
 631 639 631 639 626 558 c 128,-1,83
 621 477 621 477 617.5 385 c 128,-1,84
 614 293 614 293 612 210 c 128,-1,85
 610 127 610 127 609 60.5 c 128,-1,86
 608 -6 608 -6 606 -37 c 1,87,88
 477 -64 477 -64 352 -65 c 0,89,90
 345 -65 345 -65 338 -65 c 0,91,92
 219 -65 219 -65 84 -49 c 1,93,94
 82 25 82 25 82 112 c 0,95,96
 82 178 82 178 83 252 c 0,0,1
EndSplineSet
Validated: 1
EndChar

StartChar: N
Encoding: 78 78 49
Width: 2117
GlyphClass: 2
Flags: W
LayerCount: 3
Fore
SplineSet
119 1196 m 128,-1,1
 119 1372 119 1372 122 1533 c 128,-1,2
 125 1694 125 1694 129 1815 c 1,3,4
 141 1827 141 1827 199.5 1839 c 128,-1,5
 258 1851 258 1851 343 1863.5 c 128,-1,6
 428 1876 428 1876 528.5 1886 c 128,-1,7
 629 1896 629 1896 722 1900.5 c 128,-1,8
 815 1905 815 1905 892 1907 c 0,9,10
 907 1907 907 1907 921 1907 c 0,11,12
 976 1907 976 1907 1006 1901 c 1,13,14
 1072 1692 1072 1692 1152.5 1491 c 128,-1,15
 1233 1290 1233 1290 1313 1092 c 0,16,17
 1321 1076 1321 1076 1336.5 1064.5 c 128,-1,18
 1352 1053 1352 1053 1370.5 1055 c 128,-1,19
 1389 1057 1389 1057 1405 1074.5 c 128,-1,20
 1421 1092 1421 1092 1430 1128 c 0,21,22
 1432 1136 1432 1136 1434 1178.5 c 128,-1,23
 1436 1221 1436 1221 1437 1284.5 c 128,-1,24
 1438 1348 1438 1348 1441 1425.5 c 128,-1,25
 1444 1503 1444 1503 1445 1579 c 128,-1,26
 1446 1655 1446 1655 1448 1721.5 c 128,-1,27
 1450 1788 1450 1788 1452 1831 c 1,28,29
 1644 1881 1644 1881 1836 1881 c 0,30,31
 1907 1881 1907 1881 1978 1874 c 1,32,33
 1981 1573 1981 1573 1981 1271 c 0,34,35
 1981 1120 1981 1120 1980 968 c 0,36,37
 1978 514 1978 514 1966 66 c 1,38,39
 1900 56 1900 56 1809 44.5 c 128,-1,40
 1718 33 1718 33 1612.5 21.5 c 128,-1,41
 1507 10 1507 10 1392.5 2 c 128,-1,42
 1278 -6 1278 -6 1165 -8 c 1,43,44
 1054 176 1054 176 963 375.5 c 128,-1,45
 872 575 872 575 795 784 c 0,46,47
 787 807 787 807 766 818 c 128,-1,48
 745 829 745 829 725 825 c 128,-1,49
 705 821 705 821 688.5 802.5 c 128,-1,50
 672 784 672 784 668 748 c 0,51,52
 648 558 648 558 649 314 c 0,53,54
 649 172 649 172 655 12 c 1,55,56
 532 -21 532 -21 408 -27 c 0,57,58
 386 -28 386 -28 363 -28 c 0,59,60
 260 -28 260 -28 150 -6 c 1,61,62
 142 72 142 72 135.5 204 c 128,-1,63
 129 336 129 336 125 497.5 c 128,-1,64
 121 659 121 659 120 839.5 c 128,-1,0
 119 1020 119 1020 119 1196 c 128,-1,1
EndSplineSet
Validated: 33
EndChar

StartChar: O
Encoding: 79 79 50
Width: 2109
GlyphClass: 2
Flags: W
LayerCount: 3
Fore
SplineSet
96 669.5 m 128,-1,1
 96 821 96 821 97 972.5 c 128,-1,2
 98 1124 98 1124 100 1267.5 c 128,-1,3
 102 1411 102 1411 109 1518 c 1,4,5
 138 1551 138 1551 182.5 1608 c 128,-1,6
 227 1665 227 1665 276.5 1724.5 c 128,-1,7
 326 1784 326 1784 372 1834 c 128,-1,8
 418 1884 418 1884 449 1903 c 1,9,10
 523 1909 523 1909 617 1918 c 128,-1,11
 711 1927 711 1927 816.5 1935.5 c 128,-1,12
 922 1944 922 1944 1034.5 1949 c 128,-1,13
 1147 1954 1147 1954 1255.5 1954 c 128,-1,14
 1364 1954 1364 1954 1465.5 1948 c 128,-1,15
 1567 1942 1567 1942 1649 1923 c 1,16,17
 1694 1884 1694 1884 1739 1829 c 128,-1,18
 1784 1774 1784 1774 1826 1713.5 c 128,-1,19
 1868 1653 1868 1653 1907 1589.5 c 128,-1,20
 1946 1526 1946 1526 1978 1468 c 1,21,22
 1982 1398 1982 1398 1987.5 1298 c 128,-1,23
 1993 1198 1993 1198 1996 1089.5 c 128,-1,24
 1999 981 1999 981 2001 868.5 c 128,-1,25
 2003 756 2003 756 2003 655.5 c 128,-1,26
 2003 555 2003 555 2000 475 c 128,-1,27
 1997 395 1997 395 1991 350 c 1,28,29
 1919 250 1919 250 1854.5 146.5 c 128,-1,30
 1790 43 1790 43 1712 -51 c 1,31,32
 1636 -67 1636 -67 1531.5 -75.5 c 128,-1,33
 1427 -84 1427 -84 1307.5 -90 c 128,-1,34
 1188 -96 1188 -96 1060 -96 c 128,-1,35
 932 -96 932 -96 807 -92 c 128,-1,36
 682 -88 682 -88 566.5 -81 c 128,-1,37
 451 -74 451 -74 356 -61 c 1,38,39
 325 -26 325 -26 287.5 31 c 128,-1,40
 250 88 250 88 213 153.5 c 128,-1,41
 176 219 176 219 145.5 282.5 c 128,-1,42
 115 346 115 346 98 395 c 1,43,0
 96 518 96 518 96 669.5 c 128,-1,1
802 685 m 0,44,45
 803 590 803 590 805 512 c 128,-1,46
 807 434 807 434 807 397 c 1,47,48
 856 372 856 372 922 365 c 0,49,50
 952 362 952 362 983 362 c 0,51,52
 1020 362 1020 362 1056 366 c 0,53,54
 1124 374 1124 374 1183.5 398 c 128,-1,55
 1243 422 1243 422 1280 457 c 1,56,57
 1282 557 1282 557 1286 668.5 c 128,-1,58
 1290 780 1290 780 1290 902 c 128,-1,59
 1290 1024 1290 1024 1285 1152 c 128,-1,60
 1280 1280 1280 1280 1266 1407 c 1,61,62
 1203 1405 1203 1405 1147.5 1404 c 128,-1,63
 1092 1403 1092 1403 1039.5 1398 c 128,-1,64
 987 1393 987 1393 937 1380.5 c 128,-1,65
 887 1368 887 1368 834 1341 c 1,66,67
 822 1316 822 1316 815.5 1247 c 128,-1,68
 809 1178 809 1178 806 1086 c 0,69,70
 803 992 803 992 802 886 c 0,71,72
 802 833 802 833 802 783 c 128,-1,73
 802 733 802 733 802 685 c 0,44,45
EndSplineSet
Validated: 1
EndChar

StartChar: P
Encoding: 80 80 51
Width: 2056
GlyphClass: 2
Flags: W
LayerCount: 3
Fore
SplineSet
82 1495 m 1,0,1
 84 1556 84 1556 93 1617.5 c 128,-1,2
 102 1679 102 1679 112.5 1733.5 c 128,-1,3
 123 1788 123 1788 132 1832 c 128,-1,4
 141 1876 141 1876 143 1903 c 1,5,6
 196 1917 196 1917 308 1928 c 128,-1,7
 420 1939 420 1939 562 1944 c 0,8,9
 706 1950 706 1950 864 1952 c 0,10,11
 943 1953 943 1953 1019 1953 c 0,12,13
 1096 1953 1096 1953 1168 1952 c 0,14,15
 1314 1950 1314 1950 1431 1946 c 128,-1,16
 1548 1942 1548 1942 1612 1935 c 1,17,18
 1696 1847 1696 1847 1753 1758 c 128,-1,19
 1810 1669 1810 1669 1851 1575 c 128,-1,20
 1892 1481 1892 1481 1920.5 1375.5 c 128,-1,21
 1949 1270 1949 1270 1976 1147 c 1,22,23
 1972 1106 1972 1106 1936.5 1036.5 c 128,-1,24
 1901 967 1901 967 1848.5 889 c 128,-1,25
 1796 811 1796 811 1735.5 737.5 c 128,-1,26
 1675 664 1675 664 1622 618 c 1,27,28
 1524 587 1524 587 1414.5 563 c 128,-1,29
 1305 539 1305 539 1196 520.5 c 128,-1,30
 1087 502 1087 502 987 489.5 c 128,-1,31
 887 477 887 477 807 473 c 1,32,33
 807 451 807 451 807 429 c 0,34,35
 807 329 807 329 814 223 c 0,36,37
 819 155 819 155 819 89 c 0,38,39
 819 30 819 30 815 -27 c 1,40,41
 758 -33 758 -33 683 -39 c 128,-1,42
 608 -45 608 -45 528.5 -49 c 128,-1,43
 449 -53 449 -53 370 -53 c 128,-1,44
 291 -53 291 -53 223 -49 c 1,45,46
 217 -8 217 -8 212 81 c 128,-1,47
 207 170 207 170 206 293 c 128,-1,48
 205 416 205 416 205 564.5 c 128,-1,49
 205 713 205 713 207 869.5 c 128,-1,50
 209 1026 209 1026 213 1180.5 c 128,-1,51
 217 1335 217 1335 221 1470 c 1,52,53
 198 1470 198 1470 157.5 1476.5 c 128,-1,54
 117 1483 117 1483 82 1495 c 1,0,1
843 1115 m 0,55,56
 843 1109 843 1109 843 1102 c 0,57,58
 843 1038 843 1038 852 983 c 1,59,60
 862 982 862 982 874 982 c 0,61,62
 903 982 903 982 944 986 c 0,63,64
 1001 991 1001 991 1063.5 1007.5 c 128,-1,65
 1126 1024 1126 1024 1184.5 1049.5 c 128,-1,66
 1243 1075 1243 1075 1280 1110 c 1,67,68
 1276 1214 1276 1214 1253.5 1305.5 c 128,-1,69
 1231 1397 1231 1397 1210 1438 c 1,70,71
 1190 1461 1190 1461 1147 1473 c 128,-1,72
 1104 1485 1104 1485 1055 1488 c 0,73,74
 1037 1489 1037 1489 1018 1489 c 0,75,76
 988 1489 988 1489 958 1486 c 0,77,78
 910 1481 910 1481 879 1473 c 1,79,80
 873 1436 873 1436 864.5 1377.5 c 128,-1,81
 856 1319 856 1319 850 1252.5 c 128,-1,82
 844 1186 844 1186 843 1115 c 0,55,56
EndSplineSet
Validated: 1
EndChar

StartChar: Q
Encoding: 81 81 52
Width: 2101
GlyphClass: 2
Flags: W
LayerCount: 3
Fore
SplineSet
105 1006 m 0,0,1
 105 1027 105 1027 105 1049 c 0,2,3
 105 1168 105 1168 110 1281 c 0,4,5
 115 1415 115 1415 123 1528 c 1,6,7
 195 1606 195 1606 268.5 1702 c 128,-1,8
 342 1798 342 1798 420 1882 c 1,9,10
 508 1898 508 1898 622.5 1909.5 c 128,-1,11
 737 1921 737 1921 859 1928 c 128,-1,12
 981 1935 981 1935 1102 1938.5 c 128,-1,13
 1223 1942 1223 1942 1325 1942 c 128,-1,14
 1427 1942 1427 1942 1502 1943 c 128,-1,15
 1577 1944 1577 1944 1608 1944 c 1,16,17
 1653 1907 1653 1907 1697 1853.5 c 128,-1,18
 1741 1800 1741 1800 1783 1743 c 128,-1,19
 1825 1686 1825 1686 1864 1626.5 c 128,-1,20
 1903 1567 1903 1567 1935 1513 c 1,21,22
 1945 1441 1945 1441 1953.5 1345 c 128,-1,23
 1962 1249 1962 1249 1967 1144.5 c 128,-1,24
 1972 1040 1972 1040 1975 932.5 c 128,-1,25
 1978 825 1978 825 1978 730 c 128,-1,26
 1978 635 1978 635 1976 559 c 128,-1,27
 1974 483 1974 483 1970 438 c 1,28,29
 1919 368 1919 368 1874 294.5 c 128,-1,30
 1829 221 1829 221 1782 150 c 1,31,32
 1823 111 1823 111 1856.5 78 c 128,-1,33
 1890 45 1890 45 1913 20 c 1,34,35
 1884 -23 1884 -23 1837 -58.5 c 128,-1,36
 1790 -94 1790 -94 1731.5 -120.5 c 128,-1,37
 1673 -147 1673 -147 1605.5 -168.5 c 128,-1,38
 1538 -190 1538 -190 1466 -205 c 1,39,40
 1425 -156 1425 -156 1381 -101.5 c 128,-1,41
 1337 -47 1337 -47 1294 12 c 1,42,43
 1159 4 1159 4 1027 3 c 0,44,45
 961 2 961 2 898.5 2 c 128,-1,46
 836 2 836 2 776 3 c 0,47,48
 657 4 657 4 558 8 c 128,-1,49
 459 12 459 12 391 14 c 1,50,51
 358 49 358 49 320.5 102.5 c 128,-1,52
 283 156 283 156 248 217.5 c 128,-1,53
 213 279 213 279 183.5 339 c 128,-1,54
 154 399 154 399 135 449 c 1,55,56
 121 580 121 580 113.5 722 c 128,-1,57
 106 864 106 864 105 1006 c 0,0,1
793 945 m 128,-1,59
 793 827 793 827 797 709.5 c 128,-1,60
 801 592 801 592 807 481 c 1,61,62
 850 473 850 473 903 466 c 128,-1,63
 956 459 956 459 1012 457 c 1,64,65
 971 531 971 531 945.5 594 c 128,-1,66
 920 657 920 657 909 705 c 1,67,68
 950 750 950 750 1023 769 c 128,-1,69
 1096 788 1096 788 1163 799 c 1,70,71
 1202 733 1202 733 1270 657 c 1,72,73
 1272 751 1272 751 1274 852 c 0,74,75
 1275 903 1275 903 1275 954 c 128,-1,76
 1275 1005 1275 1005 1274 1056 c 0,77,78
 1272 1157 1272 1157 1266 1250 c 128,-1,79
 1260 1343 1260 1343 1245 1419 c 1,80,81
 1202 1419 1202 1419 1149 1425.5 c 128,-1,82
 1096 1432 1096 1432 1040 1435 c 0,83,84
 1020 1436 1020 1436 1000 1436 c 2,85,-1
 926 1432 l 2,86,87
 870 1427 870 1427 823 1405 c 1,88,89
 807 1296 807 1296 800 1179.5 c 128,-1,58
 793 1063 793 1063 793 945 c 128,-1,59
EndSplineSet
Validated: 1
EndChar

StartChar: R
Encoding: 82 82 53
Width: 2011
GlyphClass: 2
Flags: W
LayerCount: 3
Fore
SplineSet
70 1456 m 1,0,1
 70 1505 70 1505 73 1559.5 c 128,-1,2
 76 1614 76 1614 82 1669 c 128,-1,3
 88 1724 88 1724 96 1775.5 c 128,-1,4
 104 1827 104 1827 115 1868 c 1,5,6
 170 1886 170 1886 278.5 1897.5 c 128,-1,7
 387 1909 387 1909 524.5 1915 c 128,-1,8
 662 1921 662 1921 816.5 1921 c 128,-1,9
 971 1921 971 1921 1116.5 1917 c 128,-1,10
 1262 1913 1262 1913 1387.5 1904.5 c 128,-1,11
 1513 1896 1513 1896 1593 1880 c 1,12,13
 1652 1827 1652 1827 1713 1739 c 128,-1,14
 1774 1651 1774 1651 1822 1538 c 128,-1,15
 1870 1425 1870 1425 1896 1298 c 0,16,17
 1914 1211 1914 1211 1915 1120 c 0,18,19
 1915 1079 1915 1079 1911 1038 c 1,20,21
 1866 981 1866 981 1787 888 c 128,-1,22
 1708 795 1708 795 1620 709 c 1,23,24
 1638 680 1638 680 1665 626.5 c 128,-1,25
 1692 573 1692 573 1722.5 512 c 128,-1,26
 1753 451 1753 451 1785 384 c 128,-1,27
 1817 317 1817 317 1844.5 260 c 128,-1,28
 1872 203 1872 203 1892.5 158.5 c 128,-1,29
 1913 114 1913 114 1921 94 c 1,30,31
 1886 71 1886 71 1817.5 50 c 128,-1,32
 1749 29 1749 29 1666 10.5 c 128,-1,33
 1583 -8 1583 -8 1496 -22.5 c 128,-1,34
 1409 -37 1409 -37 1341 -39 c 1,35,36
 1294 18 1294 18 1256.5 69.5 c 128,-1,37
 1219 121 1219 121 1183 173 c 128,-1,38
 1147 225 1147 225 1111 277.5 c 128,-1,39
 1075 330 1075 330 1032 391 c 0,40,41
 1016 414 1016 414 997.5 439.5 c 128,-1,42
 979 465 979 465 959.5 484.5 c 128,-1,43
 940 504 940 504 917.5 513 c 128,-1,44
 895 522 895 522 872 512 c 0,45,46
 843 500 843 500 837 463 c 128,-1,47
 831 426 831 426 831 391 c 0,48,49
 832 327 832 327 832 263 c 0,50,51
 832 232 832 232 832 200 c 0,52,53
 831 104 831 104 827 6 c 1,54,55
 788 -6 788 -6 725 -17.5 c 128,-1,56
 662 -29 662 -29 584 -35 c 128,-1,57
 506 -41 506 -41 417 -41 c 128,-1,58
 328 -41 328 -41 238 -31 c 1,59,60
 224 145 224 145 216.5 333.5 c 128,-1,61
 209 522 209 522 206 710 c 0,62,63
 204 822 204 822 204 934 c 0,64,65
 204 1008 204 1008 205 1084 c 0,66,67
 207 1272 207 1272 209 1446 c 1,68,69
 184 1448 184 1448 144 1448 c 128,-1,70
 104 1448 104 1448 70 1456 c 1,0,1
825 1183.5 m 128,-1,72
 825 1118 825 1118 828 1061 c 128,-1,73
 831 1004 831 1004 840 967 c 1,74,75
 881 967 881 967 938 972 c 128,-1,76
 995 977 995 977 1053.5 989 c 128,-1,77
 1112 1001 1112 1001 1164 1022.5 c 128,-1,78
 1216 1044 1216 1044 1249 1081 c 1,79,80
 1251 1099 1251 1099 1251 1119 c 0,81,82
 1251 1144 1251 1144 1248 1172 c 0,83,84
 1243 1222 1243 1222 1236 1267.5 c 128,-1,85
 1229 1313 1229 1313 1220.5 1348.5 c 128,-1,86
 1212 1384 1212 1384 1210 1397 c 1,87,88
 1190 1420 1190 1420 1137.5 1435 c 128,-1,89
 1085 1450 1085 1450 1027 1456 c 0,90,91
 992 1460 992 1460 959 1460 c 0,92,93
 936 1460 936 1460 914 1458 c 0,94,95
 860 1454 860 1454 834 1434 c 1,96,97
 830 1381 830 1381 827.5 1315 c 128,-1,71
 825 1249 825 1249 825 1183.5 c 128,-1,72
EndSplineSet
Validated: 1
EndChar

StartChar: S
Encoding: 83 83 54
Width: 1699
GlyphClass: 2
Flags: W
LayerCount: 3
Fore
SplineSet
82 827 m 1,0,1
 80 874 80 874 80 921 c 0,2,3
 80 1108 80 1108 112 1296 c 0,4,5
 152 1530 152 1530 244 1739 c 1,6,7
 391 1796 391 1796 551 1835 c 128,-1,8
 711 1874 711 1874 874.5 1898.5 c 128,-1,9
 1038 1923 1038 1923 1202 1931 c 0,10,11
 1296 1936 1296 1936 1387 1936 c 0,12,13
 1455 1936 1455 1936 1522 1933 c 1,14,15
 1553 1835 1553 1835 1559 1716 c 0,16,17
 1564 1627 1564 1627 1564 1546 c 0,18,19
 1564 1519 1564 1519 1563 1493 c 1,20,21
 1389 1466 1389 1466 1213.5 1451 c 128,-1,22
 1038 1436 1038 1436 864 1401 c 1,23,24
 829 1342 829 1342 819 1273 c 128,-1,25
 809 1204 809 1204 807 1133 c 1,26,27
 995 1096 995 1096 1182.5 1065 c 128,-1,28
 1370 1034 1370 1034 1561 999 c 1,29,30
 1598 910 1598 910 1609 806 c 0,31,32
 1615 749 1615 749 1615 691 c 0,33,34
 1615 644 1615 644 1611 597 c 0,35,36
 1602 492 1602 492 1573 392.5 c 128,-1,37
 1544 293 1544 293 1501 211 c 1,38,39
 1354 135 1354 135 1196 81 c 128,-1,40
 1038 27 1038 27 875.5 -11 c 128,-1,41
 713 -49 713 -49 548 -74.5 c 128,-1,42
 383 -100 383 -100 225 -121 c 1,43,44
 207 -107 207 -107 191.5 -42 c 128,-1,45
 176 23 176 23 167 98.5 c 128,-1,46
 158 174 158 174 152 244 c 0,47,48
 148 289 148 289 149 317 c 0,49,50
 149 333 149 333 150 344 c 1,51,52
 238 348 238 348 341 361.5 c 128,-1,53
 444 375 444 375 542.5 393.5 c 128,-1,54
 641 412 641 412 723 434.5 c 128,-1,55
 805 457 805 457 848 479 c 1,56,57
 858 510 858 510 862 558 c 0,58,59
 864 582 864 582 864 605 c 128,-1,60
 864 628 864 628 862 649 c 1,61,62
 837 667 837 667 780 680.5 c 128,-1,63
 723 694 723 694 649 705.5 c 128,-1,64
 575 717 575 717 491.5 728 c 128,-1,65
 408 739 408 739 330 752.5 c 128,-1,66
 252 766 252 766 186.5 783.5 c 128,-1,67
 121 801 121 801 82 827 c 1,0,1
EndSplineSet
Validated: 33
EndChar

StartChar: T
Encoding: 84 84 55
Width: 1828
GlyphClass: 2
Flags: W
LayerCount: 3
Fore
SplineSet
59 1321 m 1,0,1
 57 1364 57 1364 57 1409 c 0,2,3
 58 1488 58 1488 64 1571 c 0,4,5
 74 1702 74 1702 104 1825 c 1,6,7
 131 1837 131 1837 210 1848.5 c 128,-1,8
 289 1860 289 1860 399.5 1868 c 128,-1,9
 510 1876 510 1876 645 1882 c 128,-1,10
 780 1888 780 1888 920.5 1892 c 128,-1,11
 1061 1896 1061 1896 1197 1898 c 0,12,13
 1282 1900 1282 1900 1359 1900 c 0,14,15
 1405 1900 1405 1900 1448 1900 c 0,16,17
 1563 1898 1563 1898 1644.5 1894 c 128,-1,18
 1726 1890 1726 1890 1759 1884 c 1,19,20
 1763 1837 1763 1837 1763 1775.5 c 128,-1,21
 1763 1714 1763 1714 1759 1652.5 c 128,-1,22
 1755 1591 1755 1591 1748 1536 c 128,-1,23
 1741 1481 1741 1481 1735 1444 c 1,24,25
 1624 1430 1624 1430 1517.5 1420.5 c 128,-1,26
 1411 1411 1411 1411 1300 1407 c 1,27,28
 1290 1356 1290 1356 1280 1258.5 c 128,-1,29
 1270 1161 1270 1161 1260.5 1037 c 128,-1,30
 1251 913 1251 913 1244 773 c 128,-1,31
 1237 633 1237 633 1232 496.5 c 128,-1,32
 1227 360 1227 360 1226 238 c 0,33,34
 1225 177 1225 177 1224.5 123 c 128,-1,35
 1224 69 1224 69 1226 23 c 1,36,37
 1070 -4 1070 -4 914 -28 c 0,38,39
 811 -44 811 -44 708 -43 c 0,40,41
 656 -43 656 -43 604 -39 c 1,42,43
 586 170 586 170 577.5 342 c 128,-1,44
 569 514 569 514 567 674 c 0,45,46
 566 754 566 754 566 834 c 256,47,48
 566 914 566 914 567 996 c 0,49,50
 569 1158 569 1158 571 1346 c 1,51,52
 525 1349 525 1349 474 1349 c 0,53,54
 462 1349 462 1349 448 1349 c 0,55,56
 382 1348 382 1348 314 1344.5 c 128,-1,57
 246 1341 246 1341 180.5 1333 c 128,-1,58
 115 1325 115 1325 59 1321 c 1,0,1
EndSplineSet
Validated: 33
EndChar

StartChar: U
Encoding: 85 85 56
Width: 1994
GlyphClass: 2
Flags: W
LayerCount: 3
Fore
SplineSet
122 1130 m 0,0,1
 122 1201 122 1201 122 1268.5 c 128,-1,2
 122 1336 122 1336 122 1399 c 0,3,4
 123 1526 123 1526 127 1633.5 c 128,-1,5
 131 1741 131 1741 139 1804 c 1,6,7
 302 1824 302 1824 456 1828 c 0,8,9
 483 1829 483 1829 511 1829 c 0,10,11
 640 1829 640 1829 784 1812 c 1,12,13
 770 1616 770 1616 766 1444 c 0,14,15
 763 1307 763 1307 763 1178 c 0,16,17
 763 1146 763 1146 763 1115 c 0,18,19
 764 958 764 958 771 815 c 128,-1,20
 778 672 778 672 786 526 c 1,21,22
 826 506 826 506 886 498 c 0,23,24
 922 493 922 493 959 492 c 0,25,26
 982 492 982 492 1006 494 c 0,27,28
 1066 500 1066 500 1123 519.5 c 128,-1,29
 1180 539 1180 539 1214 575 c 1,30,31
 1214 722 1214 722 1212 883 c 128,-1,32
 1210 1044 1210 1044 1209 1207 c 128,-1,33
 1208 1370 1208 1370 1208 1525.5 c 128,-1,34
 1208 1681 1208 1681 1210 1817 c 1,35,36
 1372 1854 1372 1854 1533 1854 c 0,37,38
 1535 1854 1535 1854 1537 1854 c 0,39,40
 1570 1854 1570 1854 1602 1853 c 0,41,42
 1734 1853 1734 1853 1870 1855 c 1,43,44
 1868 1697 1868 1697 1864 1510 c 128,-1,45
 1860 1323 1860 1323 1857.5 1132.5 c 128,-1,46
 1855 942 1855 942 1855 764 c 128,-1,47
 1855 586 1855 586 1860 444 c 1,48,49
 1846 399 1846 399 1817 344 c 128,-1,50
 1788 289 1788 289 1752 230.5 c 128,-1,51
 1716 172 1716 172 1678 116.5 c 128,-1,52
 1640 61 1640 61 1606 18 c 1,53,54
 1489 14 1489 14 1333.5 6 c 128,-1,55
 1178 -2 1178 -2 1011 -8 c 128,-1,56
 844 -14 844 -14 679 -14 c 128,-1,57
 514 -14 514 -14 377 0 c 1,58,59
 348 31 348 31 312 83 c 128,-1,60
 276 135 276 135 240.5 194.5 c 128,-1,61
 205 254 205 254 176 312.5 c 128,-1,62
 147 371 147 371 133 414 c 1,63,64
 133 490 133 490 131 605.5 c 128,-1,65
 129 721 129 721 126 854.5 c 128,-1,66
 123 988 123 988 122 1130 c 0,0,1
EndSplineSet
Validated: 1
EndChar

StartChar: V
Encoding: 86 86 57
Width: 1880
GlyphClass: 2
Flags: W
LayerCount: 3
Fore
SplineSet
70 1829 m 1,0,1
 146 1839 146 1839 240 1852.5 c 128,-1,2
 334 1866 334 1866 422 1876 c 128,-1,3
 510 1886 510 1886 576 1891 c 0,4,5
 598 1893 598 1893 614 1893 c 0,6,7
 647 1893 647 1893 657 1886 c 1,8,9
 665 1827 665 1827 680.5 1748 c 128,-1,10
 696 1669 696 1669 713.5 1583 c 128,-1,11
 731 1497 731 1497 749.5 1410 c 128,-1,12
 768 1323 768 1323 785.5 1245 c 128,-1,13
 803 1167 803 1167 817 1109 c 128,-1,14
 831 1051 831 1051 838 1018 c 0,15,16
 840 1008 840 1008 849 982 c 128,-1,17
 858 956 858 956 869.5 929.5 c 128,-1,18
 881 903 881 903 894 881.5 c 128,-1,19
 907 860 907 860 918 860 c 0,20,21
 934 860 934 860 947.5 874.5 c 128,-1,22
 961 889 961 889 971 907.5 c 128,-1,23
 981 926 981 926 988 945.5 c 128,-1,24
 995 965 995 965 999 977 c 0,25,26
 1060 1196 1060 1196 1136 1431.5 c 128,-1,27
 1212 1667 1212 1667 1280 1884 c 1,28,29
 1355 1893 1355 1893 1425 1893 c 0,30,31
 1448 1893 1448 1893 1470 1892 c 0,32,33
 1560 1888 1560 1888 1632 1878 c 128,-1,34
 1704 1868 1704 1868 1755.5 1854.5 c 128,-1,35
 1807 1841 1807 1841 1827 1829 c 1,36,37
 1755 1628 1755 1628 1674 1402 c 128,-1,38
 1593 1176 1593 1176 1510 940.5 c 128,-1,39
 1427 705 1427 705 1344.5 467 c 128,-1,40
 1262 229 1262 229 1186 6 c 1,41,42
 1112 -4 1112 -4 1026 -11 c 128,-1,43
 940 -18 940 -18 853 -22.5 c 128,-1,44
 766 -27 766 -27 680 -28 c 0,45,46
 663 -28 663 -28 646 -28 c 0,47,48
 579 -28 579 -28 520 -25 c 1,49,50
 479 96 479 96 433 248.5 c 128,-1,51
 387 401 387 401 342 569 c 128,-1,52
 297 737 297 737 255 912 c 128,-1,53
 213 1087 213 1087 177 1253 c 128,-1,54
 141 1419 141 1419 113.5 1567.5 c 128,-1,55
 86 1716 86 1716 70 1829 c 1,0,1
EndSplineSet
Validated: 1
EndChar

StartChar: W
Encoding: 87 87 58
Width: 2678
GlyphClass: 2
Flags: W
LayerCount: 3
Fore
SplineSet
80 1855 m 1,0,1
 228 1882 228 1882 380 1894 c 0,2,3
 421 1897 421 1897 463 1897 c 0,4,5
 577 1897 577 1897 698 1874 c 1,6,7
 735 1675 735 1675 768 1476.5 c 128,-1,8
 801 1278 801 1278 831 1075 c 0,9,10
 835 1055 835 1055 860 1049.5 c 128,-1,11
 885 1044 885 1044 891 1059 c 0,12,13
 922 1141 922 1141 954.5 1251.5 c 128,-1,14
 987 1362 987 1362 1020 1476.5 c 128,-1,15
 1053 1591 1053 1591 1082.5 1701.5 c 128,-1,16
 1112 1812 1112 1812 1137 1894 c 1,17,18
 1278 1906 1278 1906 1424 1914 c 0,19,20
 1456 1916 1456 1916 1488 1915 c 0,21,22
 1601 1915 1601 1915 1710 1894 c 1,23,24
 1773 1695 1773 1695 1834.5 1501 c 128,-1,25
 1896 1307 1896 1307 1954 1104 c 0,26,27
 1958 1094 1958 1094 1967 1082.5 c 128,-1,28
 1976 1071 1976 1071 1987.5 1072 c 128,-1,29
 1999 1073 1999 1073 2010 1091.5 c 128,-1,30
 2021 1110 2021 1110 2028 1155 c 0,31,32
 2077 1528 2077 1528 2118 1911 c 1,33,34
 2211 1931 2211 1931 2313 1931 c 0,35,36
 2339 1932 2339 1932 2366 1930 c 0,37,38
 2497 1924 2497 1924 2636 1911 c 1,39,40
 2630 1768 2630 1768 2612.5 1595.5 c 128,-1,41
 2595 1423 2595 1423 2570.5 1242 c 128,-1,42
 2546 1061 2546 1061 2518 879.5 c 128,-1,43
 2490 698 2490 698 2462.5 535.5 c 128,-1,44
 2435 373 2435 373 2410.5 236.5 c 128,-1,45
 2386 100 2386 100 2367 10 c 1,46,47
 2256 2 2256 2 2156 -4 c 128,-1,48
 2056 -10 2056 -10 1959 -14 c 128,-1,49
 1862 -18 1862 -18 1764.5 -19 c 128,-1,50
 1667 -20 1667 -20 1561 -20 c 1,51,52
 1557 0 1557 0 1548.5 52 c 128,-1,53
 1540 104 1540 104 1529 176 c 128,-1,54
 1518 248 1518 248 1504.5 329 c 128,-1,55
 1491 410 1491 410 1478.5 483.5 c 128,-1,56
 1466 557 1466 557 1455 617.5 c 128,-1,57
 1444 678 1444 678 1438 705 c 0,58,59
 1430 742 1430 742 1414.5 759 c 128,-1,60
 1399 776 1399 776 1382.5 775 c 128,-1,61
 1366 774 1366 774 1351.5 755.5 c 128,-1,62
 1337 737 1337 737 1327 705 c 0,63,64
 1315 656 1315 656 1293.5 575 c 128,-1,65
 1272 494 1272 494 1246.5 394.5 c 128,-1,66
 1221 295 1221 295 1194 185.5 c 128,-1,67
 1167 76 1167 76 1143 -31 c 1,68,69
 1030 -39 1030 -39 935 -43 c 0,70,71
 859 -46 859 -46 787 -46 c 0,72,73
 769 -46 769 -46 751 -46 c 0,74,75
 662 -45 662 -45 571.5 -40 c 128,-1,76
 481 -35 481 -35 381 -31 c 1,77,78
 330 207 330 207 292 442.5 c 128,-1,79
 254 678 254 678 221 912.5 c 128,-1,80
 188 1147 188 1147 155.5 1383.5 c 128,-1,81
 123 1620 123 1620 80 1855 c 1,0,1
EndSplineSet
Validated: 33
EndChar

StartChar: X
Encoding: 88 88 59
Width: 1916
GlyphClass: 2
Flags: W
LayerCount: 3
Fore
SplineSet
47 -57 m 1,0,1
 84 47 84 47 135 168 c 128,-1,2
 186 289 186 289 248.5 417 c 128,-1,3
 311 545 311 545 380 673 c 128,-1,4
 449 801 449 801 518 911 c 1,5,6
 489 952 489 952 452.5 1025 c 128,-1,7
 416 1098 416 1098 374 1185 c 128,-1,8
 332 1272 332 1272 291 1370 c 128,-1,9
 250 1468 250 1468 214 1560.5 c 128,-1,10
 178 1653 178 1653 150.5 1735 c 128,-1,11
 123 1817 123 1817 109 1872 c 1,12,13
 164 1880 164 1880 241.5 1889 c 128,-1,14
 319 1898 319 1898 401 1907.5 c 128,-1,15
 483 1917 483 1917 562 1920 c 0,16,17
 596 1921 596 1921 626 1921 c 0,18,19
 666 1921 666 1921 698 1919 c 1,20,21
 725 1862 725 1862 752.5 1804.5 c 128,-1,22
 780 1747 780 1747 805.5 1693.5 c 128,-1,23
 831 1640 831 1640 851.5 1596 c 128,-1,24
 872 1552 872 1552 885 1524 c 0,25,26
 887 1516 887 1516 896 1501.5 c 128,-1,27
 905 1487 905 1487 917.5 1470.5 c 128,-1,28
 930 1454 930 1454 943 1442 c 128,-1,29
 956 1430 956 1430 967 1430 c 0,30,31
 1000 1430 1000 1430 1020 1458.5 c 128,-1,32
 1040 1487 1040 1487 1049 1501 c 0,33,34
 1067 1536 1067 1536 1095.5 1587 c 128,-1,35
 1124 1638 1124 1638 1158 1696.5 c 128,-1,36
 1192 1755 1192 1755 1227 1814.5 c 128,-1,37
 1262 1874 1262 1874 1292 1929 c 1,38,39
 1359 1936 1359 1936 1426 1936 c 0,40,41
 1458 1936 1458 1936 1492 1934 c 0,42,43
 1592 1929 1592 1929 1676.5 1919 c 128,-1,44
 1761 1909 1761 1909 1821.5 1897.5 c 128,-1,45
 1882 1886 1882 1886 1905 1880 c 1,46,47
 1831 1737 1831 1737 1758.5 1611 c 128,-1,48
 1686 1485 1686 1485 1616 1369 c 128,-1,49
 1546 1253 1546 1253 1477.5 1144.5 c 128,-1,50
 1409 1036 1409 1036 1343 928 c 1,51,52
 1398 826 1398 826 1466 702 c 128,-1,53
 1534 578 1534 578 1603.5 451 c 128,-1,54
 1673 324 1673 324 1741.5 205 c 128,-1,55
 1810 86 1810 86 1866 -10 c 1,56,57
 1790 -18 1790 -18 1694.5 -28.5 c 128,-1,58
 1599 -39 1599 -39 1511 -49 c 0,59,60
 1422 -58 1422 -58 1356 -64 c 0,61,62
 1327 -66 1327 -66 1308 -67 c 0,63,64
 1283 -67 1283 -67 1274 -63 c 1,65,66
 1247 -12 1247 -12 1211.5 50.5 c 128,-1,67
 1176 113 1176 113 1139 174.5 c 128,-1,68
 1102 236 1102 236 1070 286 c 128,-1,69
 1038 336 1038 336 1020 362 c 0,70,71
 1014 374 1014 374 1000.5 397 c 128,-1,72
 987 420 987 420 965 420 c 0,73,74
 932 420 932 420 912.5 390 c 128,-1,75
 893 360 893 360 883 346 c 0,76,77
 826 252 826 252 759 141.5 c 128,-1,78
 692 31 692 31 649 -74 c 1,79,80
 549 -84 549 -84 449.5 -84 c 128,-1,81
 350 -84 350 -84 268 -80 c 128,-1,82
 186 -76 186 -76 128 -68.5 c 128,-1,83
 70 -61 70 -61 47 -57 c 1,0,1
EndSplineSet
Validated: 1
EndChar

StartChar: Y
Encoding: 89 89 60
Width: 1974
GlyphClass: 2
Flags: W
LayerCount: 3
Fore
SplineSet
74 1872 m 1,0,1
 152 1876 152 1876 251 1885 c 128,-1,2
 350 1894 350 1894 442.5 1900.5 c 128,-1,3
 535 1907 535 1907 604 1909 c 0,4,5
 626 1910 626 1910 644 1910 c 0,6,7
 678 1910 678 1910 690 1907 c 1,8,9
 702 1852 702 1852 736 1775 c 128,-1,10
 770 1698 770 1698 808 1621 c 128,-1,11
 846 1544 846 1544 878.5 1479.5 c 128,-1,12
 911 1415 911 1415 922 1389 c 0,13,14
 924 1381 924 1381 933 1366.5 c 128,-1,15
 942 1352 942 1352 954.5 1334.5 c 128,-1,16
 967 1317 967 1317 980 1304.5 c 128,-1,17
 993 1292 993 1292 1006 1292 c 0,18,19
 1041 1292 1041 1292 1063 1319 c 128,-1,20
 1085 1346 1085 1346 1094 1360 c 0,21,22
 1157 1493 1157 1493 1214.5 1633.5 c 128,-1,23
 1272 1774 1272 1774 1343 1905 c 1,24,25
 1432 1910 1432 1910 1515 1910 c 0,26,27
 1529 1910 1529 1910 1542 1910 c 0,28,29
 1638 1909 1638 1909 1714 1902.5 c 128,-1,30
 1790 1896 1790 1896 1843 1888 c 128,-1,31
 1896 1880 1896 1880 1919 1872 c 1,32,33
 1845 1753 1845 1753 1764 1607.5 c 128,-1,34
 1683 1462 1683 1462 1598 1306.5 c 128,-1,35
 1513 1151 1513 1151 1428 996.5 c 128,-1,36
 1343 842 1343 842 1264 709 c 1,37,38
 1260 519 1260 519 1255.5 343.5 c 128,-1,39
 1251 168 1251 168 1245 16 c 1,40,41
 1175 2 1175 2 1100 -3 c 0,42,43
 1037 -7 1037 -7 973 -7 c 0,44,45
 960 -7 960 -7 947 -7 c 0,46,47
 870 -6 870 -6 795.5 -2 c 128,-1,48
 721 2 721 2 653 2 c 1,49,50
 653 186 653 186 648 367.5 c 128,-1,51
 643 549 643 549 639 733 c 1,52,53
 594 790 594 790 538.5 880.5 c 128,-1,54
 483 971 483 971 426 1075.5 c 128,-1,55
 369 1180 369 1180 311.5 1293.5 c 128,-1,56
 254 1407 254 1407 207 1514.5 c 128,-1,57
 160 1622 160 1622 124 1715 c 128,-1,58
 88 1808 88 1808 74 1872 c 1,0,1
EndSplineSet
Validated: 1
EndChar

StartChar: Z
Encoding: 90 90 61
Width: 1556
GlyphClass: 2
Flags: W
LayerCount: 3
Fore
SplineSet
78 289 m 0,0,1
 76 315 76 315 76 337.5 c 128,-1,2
 76 360 76 360 78 379 c 1,3,4
 170 518 170 518 272.5 680 c 128,-1,5
 375 842 375 842 472 997.5 c 128,-1,6
 569 1153 569 1153 650 1292.5 c 128,-1,7
 731 1432 731 1432 776 1522 c 1,8,9
 724 1526 724 1526 670 1526 c 0,10,11
 642 1526 642 1526 616 1525 c 0,12,13
 534 1522 534 1522 453 1520 c 0,14,15
 412 1519 412 1519 371 1519 c 128,-1,16
 330 1519 330 1519 290 1520 c 0,17,18
 209 1522 209 1522 133 1538 c 1,19,20
 106 1632 106 1632 100 1730 c 0,21,22
 96 1788 96 1788 96 1850 c 0,23,24
 96 1891 96 1891 98 1933 c 1,25,26
 198 1937 198 1937 356 1953.5 c 128,-1,27
 514 1970 514 1970 696 1978 c 0,28,29
 792 1983 792 1983 890 1983 c 0,30,31
 977 1984 977 1984 1066 1980 c 0,32,33
 1255 1972 1255 1972 1419 1927 c 1,34,35
 1421 1882 1421 1882 1425.5 1823.5 c 128,-1,36
 1430 1765 1430 1765 1432 1705 c 0,37,38
 1433 1665 1433 1665 1433 1626 c 0,39,40
 1433 1608 1433 1608 1433 1588 c 0,41,42
 1432 1530 1432 1530 1423 1483 c 1,43,44
 1343 1311 1343 1311 1261.5 1166.5 c 128,-1,45
 1180 1022 1180 1022 1098 890 c 128,-1,46
 1016 758 1016 758 934 633 c 128,-1,47
 852 508 852 508 772 375 c 1,48,49
 840 367 840 367 930 366 c 128,-1,50
 1020 365 1020 365 1115 365 c 128,-1,51
 1210 365 1210 365 1299 364.5 c 128,-1,52
 1388 364 1388 364 1456 358 c 1,53,54
 1460 314 1460 314 1460 269 c 0,55,56
 1460 219 1460 219 1455 168 c 0,57,58
 1446 72 1446 72 1425 -27 c 1,59,60
 1265 -52 1265 -52 1096.5 -60 c 128,-1,61
 928 -68 928 -68 762 -68 c 128,-1,62
 596 -68 596 -68 440.5 -61.5 c 128,-1,63
 285 -55 285 -55 152 -47 c 1,64,65
 136 2 136 2 120 60.5 c 128,-1,66
 104 119 104 119 93 177.5 c 128,-1,67
 82 236 82 236 78 289 c 0,0,1
EndSplineSet
Validated: 33
EndChar

StartChar: bracketleft
Encoding: 91 91 62
Width: 1077
GlyphClass: 2
Flags: W
LayerCount: 3
Fore
SplineSet
166 942 m 128,-1,1
 166 1194 166 1194 170 1432.5 c 128,-1,2
 174 1671 174 1671 180 1862 c 1,3,4
 264 1878 264 1878 367.5 1894.5 c 128,-1,5
 471 1911 471 1911 576.5 1919 c 128,-1,6
 682 1927 682 1927 782.5 1927 c 128,-1,7
 883 1927 883 1927 963 1913 c 1,8,9
 967 1878 967 1878 972 1831 c 128,-1,10
 977 1784 977 1784 981 1733.5 c 128,-1,11
 985 1683 985 1683 986 1637 c 128,-1,12
 987 1591 987 1591 983 1556 c 1,13,14
 932 1550 932 1550 868.5 1544 c 128,-1,15
 805 1538 805 1538 752 1536 c 1,16,17
 740 1415 740 1415 732.5 1260.5 c 128,-1,18
 725 1106 725 1106 721 944 c 128,-1,19
 717 782 717 782 718 627.5 c 128,-1,20
 719 473 719 473 725 352 c 1,21,22
 809 329 809 329 879.5 322 c 128,-1,23
 950 315 950 315 987 307 c 1,24,25
 995 235 995 235 994 142 c 128,-1,26
 993 49 993 49 983 -23 c 1,27,28
 793 -43 793 -43 587 -36 c 128,-1,29
 381 -29 381 -29 188 -10 c 1,30,31
 176 197 176 197 171 443.5 c 128,-1,0
 166 690 166 690 166 942 c 128,-1,1
EndSplineSet
Validated: 33
EndChar

StartChar: backslash
Encoding: 92 92 63
Width: 1456
GlyphClass: 2
Flags: W
LayerCount: 3
Fore
SplineSet
45 1870 m 1,0,1
 96 1876 96 1876 166 1886 c 128,-1,2
 236 1896 236 1896 309.5 1904.5 c 128,-1,3
 383 1913 383 1913 453.5 1917 c 128,-1,4
 524 1921 524 1921 578 1917 c 1,5,6
 609 1827 609 1827 661 1694 c 128,-1,7
 713 1561 713 1561 780.5 1396 c 128,-1,8
 848 1231 848 1231 926 1047.5 c 128,-1,9
 1004 864 1004 864 1087.5 679 c 128,-1,10
 1171 494 1171 494 1256 317 c 128,-1,11
 1341 140 1341 140 1421 -12 c 1,12,13
 1353 -20 1353 -20 1266.5 -31.5 c 128,-1,14
 1180 -43 1180 -43 1101 -52 c 128,-1,15
 1022 -61 1022 -61 962.5 -66.5 c 128,-1,16
 903 -72 903 -72 887 -68 c 1,17,18
 864 -17 864 -17 810 92 c 128,-1,19
 756 201 756 201 688.5 337 c 128,-1,20
 621 473 621 473 548 623.5 c 128,-1,21
 475 774 475 774 414 909 c 0,22,23
 394 954 394 954 361 1028 c 128,-1,24
 328 1102 328 1102 291 1190 c 128,-1,25
 254 1278 254 1278 215 1374 c 128,-1,26
 176 1470 176 1470 142.5 1561.5 c 128,-1,27
 109 1653 109 1653 83 1732.5 c 128,-1,28
 57 1812 57 1812 45 1870 c 1,0,1
EndSplineSet
Validated: 33
EndChar

StartChar: bracketright
Encoding: 93 93 64
Width: 1077
GlyphClass: 2
Flags: W
LayerCount: 3
Fore
SplineSet
159 1737 m 128,-1,1
 160 1829 160 1829 170 1901 c 1,2,3
 360 1921 360 1921 566 1915 c 128,-1,4
 772 1909 772 1909 965 1890 c 1,5,6
 977 1683 977 1683 982 1435.5 c 128,-1,7
 987 1188 987 1188 987 937 c 128,-1,8
 987 686 987 686 983 447.5 c 128,-1,9
 979 209 979 209 973 20 c 1,10,11
 889 2 889 2 785.5 -13.5 c 128,-1,12
 682 -29 682 -29 576.5 -39 c 128,-1,13
 471 -49 471 -49 370.5 -49 c 128,-1,14
 270 -49 270 -49 190 -35 c 1,15,16
 186 0 186 0 181 48 c 128,-1,17
 176 96 176 96 172 145.5 c 128,-1,18
 168 195 168 195 167 243 c 128,-1,19
 166 291 166 291 170 324 c 1,20,21
 221 330 221 330 284.5 336 c 128,-1,22
 348 342 348 342 401 344 c 1,23,24
 413 465 413 465 420.5 619.5 c 128,-1,25
 428 774 428 774 432 936 c 128,-1,26
 436 1098 436 1098 435 1253.5 c 128,-1,27
 434 1409 434 1409 428 1526 c 1,28,29
 344 1551 344 1551 273.5 1558 c 128,-1,30
 203 1565 203 1565 166 1573 c 1,31,0
 158 1645 158 1645 159 1737 c 128,-1,1
EndSplineSet
Validated: 33
EndChar

StartChar: asciicircum
Encoding: 94 94 65
Width: 1458
GlyphClass: 2
Flags: W
LayerCount: 3
Fore
SplineSet
47 831 m 1,0,1
 76 919 76 919 115 1024.5 c 128,-1,2
 154 1130 154 1130 201 1241 c 128,-1,3
 248 1352 248 1352 300 1462.5 c 128,-1,4
 352 1573 352 1573 406 1669 c 1,5,6
 459 1679 459 1679 547 1683.5 c 128,-1,7
 635 1688 635 1688 728 1689 c 128,-1,8
 821 1690 821 1690 905 1686.5 c 128,-1,9
 989 1683 989 1683 1032 1681 c 1,10,11
 1075 1593 1075 1593 1126.5 1486.5 c 128,-1,12
 1178 1380 1178 1380 1231 1270.5 c 128,-1,13
 1284 1161 1284 1161 1335.5 1057.5 c 128,-1,14
 1387 954 1387 954 1430 870 c 1,15,16
 1373 864 1373 864 1300 855 c 128,-1,17
 1227 846 1227 846 1160.5 837.5 c 128,-1,18
 1094 829 1094 829 1042.5 825 c 128,-1,19
 991 821 991 821 979 827 c 1,20,21
 959 870 959 870 932 924.5 c 128,-1,22
 905 979 905 979 877.5 1030 c 128,-1,23
 850 1081 850 1081 825.5 1126 c 128,-1,24
 801 1171 801 1171 786 1192 c 0,25,26
 782 1204 782 1204 772 1222.5 c 128,-1,27
 762 1241 762 1241 745 1241 c 0,28,29
 718 1241 718 1241 703 1216.5 c 128,-1,30
 688 1192 688 1192 682 1180 c 0,31,32
 639 1100 639 1100 588 1003.5 c 128,-1,33
 537 907 537 907 504 817 c 1,34,35
 428 809 428 809 352 808 c 128,-1,36
 276 807 276 807 214 811 c 128,-1,37
 152 815 152 815 107.5 821 c 128,-1,38
 63 827 63 827 47 831 c 1,0,1
EndSplineSet
Validated: 33
EndChar

StartChar: underscore
Encoding: 95 95 66
Width: 1302
GlyphClass: 2
Flags: W
LayerCount: 3
Fore
SplineSet
103 224.5 m 128,-1,1
 106 289 106 289 116.5 344 c 128,-1,2
 127 399 127 399 139 434 c 1,3,4
 192 436 192 436 275 439 c 128,-1,5
 358 442 358 442 455.5 444 c 128,-1,6
 553 446 553 446 658.5 447.5 c 128,-1,7
 764 449 764 449 860 447.5 c 128,-1,8
 956 446 956 446 1038 444 c 128,-1,9
 1120 442 1120 442 1169 436 c 1,10,11
 1175 403 1175 403 1181.5 345 c 128,-1,12
 1188 287 1188 287 1191 224.5 c 128,-1,13
 1194 162 1194 162 1193 102.5 c 128,-1,14
 1192 43 1192 43 1184 10 c 1,15,16
 1057 2 1057 2 924 -2 c 128,-1,17
 791 -6 791 -6 656.5 -8 c 128,-1,18
 522 -10 522 -10 389 -16.5 c 128,-1,19
 256 -23 256 -23 131 -35 c 1,20,21
 113 24 113 24 106.5 92 c 128,-1,0
 100 160 100 160 103 224.5 c 128,-1,1
EndSplineSet
Validated: 33
EndChar

StartChar: grave
Encoding: 96 96 67
Width: 790
GlyphClass: 2
Flags: W
LayerCount: 3
Fore
SplineSet
51 1532 m 1,0,1
 155 1585 155 1585 278 1615 c 128,-1,2
 401 1645 401 1645 539 1645 c 1,3,4
 551 1608 551 1608 569.5 1551.5 c 128,-1,5
 588 1495 588 1495 612.5 1432.5 c 128,-1,6
 637 1370 637 1370 666.5 1305.5 c 128,-1,7
 696 1241 696 1241 733 1188 c 1,8,9
 700 1176 700 1176 662.5 1164.5 c 128,-1,10
 625 1153 625 1153 585 1146 c 128,-1,11
 545 1139 545 1139 506 1133.5 c 128,-1,12
 467 1128 467 1128 434 1126 c 1,13,14
 338 1192 338 1192 240.5 1305.5 c 128,-1,15
 143 1419 143 1419 51 1532 c 1,0,1
EndSplineSet
Validated: 1
EndChar

StartChar: a
Encoding: 97 97 68
Width: 1708
GlyphClass: 2
Flags: W
LayerCount: 3
Fore
SplineSet
63 317 m 1,0,1
 67 450 67 450 100 581.5 c 128,-1,2
 133 713 133 713 180 803 c 1,3,4
 229 834 229 834 320.5 861.5 c 128,-1,5
 412 889 412 889 522.5 915.5 c 128,-1,6
 633 942 633 942 753.5 964.5 c 128,-1,7
 874 987 874 987 985 1006 c 1,8,9
 979 1031 979 1031 973 1062.5 c 128,-1,10
 967 1094 967 1094 961 1106 c 1,11,12
 914 1135 914 1135 829.5 1149 c 128,-1,13
 745 1163 745 1163 646 1167 c 0,14,15
 567 1170 567 1170 485 1170 c 0,16,17
 464 1170 464 1170 444 1170 c 0,18,19
 342 1169 342 1169 260 1169 c 1,20,21
 259 1184 259 1184 259 1202 c 0,22,23
 259 1236 259 1236 262 1274 c 0,24,25
 266 1330 266 1330 275.5 1383 c 128,-1,26
 285 1436 285 1436 298 1476 c 128,-1,27
 311 1516 311 1516 330 1534 c 1,28,29
 470 1548 470 1548 616 1556 c 0,30,31
 712 1562 712 1562 808 1562 c 0,32,33
 860 1562 860 1562 910 1560 c 0,34,35
 1058 1556 1058 1556 1200.5 1536 c 128,-1,36
 1343 1516 1343 1516 1477 1479 c 1,37,38
 1516 1430 1516 1430 1541.5 1330.5 c 128,-1,39
 1567 1231 1567 1231 1583 1102 c 128,-1,40
 1599 973 1599 973 1606.5 825.5 c 128,-1,41
 1614 678 1614 678 1615 536 c 0,42,43
 1615 508 1615 508 1615 479 c 0,44,45
 1615 367 1615 367 1612 264 c 0,46,47
 1608 135 1608 135 1602 45 c 1,48,49
 1530 25 1530 25 1423.5 6.5 c 128,-1,50
 1317 -12 1317 -12 1194 -25.5 c 128,-1,51
 1071 -39 1071 -39 939 -48 c 128,-1,52
 807 -57 807 -57 685 -60 c 0,53,54
 639 -61 639 -61 596 -61 c 0,55,56
 524 -61 524 -61 460 -58 c 0,57,58
 356 -53 356 -53 289 -41 c 1,59,60
 262 -4 262 -4 228.5 42 c 128,-1,61
 195 88 195 88 163 137 c 128,-1,62
 131 186 131 186 104.5 233.5 c 128,-1,63
 78 281 78 281 63 317 c 1,0,1
688 458 m 0,64,65
 690 420 690 420 697.5 383 c 128,-1,66
 705 346 705 346 715 317 c 1,67,68
 753 301 753 301 810 301 c 0,69,70
 824 301 824 301 840 302 c 0,71,72
 918 307 918 307 1028 317 c 1,73,74
 1026 409 1026 409 1025 493.5 c 128,-1,75
 1024 578 1024 578 1020 666 c 1,76,77
 938 650 938 650 863 640.5 c 128,-1,78
 788 631 788 631 713 594 c 1,79,80
 698 568 698 568 692 532 c 0,81,82
 687 505 687 505 688 476 c 0,83,84
 688 467 688 467 688 458 c 0,64,65
EndSplineSet
Validated: 1
EndChar

StartChar: b
Encoding: 98 98 69
Width: 1847
GlyphClass: 2
Flags: W
LayerCount: 3
Fore
SplineSet
144 480 m 0,0,1
 144 516 144 516 144 553 c 0,2,3
 144 682 144 682 146 826 c 0,4,5
 150 1012 150 1012 153 1197 c 128,-1,6
 156 1382 156 1382 160 1554 c 128,-1,7
 164 1726 164 1726 166 1862 c 1,8,9
 232 1882 232 1882 311.5 1899.5 c 128,-1,10
 391 1917 391 1917 470 1927 c 0,11,12
 550 1936 550 1936 622 1942 c 0,13,14
 664 1945 664 1945 698 1945 c 0,15,16
 723 1945 723 1945 745 1944 c 1,17,18
 743 1897 743 1897 739 1808.5 c 128,-1,19
 735 1720 735 1720 733 1626 c 128,-1,20
 731 1532 731 1532 731 1454 c 128,-1,21
 731 1376 731 1376 733 1348 c 1,22,23
 768 1356 768 1356 838.5 1361 c 128,-1,24
 909 1366 909 1366 992 1371 c 128,-1,25
 1075 1376 1075 1376 1159 1378 c 128,-1,26
 1243 1380 1243 1380 1305 1380 c 1,27,28
 1364 1357 1364 1357 1430.5 1302 c 128,-1,29
 1497 1247 1497 1247 1561.5 1173.5 c 128,-1,30
 1626 1100 1626 1100 1681 1019 c 128,-1,31
 1736 938 1736 938 1769 866 c 1,32,33
 1761 780 1761 780 1743.5 657.5 c 128,-1,34
 1726 535 1726 535 1701.5 417 c 128,-1,35
 1677 299 1677 299 1645.5 202.5 c 128,-1,36
 1614 106 1614 106 1577 74 c 1,37,38
 1528 64 1528 64 1448 48.5 c 128,-1,39
 1368 33 1368 33 1275 19.5 c 128,-1,40
 1182 6 1182 6 1082.5 -6 c 128,-1,41
 983 -18 983 -18 895 -23 c 0,42,43
 731 -33 731 -33 578 -33 c 0,44,45
 540 -33 540 -33 502 -32 c 0,46,47
 314 -29 314 -29 160 8 c 1,48,49
 152 69 152 69 148.5 194 c 128,-1,50
 145 319 145 319 144 480 c 0,0,1
732 603 m 0,51,52
 733 522 733 522 737 454.5 c 128,-1,53
 741 387 741 387 748 348 c 1,54,55
 776 342 776 342 806 342 c 0,56,57
 814 342 814 342 822 342 c 0,58,59
 860 344 860 344 900 348 c 128,-1,60
 940 352 940 352 977 361.5 c 128,-1,61
 1014 371 1014 371 1042 381 c 1,62,63
 1065 414 1065 414 1078.5 475.5 c 128,-1,64
 1092 537 1092 537 1099 610.5 c 128,-1,65
 1106 684 1106 684 1107 760 c 0,66,67
 1107 785 1107 785 1107 809 c 0,68,69
 1107 856 1107 856 1106 897 c 1,70,71
 1086 915 1086 915 1040.5 927.5 c 128,-1,72
 995 940 995 940 941 944 c 0,73,74
 917 946 917 946 893 946 c 0,75,76
 862 946 862 946 834 943 c 0,77,78
 782 938 782 938 745 924 c 1,79,80
 737 852 737 852 734 768 c 0,81,82
 732 705 732 705 732 644 c 0,83,84
 732 623 732 623 732 603 c 0,51,52
EndSplineSet
Validated: 1
EndChar

StartChar: c
Encoding: 99 99 70
Width: 1511
GlyphClass: 2
Flags: W
LayerCount: 3
Fore
SplineSet
68 471 m 0,0,1
 65 522 65 522 65 575 c 0,2,3
 66 644 66 644 70 718 c 0,4,5
 78 848 78 848 99.5 970 c 128,-1,6
 121 1092 121 1092 154.5 1196 c 128,-1,7
 188 1300 188 1300 231 1364 c 1,8,9
 284 1393 284 1393 381.5 1419.5 c 128,-1,10
 479 1446 479 1446 597 1466.5 c 128,-1,11
 715 1487 715 1487 842 1502 c 0,12,13
 970 1518 970 1518 1082 1524 c 0,14,15
 1150 1528 1150 1528 1207 1528 c 0,16,17
 1246 1528 1246 1528 1280 1526 c 0,18,19
 1366 1522 1366 1522 1401 1507 c 1,20,21
 1407 1462 1407 1462 1414 1368 c 0,22,23
 1416 1344 1416 1344 1416 1318 c 0,24,25
 1416 1245 1416 1245 1401 1165 c 1,26,27
 1307 1159 1307 1159 1222 1155 c 128,-1,28
 1137 1151 1137 1151 1060 1144 c 128,-1,29
 983 1137 983 1137 910.5 1123.5 c 128,-1,30
 838 1110 838 1110 764 1079 c 1,31,32
 744 1007 744 1007 724 914 c 0,33,34
 706 821 706 821 696 728 c 0,35,36
 690 671 690 671 690 617 c 0,37,38
 690 583 690 583 692 551 c 0,39,40
 698 467 698 467 729 416 c 1,41,42
 762 398 762 398 820.5 386.5 c 128,-1,43
 879 375 879 375 950.5 368.5 c 128,-1,44
 1022 362 1022 362 1099 359 c 128,-1,45
 1176 356 1176 356 1244.5 354 c 128,-1,46
 1313 352 1313 352 1365.5 348 c 128,-1,47
 1418 344 1418 344 1438 336 c 1,48,49
 1439 322 1439 322 1439 306 c 0,50,51
 1439 274 1439 274 1436 236 c 0,52,53
 1432 180 1432 180 1422.5 129 c 128,-1,54
 1413 78 1413 78 1399.5 37 c 128,-1,55
 1386 -4 1386 -4 1368 -16 c 1,56,57
 1225 -16 1225 -16 1068 -11 c 128,-1,58
 911 -6 911 -6 753.5 7 c 128,-1,59
 596 20 596 20 443.5 49 c 128,-1,60
 291 78 291 78 156 123 c 1,61,62
 117 170 117 170 95.5 262 c 128,-1,63
 74 354 74 354 68 471 c 0,0,1
EndSplineSet
Validated: 1
EndChar

StartChar: d
Encoding: 100 100 71
Width: 1898
GlyphClass: 2
Flags: W
LayerCount: 3
Fore
SplineSet
92 375 m 1,0,1
 85 416 85 416 85 467 c 128,-1,2
 85 518 85 518 92 578 c 0,3,4
 106 700 106 700 142 826 c 128,-1,5
 178 952 178 952 232.5 1064 c 128,-1,6
 287 1176 287 1176 354 1241 c 1,7,8
 446 1259 446 1259 542.5 1281 c 128,-1,9
 639 1303 639 1303 738 1319 c 0,10,11
 836 1336 836 1336 938 1344 c 0,12,13
 998 1349 998 1349 1059 1349 c 0,14,15
 1102 1349 1102 1349 1145 1346 c 1,16,17
 1145 1403 1145 1403 1147 1475.5 c 128,-1,18
 1149 1548 1149 1548 1151 1622 c 128,-1,19
 1153 1696 1153 1696 1156 1764.5 c 128,-1,20
 1159 1833 1159 1833 1161 1884 c 1,21,22
 1220 1909 1220 1909 1299 1917 c 0,23,24
 1356 1923 1356 1923 1415 1923 c 0,25,26
 1437 1923 1437 1923 1460 1922 c 0,27,28
 1542 1919 1542 1919 1618 1905.5 c 128,-1,29
 1694 1892 1694 1892 1747 1872 c 1,30,31
 1747 1663 1747 1663 1748 1415 c 0,32,33
 1748 1291 1748 1291 1748 1165.5 c 128,-1,34
 1748 1040 1748 1040 1748 912 c 0,35,36
 1747 657 1747 657 1742 416.5 c 128,-1,37
 1737 176 1737 176 1720 -18 c 1,38,39
 1614 -45 1614 -45 1492 -59.5 c 128,-1,40
 1370 -74 1370 -74 1245 -79 c 0,41,42
 1167 -82 1167 -82 1089 -82 c 0,43,44
 1042 -82 1042 -82 996 -81 c 0,45,46
 872 -78 872 -78 760.5 -68.5 c 128,-1,47
 649 -59 649 -59 556 -50 c 128,-1,48
 463 -41 463 -41 399 -33 c 1,49,50
 313 41 313 41 235.5 156.5 c 128,-1,51
 158 272 158 272 92 375 c 1,0,1
714 594 m 0,52,53
 708 539 708 539 707 490 c 0,54,55
 707 415 707 415 721 350 c 1,56,57
 758 338 758 338 809 332 c 128,-1,58
 860 326 860 326 917.5 326 c 128,-1,59
 975 326 975 326 1031 332 c 128,-1,60
 1087 338 1087 338 1135 350 c 1,61,62
 1141 364 1141 364 1143 438 c 0,63,64
 1144 487 1144 487 1144 544 c 0,65,66
 1144 572 1144 572 1144 603 c 0,67,68
 1143 694 1143 694 1141 780 c 128,-1,69
 1139 866 1139 866 1137 903 c 1,70,71
 1065 923 1065 923 980 923 c 0,72,73
 964 923 964 923 950 922 c 0,74,75
 848 918 848 918 764 877 c 1,76,77
 730 730 730 730 714 594 c 0,52,53
EndSplineSet
Validated: 1
EndChar

StartChar: e
Encoding: 101 101 72
Width: 1771
GlyphClass: 2
Flags: W
LayerCount: 3
Fore
SplineSet
78 477 m 0,0,1
 75 527 75 527 75 580 c 0,2,3
 75 650 75 650 80 724 c 0,4,5
 88 854 88 854 109.5 976 c 128,-1,6
 131 1098 131 1098 164 1202.5 c 128,-1,7
 197 1307 197 1307 240 1370 c 1,8,9
 293 1399 293 1399 398.5 1425.5 c 128,-1,10
 504 1452 504 1452 634 1472.5 c 128,-1,11
 764 1493 764 1493 906 1508 c 0,12,13
 1046 1524 1046 1524 1170 1530 c 0,14,15
 1244 1534 1244 1534 1308 1534 c 0,16,17
 1350 1534 1350 1534 1388 1532 c 0,18,19
 1482 1528 1482 1528 1518 1513 c 1,20,21
 1565 1431 1565 1431 1599.5 1325 c 128,-1,22
 1634 1219 1634 1219 1656 1101 c 256,23,24
 1678 983 1678 983 1688 859 c 0,25,26
 1696 769 1696 769 1695 683 c 0,27,28
 1695 650 1695 650 1694 618 c 1,29,30
 1628 608 1628 608 1511.5 596 c 128,-1,31
 1395 584 1395 584 1256.5 573.5 c 128,-1,32
 1118 563 1118 563 971.5 555 c 128,-1,33
 825 547 825 547 702 543 c 1,34,35
 706 506 706 506 714.5 475 c 128,-1,36
 723 444 723 444 737 422 c 1,37,38
 768 404 768 404 831.5 388.5 c 128,-1,39
 895 373 895 373 973 363.5 c 128,-1,40
 1051 354 1051 354 1136 346 c 128,-1,41
 1221 338 1221 338 1295.5 332 c 128,-1,42
 1370 326 1370 326 1426.5 319.5 c 128,-1,43
 1483 313 1483 313 1503 305 c 1,44,45
 1504 291 1504 291 1504 275 c 0,46,47
 1504 243 1504 243 1501 206 c 0,48,49
 1497 150 1497 150 1488 98.5 c 128,-1,50
 1479 47 1479 47 1465.5 6 c 128,-1,51
 1452 -35 1452 -35 1434 -47 c 1,52,53
 1293 -47 1293 -47 1127 -37 c 128,-1,54
 961 -27 961 -27 793 -6.5 c 128,-1,55
 625 14 625 14 463 49 c 128,-1,56
 301 84 301 84 166 129 c 1,57,58
 127 176 127 176 105.5 268 c 128,-1,59
 84 360 84 360 78 477 c 0,0,1
711 854 m 1,60,61
 733 853 733 853 755 853 c 0,62,63
 844 852 844 852 923 866 c 0,64,65
 1022 882 1022 882 1094 901 c 1,66,67
 1096 925 1096 925 1096 950 c 0,68,69
 1096 986 1096 986 1092 1022 c 0,70,71
 1086 1086 1086 1086 1061 1135 c 1,72,73
 1026 1133 1026 1133 994.5 1131.5 c 128,-1,74
 963 1130 963 1130 929 1126 c 128,-1,75
 895 1122 895 1122 857 1114 c 128,-1,76
 819 1106 819 1106 772 1085 c 1,77,78
 754 1026 754 1026 737.5 980 c 128,-1,79
 721 934 721 934 711 854 c 1,60,61
EndSplineSet
Validated: 33
EndChar

StartChar: f
Encoding: 102 102 73
Width: 1597
GlyphClass: 2
Flags: W
LayerCount: 3
Fore
SplineSet
108 1025 m 0,0,1
 111 1079 111 1079 116 1125 c 128,-1,2
 121 1171 121 1171 127 1200 c 1,3,4
 168 1204 168 1204 252 1207 c 128,-1,5
 336 1210 336 1210 434 1210 c 1,6,7
 438 1321 438 1321 446.5 1421.5 c 128,-1,8
 455 1522 455 1522 467 1605 c 128,-1,9
 479 1688 479 1688 496.5 1746 c 128,-1,10
 514 1804 514 1804 537 1835 c 1,11,12
 670 1884 670 1884 781.5 1909.5 c 128,-1,13
 893 1935 893 1935 1001.5 1947.5 c 128,-1,14
 1110 1960 1110 1960 1224.5 1962 c 128,-1,15
 1339 1964 1339 1964 1479 1966 c 1,16,17
 1497 1954 1497 1954 1510.5 1917 c 128,-1,18
 1524 1880 1524 1880 1533 1833 c 128,-1,19
 1542 1786 1542 1786 1546 1732 c 0,20,21
 1549 1697 1549 1697 1549 1667 c 0,22,23
 1549 1652 1549 1652 1548 1638 c 1,24,25
 1433 1630 1433 1630 1310.5 1603.5 c 128,-1,26
 1188 1577 1188 1577 1094 1516 c 1,27,28
 1076 1483 1076 1483 1063.5 1426.5 c 128,-1,29
 1051 1370 1051 1370 1042 1249 c 1,30,31
 1099 1239 1099 1239 1148.5 1237 c 128,-1,32
 1198 1235 1198 1235 1245 1235 c 128,-1,33
 1292 1235 1292 1235 1340 1236 c 0,34,35
 1350 1236 1350 1236 1360 1236 c 0,36,37
 1399 1236 1399 1236 1440 1233 c 1,38,39
 1452 1180 1452 1180 1456 1139 c 0,40,41
 1459 1106 1459 1106 1459 1073 c 0,42,43
 1459 1065 1459 1065 1459 1057 c 0,44,45
 1458 1016 1458 1016 1450 975 c 128,-1,46
 1442 934 1442 934 1430 883 c 1,47,48
 1356 873 1356 873 1312 869.5 c 128,-1,49
 1268 866 1268 866 1229 862 c 128,-1,50
 1190 858 1190 858 1146 852 c 128,-1,51
 1102 846 1102 846 1028 831 c 1,52,53
 1026 729 1026 729 1026 608 c 128,-1,54
 1026 487 1026 487 1026 374.5 c 128,-1,55
 1026 262 1026 262 1027 167 c 128,-1,56
 1028 72 1028 72 1030 23 c 1,57,58
 964 9 964 9 886.5 0.5 c 128,-1,59
 809 -8 809 -8 730 -12 c 0,60,61
 667 -15 667 -15 608 -15 c 0,62,63
 593 -15 593 -15 578 -15 c 0,64,65
 506 -14 506 -14 451 -6 c 1,66,67
 447 47 447 47 442.5 136 c 128,-1,68
 438 225 438 225 434 335.5 c 128,-1,69
 430 446 430 446 428 573 c 128,-1,70
 426 700 426 700 426 834 c 1,71,72
 342 830 342 830 264 825.5 c 128,-1,73
 186 821 186 821 123 811 c 1,74,75
 113 860 113 860 110 916 c 0,76,77
 107 948 107 948 107 980 c 0,78,79
 107 1002 107 1002 108 1025 c 0,0,1
EndSplineSet
Validated: 1
EndChar

StartChar: g
Encoding: 103 103 74
Width: 1751
GlyphClass: 2
Flags: W
LayerCount: 3
Fore
SplineSet
68 599 m 0,0,1
 65 647 65 647 65 696 c 0,2,3
 65 762 65 762 70 830 c 0,4,5
 78 952 78 952 99.5 1067 c 128,-1,6
 121 1182 121 1182 154.5 1283 c 128,-1,7
 188 1384 188 1384 231 1448 c 1,8,9
 305 1487 305 1487 412.5 1516.5 c 128,-1,10
 520 1546 520 1546 645 1564.5 c 128,-1,11
 770 1583 770 1583 904 1593.5 c 128,-1,12
 1038 1604 1038 1604 1169 1604 c 128,-1,13
 1300 1604 1300 1604 1419 1595.5 c 128,-1,14
 1538 1587 1538 1587 1630 1571 c 1,15,16
 1632 1542 1632 1542 1633 1440 c 0,17,18
 1634 1390 1634 1390 1634 1331 c 128,-1,19
 1634 1272 1634 1272 1633 1204 c 0,20,21
 1632 1069 1632 1069 1630 913.5 c 128,-1,22
 1628 758 1628 758 1624 617.5 c 128,-1,23
 1620 477 1620 477 1613 367.5 c 128,-1,24
 1606 258 1606 258 1597 215 c 0,25,26
 1581 131 1581 131 1556.5 50 c 128,-1,27
 1532 -31 1532 -31 1497 -97.5 c 128,-1,28
 1462 -164 1462 -164 1415 -214 c 128,-1,29
 1368 -264 1368 -264 1309 -287 c 0,30,31
 1209 -324 1209 -324 1071.5 -349.5 c 128,-1,32
 934 -375 934 -375 788.5 -392.5 c 128,-1,33
 643 -410 643 -410 502.5 -419 c 128,-1,34
 362 -428 362 -428 258 -432 c 1,35,36
 227 -354 227 -354 211 -257 c 0,37,38
 199 -186 199 -186 199 -125 c 0,39,40
 199 -102 199 -102 201 -80 c 1,41,42
 275 -74 275 -74 368 -66.5 c 128,-1,43
 461 -59 461 -59 557 -48 c 128,-1,44
 653 -37 653 -37 744.5 -20.5 c 128,-1,45
 836 -4 836 -4 907 20 c 1,46,47
 925 36 925 36 940.5 89.5 c 128,-1,48
 956 143 956 143 967 215 c 1,49,50
 867 210 867 210 767 210 c 0,51,52
 656 210 656 210 547 216 c 0,53,54
 338 227 338 227 156 276 c 1,55,56
 117 317 117 317 95.5 403 c 128,-1,57
 74 489 74 489 68 599 c 0,0,1
692 730 m 0,58,59
 698 666 698 666 729 616 c 1,60,61
 766 598 766 598 838 592 c 0,62,63
 893 588 893 588 956 588 c 0,64,65
 977 588 977 588 999 588 c 1,66,67
 1007 746 1007 746 1009.5 905.5 c 128,-1,68
 1012 1065 1012 1065 1012 1223 c 1,69,70
 946 1215 946 1215 885.5 1201.5 c 128,-1,71
 825 1188 825 1188 764 1163 c 1,72,73
 744 1091 744 1091 724.5 1015.5 c 128,-1,74
 705 940 705 940 696 868 c 0,75,76
 690 823 690 823 690 782 c 0,77,78
 690 755 690 755 692 730 c 0,58,59
EndSplineSet
Validated: 1
EndChar

StartChar: h
Encoding: 104 104 75
Width: 1755
GlyphClass: 2
Flags: W
LayerCount: 3
Fore
SplineSet
105 722 m 0,0,1
 106 889 106 889 109.5 1042.5 c 128,-1,2
 113 1196 113 1196 116 1324 c 128,-1,3
 119 1452 119 1452 121 1526 c 1,4,5
 154 1534 154 1534 206 1541 c 128,-1,6
 258 1548 258 1548 320 1554 c 0,7,8
 380 1559 380 1559 444 1560 c 0,9,10
 476 1560 476 1560 505 1560 c 128,-1,11
 534 1560 534 1560 561 1560 c 0,12,13
 614 1559 614 1559 650 1553.5 c 128,-1,14
 686 1548 686 1548 694 1538 c 1,15,16
 674 1415 674 1415 674 1275 c 128,-1,17
 674 1135 674 1135 674 1010 c 1,18,19
 716 1000 716 1000 780 1000 c 0,20,21
 785 1000 785 1000 789 999 c 0,22,23
 850 1000 850 1000 910 1006 c 0,24,25
 976 1012 976 1012 1028.5 1022 c 128,-1,26
 1081 1032 1081 1032 1102 1040 c 1,27,28
 1110 1077 1110 1077 1110 1139.5 c 128,-1,29
 1110 1202 1110 1202 1108 1271.5 c 128,-1,30
 1106 1341 1106 1341 1104 1413 c 0,31,32
 1103 1437 1103 1437 1103 1459 c 0,33,34
 1103 1503 1103 1503 1106 1538 c 1,35,36
 1135 1552 1135 1552 1207.5 1562.5 c 128,-1,37
 1280 1573 1280 1573 1363 1578 c 128,-1,38
 1446 1583 1446 1583 1519.5 1583 c 128,-1,39
 1593 1583 1593 1583 1626 1575 c 1,40,41
 1636 1474 1636 1474 1639 1332 c 0,42,43
 1641 1225 1641 1225 1641 1109 c 0,44,45
 1641 1070 1641 1070 1641 1031 c 0,46,47
 1640 872 1640 872 1637 707.5 c 128,-1,48
 1634 543 1634 543 1630 398.5 c 128,-1,49
 1626 254 1626 254 1622 139.5 c 128,-1,50
 1618 25 1618 25 1616 -35 c 1,51,52
 1579 -41 1579 -41 1502 -44 c 128,-1,53
 1425 -47 1425 -47 1343.5 -47 c 128,-1,54
 1262 -47 1262 -47 1192 -46 c 128,-1,55
 1122 -45 1122 -45 1098 -41 c 1,56,57
 1096 -10 1096 -10 1096 28 c 0,58,59
 1096 56 1096 56 1097 87 c 0,60,61
 1100 160 1100 160 1102 238 c 0,62,63
 1103 277 1103 277 1103 315 c 128,-1,64
 1103 353 1103 353 1102 391 c 0,65,66
 1100 467 1100 467 1087 528 c 1,67,68
 1060 530 1060 530 1000 534 c 0,69,70
 951 538 951 538 898 538 c 0,71,72
 886 538 886 538 874 538 c 0,73,74
 808 537 808 537 753 526.5 c 128,-1,75
 698 516 698 516 686 489 c 1,76,77
 676 356 676 356 672 222 c 0,78,79
 670 155 670 155 670 88.5 c 128,-1,80
 670 22 670 22 672 -45 c 1,81,82
 550 -70 550 -70 406 -73 c 0,83,84
 373 -74 373 -74 341 -74 c 0,85,86
 233 -74 233 -74 133 -66 c 1,87,88
 123 2 123 2 117 126 c 0,89,90
 112 250 112 250 108 402 c 0,91,92
 105 521 105 521 105 648 c 0,93,94
 105 685 105 685 105 722 c 0,0,1
EndSplineSet
Validated: 1
EndChar

StartChar: i
Encoding: 105 105 76
Width: 806
GlyphClass: 2
Flags: W
LayerCount: 3
Fore
SplineSet
129 1716 m 0,0,1
 131 1755 131 1755 136 1792 c 128,-1,2
 141 1829 141 1829 145 1849 c 0,3,4
 151 1886 151 1886 185 1912.5 c 128,-1,5
 219 1939 219 1939 262 1957.5 c 128,-1,6
 305 1976 305 1976 349 1985.5 c 128,-1,7
 393 1995 393 1995 420 2001 c 0,8,9
 432 2003 432 2003 446 2003 c 0,10,11
 458 2003 458 2003 474 2001 c 0,12,13
 506 1997 506 1997 538.5 1988.5 c 128,-1,14
 571 1980 571 1980 603 1970 c 128,-1,15
 635 1960 635 1960 655 1948 c 1,16,17
 684 1878 684 1878 698 1800 c 0,18,19
 706 1755 706 1755 706 1710 c 0,20,21
 706 1678 706 1678 702 1645 c 1,22,23
 690 1620 690 1620 646 1599.5 c 128,-1,24
 602 1579 602 1579 544 1566 c 0,25,26
 488 1554 488 1554 422 1547 c 0,27,28
 376 1542 376 1542 334 1542 c 0,29,30
 316 1542 316 1542 299 1543 c 0,31,32
 242 1546 242 1546 200 1555.5 c 128,-1,33
 158 1565 158 1565 145 1585 c 0,34,35
 133 1608 133 1608 130 1642 c 0,36,37
 128 1663 128 1663 128 1686 c 0,38,39
 128 1700 128 1700 129 1716 c 0,0,1
144 688 m 0,40,41
 143 754 143 754 143 818 c 0,42,43
 143 1096 143 1096 154 1343 c 1,44,45
 215 1355 215 1355 282.5 1361.5 c 128,-1,46
 350 1368 350 1368 418.5 1371 c 128,-1,47
 487 1374 487 1374 554 1374 c 128,-1,48
 621 1374 621 1374 680 1374 c 1,49,50
 680 1196 680 1196 677 1034 c 128,-1,51
 674 872 674 872 668 711.5 c 128,-1,52
 662 551 662 551 654.5 386 c 128,-1,53
 647 221 647 221 637 39 c 1,54,55
 614 27 614 27 548.5 19.5 c 128,-1,56
 483 12 483 12 409.5 7 c 128,-1,57
 336 2 336 2 267.5 2 c 128,-1,58
 199 2 199 2 170 4 c 1,59,60
 147 338 147 338 144 688 c 0,40,41
EndSplineSet
Validated: 1
EndChar

StartChar: j
Encoding: 106 106 77
Width: 882
GlyphClass: 2
Flags: W
LayerCount: 3
Fore
SplineSet
-454 -262 m 0,0,1
 -455 -238 -455 -238 -455 -213 c 0,2,3
 -455 -142 -455 -142 -440 -57 c 1,4,5
 -364 -55 -364 -55 -292.5 -54 c 128,-1,6
 -221 -53 -221 -53 -150.5 -45 c 128,-1,7
 -80 -37 -80 -37 -9.5 -20.5 c 128,-1,8
 61 -4 61 -4 133 27 c 1,9,10
 147 76 147 76 155.5 176 c 128,-1,11
 164 276 164 276 168 404 c 128,-1,12
 172 532 172 532 172 677.5 c 128,-1,13
 172 823 172 823 169 964.5 c 128,-1,14
 166 1106 166 1106 160 1232 c 128,-1,15
 154 1358 154 1358 143 1450 c 1,16,17
 192 1462 192 1462 261 1474.5 c 128,-1,18
 330 1487 330 1487 408 1493 c 0,19,20
 459 1497 459 1497 513 1497 c 0,21,22
 540 1497 540 1497 568 1496 c 0,23,24
 651 1493 651 1493 729 1479 c 1,25,26
 741 1403 741 1403 744 1270 c 0,27,28
 747 1192 747 1192 747 1106 c 0,29,30
 747 1044 747 1044 746 977 c 0,31,32
 743 817 743 817 736 645 c 128,-1,33
 729 473 729 473 721 316.5 c 128,-1,34
 713 160 713 160 703.5 33 c 128,-1,35
 694 -94 694 -94 686 -160 c 1,36,37
 647 -221 647 -221 557 -268 c 128,-1,38
 467 -315 467 -315 353.5 -347 c 128,-1,39
 240 -379 240 -379 115 -397.5 c 128,-1,40
 -10 -416 -10 -416 -122 -422 c 0,41,42
 -177 -425 -177 -425 -226.5 -425 c 128,-1,43
 -276 -425 -276 -425 -320 -422 c 0,44,45
 -406 -416 -406 -416 -440 -399 c 1,46,47
 -446 -352 -446 -352 -454 -262 c 0,0,1
162 1816 m 0,48,49
 164 1855 164 1855 169 1892 c 128,-1,50
 174 1929 174 1929 178 1950 c 0,51,52
 184 1987 184 1987 218 2013.5 c 128,-1,53
 252 2040 252 2040 295 2058.5 c 128,-1,54
 338 2077 338 2077 381 2086 c 128,-1,55
 424 2095 424 2095 451 2101 c 0,56,57
 464 2103 464 2103 478 2103 c 128,-1,58
 492 2103 492 2103 508 2101 c 0,59,60
 539 2097 539 2097 571.5 2089 c 128,-1,61
 604 2081 604 2081 635 2070.5 c 128,-1,62
 666 2060 666 2060 688 2048 c 1,63,64
 717 1978 717 1978 731 1900 c 0,65,66
 739 1854 739 1854 739 1807 c 0,67,68
 739 1774 739 1774 735 1741 c 1,69,70
 721 1716 721 1716 678 1697.5 c 128,-1,71
 635 1679 635 1679 576.5 1666 c 128,-1,72
 518 1653 518 1653 454 1646 c 0,73,74
 412 1642 412 1642 372 1642 c 0,75,76
 351 1642 351 1642 330 1644 c 0,77,78
 272 1647 272 1647 231 1656 c 128,-1,79
 190 1665 190 1665 178 1686 c 0,80,81
 166 1709 166 1709 163 1744 c 0,82,83
 161 1764 161 1764 161 1786 c 0,84,85
 161 1801 161 1801 162 1816 c 0,48,49
EndSplineSet
Validated: 1
EndChar

StartChar: k
Encoding: 107 107 78
Width: 1722
GlyphClass: 2
Flags: W
LayerCount: 3
Fore
SplineSet
103 582 m 0,0,1
 104 776 104 776 107.5 980 c 128,-1,2
 111 1184 111 1184 115 1363 c 128,-1,3
 119 1542 119 1542 123 1678.5 c 128,-1,4
 127 1815 127 1815 129 1870 c 1,5,6
 180 1880 180 1880 263 1882 c 0,7,8
 318 1883 318 1883 375 1883 c 0,9,10
 403 1883 403 1883 431 1883 c 0,11,12
 516 1882 516 1882 584.5 1879 c 128,-1,13
 653 1876 653 1876 678 1874 c 1,14,15
 676 1839 676 1839 674 1771.5 c 128,-1,16
 672 1704 672 1704 671 1618 c 128,-1,17
 670 1532 670 1532 670 1437.5 c 128,-1,18
 670 1343 670 1343 671 1257 c 128,-1,19
 672 1171 672 1171 676 1099.5 c 128,-1,20
 680 1028 680 1028 686 989 c 0,21,22
 690 962 690 962 714 960 c 0,23,24
 715 960 715 960 716 960 c 0,25,26
 739 960 739 960 772 999 c 0,27,28
 801 1038 801 1038 848 1103.5 c 128,-1,29
 895 1169 895 1169 946 1243 c 128,-1,30
 997 1317 997 1317 1047.5 1389.5 c 128,-1,31
 1098 1462 1098 1462 1133 1513 c 1,32,33
 1146 1513 1146 1513 1160 1513 c 0,34,35
 1208 1513 1208 1513 1260 1508 c 0,36,37
 1328 1501 1328 1501 1399 1489 c 128,-1,38
 1470 1477 1470 1477 1540.5 1461.5 c 128,-1,39
 1611 1446 1611 1446 1677 1432 c 1,40,41
 1648 1389 1648 1389 1594 1300.5 c 128,-1,42
 1540 1212 1540 1212 1477.5 1112 c 128,-1,43
 1415 1012 1415 1012 1352.5 908.5 c 128,-1,44
 1290 805 1290 805 1247 727 c 1,45,46
 1288 631 1288 631 1340.5 546 c 128,-1,47
 1393 461 1393 461 1448 381 c 128,-1,48
 1503 301 1503 301 1558.5 221 c 128,-1,49
 1614 141 1614 141 1659 53 c 1,50,51
 1610 37 1610 37 1533 21.5 c 128,-1,52
 1456 6 1456 6 1376 -3 c 128,-1,53
 1296 -12 1296 -12 1223.5 -18.5 c 128,-1,54
 1151 -25 1151 -25 1108 -29 c 1,55,56
 1042 55 1042 55 983 138 c 128,-1,57
 924 221 924 221 875.5 291.5 c 128,-1,58
 827 362 827 362 791.5 416.5 c 128,-1,59
 756 471 756 471 733 496 c 1,60,61
 715 506 715 506 702 506 c 0,62,63
 692 506 692 506 683 500 c 128,-1,64
 674 494 674 494 674 469 c 0,65,66
 674 430 674 430 675 371.5 c 128,-1,67
 676 313 676 313 676 249.5 c 128,-1,68
 676 186 676 186 675 121.5 c 128,-1,69
 674 57 674 57 670 8 c 1,70,71
 641 -6 641 -6 563 -14.5 c 128,-1,72
 485 -23 485 -23 397 -28 c 128,-1,73
 309 -33 309 -33 230.5 -33 c 128,-1,74
 152 -33 152 -33 119 -25 c 1,75,76
 110 67 110 67 106 228 c 0,77,78
 102 360 102 360 103 513 c 0,79,80
 103 547 103 547 103 582 c 0,0,1
EndSplineSet
Validated: 33
EndChar

StartChar: l
Encoding: 108 108 79
Width: 905
GlyphClass: 2
Flags: W
LayerCount: 3
Fore
SplineSet
157 1602 m 0,0,1
 158 1754 158 1754 164 1847 c 1,2,3
 180 1853 180 1853 223 1860.5 c 128,-1,4
 266 1868 266 1868 324.5 1872 c 128,-1,5
 383 1876 383 1876 449.5 1877 c 128,-1,6
 516 1878 516 1878 578 1879 c 0,7,8
 598 1879 598 1879 617 1879 c 0,9,10
 655 1879 655 1879 689 1878 c 0,11,12
 739 1876 739 1876 764 1874 c 1,13,14
 762 1778 762 1778 760 1612 c 128,-1,15
 758 1446 758 1446 757 1253.5 c 128,-1,16
 756 1061 756 1061 756 856 c 128,-1,17
 756 651 756 651 756 476 c 128,-1,18
 756 301 756 301 756 173 c 128,-1,19
 756 45 756 45 756 4 c 1,20,21
 686 -4 686 -4 640 -9 c 128,-1,22
 594 -14 594 -14 538 -15 c 0,23,24
 527 -15 527 -15 515 -15 c 0,25,26
 466 -15 466 -15 404 -12 c 0,27,28
 326 -8 326 -8 188 -2 c 1,29,30
 186 78 186 78 182 220 c 128,-1,31
 178 362 178 362 174 536.5 c 128,-1,32
 170 711 170 711 165 902.5 c 128,-1,33
 160 1094 160 1094 158 1272 c 0,34,35
 157 1391 157 1391 157 1498 c 0,36,37
 157 1552 157 1552 157 1602 c 0,0,1
EndSplineSet
Validated: 1
EndChar

StartChar: m
Encoding: 109 109 80
Width: 2275
GlyphClass: 2
Flags: W
LayerCount: 3
Fore
SplineSet
76 -39 m 1,0,1
 75 11 75 11 75 71 c 0,2,3
 75 130 75 130 76 200 c 0,4,5
 78 340 78 340 84 490.5 c 128,-1,6
 90 641 90 641 98 794.5 c 128,-1,7
 106 948 106 948 114.5 1081 c 128,-1,8
 123 1214 123 1214 131 1316.5 c 128,-1,9
 139 1419 139 1419 145 1464 c 1,10,11
 198 1480 198 1480 268 1492.5 c 128,-1,12
 338 1505 338 1505 412.5 1514.5 c 128,-1,13
 487 1524 487 1524 562 1530 c 128,-1,14
 637 1536 637 1536 698.5 1540 c 128,-1,15
 760 1544 760 1544 803 1544 c 128,-1,16
 846 1544 846 1544 856 1542 c 1,17,18
 903 1413 903 1413 943 1284 c 128,-1,19
 983 1155 983 1155 1042 1038 c 0,20,21
 1052 1013 1052 1013 1079 1002 c 128,-1,22
 1106 991 1106 991 1130 1008 c 0,23,24
 1140 1016 1140 1016 1161 1054 c 128,-1,25
 1182 1092 1182 1092 1208.5 1147 c 128,-1,26
 1235 1202 1235 1202 1263.5 1264.5 c 128,-1,27
 1292 1327 1292 1327 1317.5 1385.5 c 128,-1,28
 1343 1444 1343 1444 1362.5 1489 c 128,-1,29
 1382 1534 1382 1534 1391 1554 c 1,30,31
 1446 1568 1446 1568 1540 1574.5 c 128,-1,32
 1634 1581 1634 1581 1738 1582 c 0,33,34
 1755 1582 1755 1582 1772 1582 c 0,35,36
 1858 1582 1858 1582 1940 1578 c 0,37,38
 2040 1573 2040 1573 2105 1563 c 1,39,40
 2125 1174 2125 1174 2138.5 788.5 c 128,-1,41
 2152 403 2152 403 2177 2 c 1,42,43
 2136 -16 2136 -16 2066.5 -25.5 c 128,-1,44
 1997 -35 1997 -35 1917 -37 c 0,45,46
 1894 -38 1894 -38 1871 -38 c 0,47,48
 1813 -38 1813 -38 1754 -34 c 0,49,50
 1671 -29 1671 -29 1602 -25 c 1,51,52
 1600 2 1600 2 1596.5 60.5 c 128,-1,53
 1593 119 1593 119 1588 189.5 c 128,-1,54
 1583 260 1583 260 1579 337 c 128,-1,55
 1575 414 1575 414 1570 478.5 c 128,-1,56
 1565 543 1565 543 1562 589 c 128,-1,57
 1559 635 1559 635 1556 641 c 0,58,59
 1542 684 1542 684 1516.5 679 c 128,-1,60
 1491 674 1491 674 1479 647 c 0,61,62
 1456 602 1456 602 1419 527.5 c 128,-1,63
 1382 453 1382 453 1339 364.5 c 128,-1,64
 1296 276 1296 276 1251 182 c 128,-1,65
 1206 88 1206 88 1163 2 c 1,66,67
 1110 2 1110 2 1059 1 c 0,68,69
 1053 1 1053 1 1048 1 c 0,70,71
 1003 1 1003 1 956 8 c 1,72,73
 907 86 907 86 864 171 c 128,-1,74
 821 256 821 256 784.5 336 c 128,-1,75
 748 416 748 416 718 488.5 c 128,-1,76
 688 561 688 561 666 614 c 0,77,78
 656 637 656 637 631 644 c 128,-1,79
 606 651 606 651 590 625 c 0,80,81
 582 611 582 611 574.5 561.5 c 128,-1,82
 567 512 567 512 563 447.5 c 128,-1,83
 559 383 559 383 556 308 c 128,-1,84
 553 233 553 233 551 166.5 c 128,-1,85
 549 100 549 100 548 47 c 128,-1,86
 547 -6 547 -6 547 -29 c 1,87,88
 430 -49 430 -49 318 -50 c 0,89,90
 309 -50 309 -50 300 -50 c 0,91,92
 195 -50 195 -50 76 -39 c 1,0,1
EndSplineSet
Validated: 1
EndChar

StartChar: n
Encoding: 110 110 81
Width: 1904
GlyphClass: 2
Flags: W
LayerCount: 3
Fore
SplineSet
106 956.5 m 128,-1,1
 106 1098 106 1098 108.5 1227 c 128,-1,2
 111 1356 111 1356 115 1452 c 1,3,4
 125 1462 125 1462 178 1471.5 c 128,-1,5
 231 1481 231 1481 308 1491 c 128,-1,6
 385 1501 385 1501 475 1508.5 c 128,-1,7
 565 1516 565 1516 649 1521 c 128,-1,8
 733 1526 733 1526 802.5 1526 c 128,-1,9
 872 1526 872 1526 905 1520 c 1,10,11
 964 1354 964 1354 1037 1194 c 128,-1,12
 1110 1034 1110 1034 1182 874 c 0,13,14
 1188 860 1188 860 1202.5 851 c 128,-1,15
 1217 842 1217 842 1233 845 c 128,-1,16
 1249 848 1249 848 1263.5 861 c 128,-1,17
 1278 874 1278 874 1286 901 c 0,18,19
 1288 911 1288 911 1291 980 c 128,-1,20
 1294 1049 1294 1049 1296 1140 c 128,-1,21
 1298 1231 1298 1231 1301.5 1322 c 128,-1,22
 1305 1413 1305 1413 1307 1464 c 1,23,24
 1424 1491 1424 1491 1542 1499 c 0,25,26
 1601 1503 1601 1503 1660.5 1503 c 128,-1,27
 1720 1503 1720 1503 1780 1499 c 1,28,29
 1783 1259 1783 1259 1783 1017 c 0,30,31
 1783 896 1783 896 1782 776 c 0,32,33
 1780 412 1780 412 1769 53 c 1,34,35
 1710 45 1710 45 1628 36 c 128,-1,36
 1546 27 1546 27 1451 16.5 c 128,-1,37
 1356 6 1356 6 1253.5 0 c 128,-1,38
 1151 -6 1151 -6 1049 -8 c 1,39,40
 949 139 949 139 867.5 300 c 128,-1,41
 786 461 786 461 715 627 c 0,42,43
 707 645 707 645 689.5 654.5 c 128,-1,44
 672 664 672 664 653.5 660.5 c 128,-1,45
 635 657 635 657 619.5 643 c 128,-1,46
 604 629 604 629 600 598 c 0,47,48
 586 474 586 474 583 330 c 0,49,50
 582 297 582 297 582 262 c 0,51,52
 582 146 582 146 590 12 c 1,53,54
 480 -17 480 -17 368 -21 c 0,55,56
 349 -22 349 -22 328 -22 c 0,57,58
 235 -22 235 -22 135 -6 c 1,59,60
 127 55 127 55 121 160.5 c 128,-1,61
 115 266 115 266 112 397 c 128,-1,62
 109 528 109 528 107.5 671.5 c 128,-1,0
 106 815 106 815 106 956.5 c 128,-1,1
EndSplineSet
Validated: 1
EndChar

StartChar: o
Encoding: 111 111 82
Width: 1802
GlyphClass: 2
Flags: W
LayerCount: 3
Fore
SplineSet
82 550 m 128,-1,1
 82 666 82 666 82 781.5 c 128,-1,2
 82 897 82 897 85 1005.5 c 128,-1,3
 88 1114 88 1114 92 1196 c 1,4,5
 117 1221 117 1221 156 1264 c 128,-1,6
 195 1307 195 1307 237 1351 c 128,-1,7
 279 1395 279 1395 317.5 1432.5 c 128,-1,8
 356 1470 356 1470 383 1487 c 1,9,10
 477 1493 477 1493 609 1504 c 0,11,12
 742 1516 742 1516 884 1522 c 0,13,14
 991 1526 991 1526 1095 1526 c 0,15,16
 1130 1526 1130 1526 1164 1526 c 0,17,18
 1302 1524 1302 1524 1409 1503 c 1,19,20
 1487 1442 1487 1442 1559.5 1343.5 c 128,-1,21
 1632 1245 1632 1245 1692 1159 c 1,22,23
 1698 1075 1698 1075 1703 951 c 128,-1,24
 1708 827 1708 827 1710 700 c 0,25,26
 1711 615 1711 615 1711 539 c 0,27,28
 1711 502 1711 502 1711 466 c 0,29,30
 1710 358 1710 358 1702 307 c 1,31,32
 1643 233 1643 233 1586.5 154.5 c 128,-1,33
 1530 76 1530 76 1464 2 c 1,34,35
 1366 -16 1366 -16 1217.5 -24.5 c 128,-1,36
 1069 -33 1069 -33 906 -33 c 128,-1,37
 743 -33 743 -33 583.5 -26.5 c 128,-1,38
 424 -20 424 -20 303 -6 c 1,39,40
 276 21 276 21 244.5 63.5 c 128,-1,41
 213 106 213 106 182.5 155.5 c 128,-1,42
 152 205 152 205 125 254 c 128,-1,43
 98 303 98 303 84 340 c 1,44,0
 82 434 82 434 82 550 c 128,-1,1
686 573.5 m 128,-1,46
 686 500 686 500 688 442.5 c 128,-1,47
 690 385 690 385 690 356 c 1,48,49
 734 336 734 336 790 331 c 0,50,51
 816 329 816 329 841 329 c 0,52,53
 872 329 872 329 904 332 c 0,54,55
 962 338 962 338 1012.5 356 c 128,-1,56
 1063 374 1063 374 1094 399 c 1,57,58
 1098 552 1098 552 1102 740 c 0,59,60
 1103 766 1103 766 1103 792 c 0,61,62
 1103 955 1103 955 1081 1124 c 1,63,64
 1028 1122 1028 1122 980 1121 c 128,-1,65
 932 1120 932 1120 888 1116 c 128,-1,66
 844 1112 844 1112 801 1103 c 128,-1,67
 758 1094 758 1094 713 1073 c 1,68,69
 703 1053 703 1053 697.5 1000.5 c 128,-1,70
 692 948 692 948 689 877.5 c 128,-1,71
 686 807 686 807 686 727 c 128,-1,45
 686 647 686 647 686 573.5 c 128,-1,46
EndSplineSet
Validated: 1
EndChar

StartChar: p
Encoding: 112 112 83
Width: 1851
GlyphClass: 2
Flags: W
LayerCount: 3
Fore
SplineSet
143 604 m 128,-1,1
 143 786 143 786 144 954 c 128,-1,2
 145 1122 145 1122 151.5 1264.5 c 128,-1,3
 158 1407 158 1407 166 1505 c 1,4,5
 213 1519 213 1519 309.5 1529.5 c 128,-1,6
 406 1540 406 1540 525.5 1545 c 128,-1,7
 645 1550 645 1550 777 1551 c 0,8,9
 843 1552 843 1552 906.5 1552 c 128,-1,10
 970 1552 970 1552 1032 1551 c 0,11,12
 1155 1550 1155 1550 1256.5 1546 c 128,-1,13
 1358 1542 1358 1542 1413 1536 c 1,14,15
 1489 1452 1489 1452 1541 1367 c 128,-1,16
 1593 1282 1593 1282 1630 1192 c 128,-1,17
 1667 1102 1667 1102 1692.5 1001.5 c 128,-1,18
 1718 901 1718 901 1743 786 c 1,19,20
 1739 749 1739 749 1707 681.5 c 128,-1,21
 1675 614 1675 614 1628 540.5 c 128,-1,22
 1581 467 1581 467 1527 397.5 c 128,-1,23
 1473 328 1473 328 1423 285 c 1,24,25
 1335 258 1335 258 1237 234.5 c 128,-1,26
 1139 211 1139 211 1040.5 193.5 c 128,-1,27
 942 176 942 176 852 164 c 128,-1,28
 762 152 762 152 690 147 c 1,29,30
 690 90 690 90 692 23.5 c 128,-1,31
 694 -43 694 -43 696 -109.5 c 128,-1,32
 698 -176 698 -176 699 -240 c 0,33,34
 699 -253 699 -253 699 -266 c 0,35,36
 699 -316 699 -316 696 -362 c 1,37,38
 645 -368 645 -368 577.5 -374.5 c 128,-1,39
 510 -381 510 -381 438.5 -385 c 128,-1,40
 367 -389 367 -389 295 -389 c 128,-1,41
 223 -389 223 -389 164 -385 c 1,42,43
 160 -256 160 -256 155 -94 c 128,-1,44
 150 68 150 68 146.5 245 c 128,-1,0
 143 422 143 422 143 604 c 128,-1,1
723 728 m 128,-1,46
 723 645 723 645 731 573 c 1,47,48
 742 572 742 572 755 572 c 0,49,50
 780 572 780 572 813 576 c 0,51,52
 864 584 864 584 920.5 602.5 c 128,-1,53
 977 621 977 621 1030 650.5 c 128,-1,54
 1083 680 1083 680 1116 721 c 1,55,56
 1112 844 1112 844 1091.5 952.5 c 128,-1,57
 1071 1061 1071 1061 1053 1110 c 1,58,59
 1035 1137 1035 1137 995.5 1150 c 128,-1,60
 956 1163 956 1163 912 1167 c 0,61,62
 892 1169 892 1169 873 1169 c 0,63,64
 849 1169 849 1169 825 1166 c 0,65,66
 782 1161 782 1161 754 1149 c 1,67,68
 750 1106 750 1106 741.5 1036.5 c 128,-1,69
 733 967 733 967 728 889 c 128,-1,45
 723 811 723 811 723 728 c 128,-1,46
EndSplineSet
Validated: 1
EndChar

StartChar: q
Encoding: 113 113 84
Width: 1847
GlyphClass: 2
Flags: W
LayerCount: 3
Fore
SplineSet
94 639 m 1,0,1
 100 725 100 725 117.5 847 c 128,-1,2
 135 969 135 969 160.5 1086.5 c 128,-1,3
 186 1204 186 1204 218 1301.5 c 128,-1,4
 250 1399 250 1399 285 1434 c 1,5,6
 334 1442 334 1442 414 1456 c 128,-1,7
 494 1470 494 1470 588 1483.5 c 128,-1,8
 682 1497 682 1497 780.5 1509.5 c 128,-1,9
 879 1522 879 1522 967 1526 c 0,10,11
 1143 1536 1143 1536 1306 1536 c 0,12,13
 1333 1536 1333 1536 1360 1536 c 0,14,15
 1548 1534 1548 1534 1704 1495 c 1,16,17
 1712 1434 1712 1434 1715 1309 c 128,-1,18
 1718 1184 1718 1184 1718 1024 c 128,-1,19
 1718 864 1718 864 1716 679 c 128,-1,20
 1714 494 1714 494 1711 308.5 c 128,-1,21
 1708 123 1708 123 1704 -49 c 128,-1,22
 1700 -221 1700 -221 1698 -356 c 1,23,24
 1630 -376 1630 -376 1551.5 -395 c 128,-1,25
 1473 -414 1473 -414 1393 -424 c 128,-1,26
 1313 -434 1313 -434 1241 -439 c 0,27,28
 1201 -442 1201 -442 1167 -442 c 0,29,30
 1141 -442 1141 -442 1118 -440 c 1,31,32
 1122 -393 1122 -393 1125 -305 c 128,-1,33
 1128 -217 1128 -217 1129 -122 c 128,-1,34
 1130 -27 1130 -27 1132 52 c 0,35,36
 1132 70 1132 70 1132 86 c 0,37,38
 1132 137 1132 137 1128 158 c 1,39,40
 1093 150 1093 150 1023.5 143.5 c 128,-1,41
 954 137 954 137 871 132 c 128,-1,42
 788 127 788 127 703 125 c 128,-1,43
 618 123 618 123 557 123 c 1,44,45
 500 146 500 146 432.5 202 c 128,-1,46
 365 258 365 258 300.5 332 c 128,-1,47
 236 406 236 406 181.5 486.5 c 128,-1,48
 127 567 127 567 94 639 c 1,0,1
757 743 m 0,49,50
 757 718 757 718 757 694 c 0,51,52
 757 647 757 647 758 606 c 1,53,54
 778 588 778 588 823 576.5 c 128,-1,55
 868 565 868 565 922 561 c 0,56,57
 945 559 945 559 969 559 c 0,58,59
 999 559 999 559 1028 562 c 0,60,61
 1081 567 1081 567 1118 582 c 1,62,63
 1128 654 1128 654 1130 738 c 0,64,65
 1132 779 1132 779 1132 820 c 128,-1,66
 1132 861 1132 861 1130 901 c 0,67,68
 1128 981 1128 981 1124 1048.5 c 128,-1,69
 1120 1116 1120 1116 1114 1155 c 1,70,71
 1081 1163 1081 1163 1041 1163 c 128,-1,72
 1001 1163 1001 1163 961.5 1157 c 128,-1,73
 922 1151 922 1151 885 1142 c 128,-1,74
 848 1133 848 1133 819 1122 c 1,75,76
 799 1089 799 1089 785.5 1028 c 128,-1,77
 772 967 772 967 765 893 c 128,-1,78
 758 819 758 819 757 743 c 0,49,50
EndSplineSet
Validated: 1
EndChar

StartChar: r
Encoding: 114 114 85
Width: 1798
GlyphClass: 2
Flags: W
LayerCount: 3
Fore
SplineSet
127 772 m 0,0,1
 126 841 126 841 126 906 c 0,2,3
 126 1004 126 1004 128 1094 c 0,4,5
 131 1244 131 1244 138 1358.5 c 128,-1,6
 145 1473 145 1473 158 1518 c 1,7,8
 209 1532 209 1532 302 1540 c 128,-1,9
 395 1548 395 1548 510 1551 c 0,10,11
 568 1553 568 1553 629 1552.5 c 128,-1,12
 690 1552 690 1552 754 1551 c 0,13,14
 883 1548 883 1548 1006.5 1542 c 128,-1,15
 1130 1536 1130 1536 1239 1528 c 128,-1,16
 1348 1520 1348 1520 1421 1507 c 1,17,18
 1474 1462 1474 1462 1529.5 1392.5 c 128,-1,19
 1585 1323 1585 1323 1627 1235 c 0,20,21
 1670 1146 1670 1146 1692 1044 c 0,22,23
 1708 973 1708 973 1707 900 c 0,24,25
 1707 867 1707 867 1704 834 c 1,26,27
 1663 785 1663 785 1590.5 710 c 128,-1,28
 1518 635 1518 635 1436 563 c 1,29,30
 1461 526 1461 526 1502.5 451.5 c 128,-1,31
 1544 377 1544 377 1588 297 c 128,-1,32
 1632 217 1632 217 1668 148.5 c 128,-1,33
 1704 80 1704 80 1714 57 c 1,34,35
 1683 41 1683 41 1618.5 22.5 c 128,-1,36
 1554 4 1554 4 1477.5 -12.5 c 128,-1,37
 1401 -29 1401 -29 1321 -40 c 128,-1,38
 1241 -51 1241 -51 1178 -53 c 1,39,40
 1135 -6 1135 -6 1100 36 c 128,-1,41
 1065 78 1065 78 1031 121 c 128,-1,42
 997 164 997 164 964.5 208 c 128,-1,43
 932 252 932 252 891 303 c 0,44,45
 877 323 877 323 859.5 342.5 c 128,-1,46
 842 362 842 362 823.5 377.5 c 128,-1,47
 805 393 805 393 785.5 401.5 c 128,-1,48
 766 410 766 410 743 401 c 0,49,50
 716 391 716 391 710.5 360.5 c 128,-1,51
 705 330 705 330 706 303 c 0,52,53
 706 225 706 225 706 145.5 c 128,-1,54
 706 66 706 66 702 -14 c 1,55,56
 665 -24 665 -24 606 -32.5 c 128,-1,57
 547 -41 547 -41 475 -47 c 128,-1,58
 403 -53 403 -53 320.5 -53 c 128,-1,59
 238 -53 238 -53 154 -45 c 1,60,61
 148 23 148 23 142.5 153 c 128,-1,62
 137 283 137 283 133 441.5 c 128,-1,63
 129 600 129 600 127 772 c 0,0,1
700 955.5 m 128,-1,65
 700 903 700 903 703.5 855 c 128,-1,66
 707 807 707 807 713 774 c 1,67,68
 752 774 752 774 804 779 c 128,-1,69
 856 784 856 784 910.5 794.5 c 128,-1,70
 965 805 965 805 1013 823 c 128,-1,71
 1061 841 1061 841 1092 870 c 1,72,73
 1094 886 1094 886 1094 903 c 0,74,75
 1094 922 1094 922 1092 943 c 0,76,77
 1088 983 1088 983 1080.5 1022 c 128,-1,78
 1073 1061 1073 1061 1066 1089.5 c 128,-1,79
 1059 1118 1059 1118 1057 1128 c 1,80,81
 1037 1148 1037 1148 988.5 1161 c 128,-1,82
 940 1174 940 1174 886 1179 c 0,83,84
 856 1182 856 1182 827 1182 c 0,85,86
 804 1182 804 1182 782 1180 c 0,87,88
 733 1176 733 1176 709 1161 c 1,89,90
 705 1116 705 1116 702.5 1062 c 128,-1,64
 700 1008 700 1008 700 955.5 c 128,-1,65
EndSplineSet
Validated: 33
EndChar

StartChar: s
Encoding: 115 115 86
Width: 1529
GlyphClass: 2
Flags: W
LayerCount: 3
Fore
SplineSet
74 664 m 1,0,1
 72 705 72 705 72 746 c 0,2,3
 72 892 72 892 100 1038 c 0,4,5
 136 1226 136 1226 219 1393 c 1,6,7
 352 1438 352 1438 496.5 1469.5 c 128,-1,8
 641 1501 641 1501 788.5 1519.5 c 128,-1,9
 936 1538 936 1538 1082 1545 c 0,10,11
 1175 1549 1175 1549 1267 1549 c 0,12,13
 1319 1549 1319 1549 1370 1548 c 1,14,15
 1397 1468 1397 1468 1403 1373 c 0,16,17
 1408 1302 1408 1302 1408 1238 c 0,18,19
 1408 1217 1408 1217 1407 1196 c 1,20,21
 1249 1173 1249 1173 1092.5 1160 c 128,-1,22
 936 1147 936 1147 778 1120 c 1,23,24
 745 1073 745 1073 737 1018 c 128,-1,25
 729 963 729 963 727 907 c 1,26,27
 897 876 897 876 1065 850.5 c 128,-1,28
 1233 825 1233 825 1405 799 c 1,29,30
 1438 729 1438 729 1448 646 c 0,31,32
 1454 600 1454 600 1454 553 c 0,33,34
 1454 516 1454 516 1450 478 c 0,35,36
 1442 393 1442 393 1416.5 312 c 128,-1,37
 1391 231 1391 231 1352 166 c 1,38,39
 1221 105 1221 105 1077.5 61.5 c 128,-1,40
 934 18 934 18 787.5 -10.5 c 128,-1,41
 641 -39 641 -39 493.5 -60.5 c 128,-1,42
 346 -82 346 -82 203 -96 c 1,43,44
 185 -86 185 -86 171.5 -35 c 128,-1,45
 158 16 158 16 150 76 c 0,46,47
 141 136 141 136 137 194 c 0,48,49
 134 232 134 232 134 255 c 0,50,51
 134 266 134 266 135 274 c 1,52,53
 213 280 213 280 306 289.5 c 128,-1,54
 399 299 399 299 487 314.5 c 128,-1,55
 575 330 575 330 650 348.5 c 128,-1,56
 725 367 725 367 764 383 c 1,57,58
 772 408 772 408 776 446 c 0,59,60
 778 465 778 465 778 483.5 c 128,-1,61
 778 502 778 502 776 518 c 1,62,63
 753 534 753 534 702 544.5 c 128,-1,64
 651 555 651 555 584.5 565 c 128,-1,65
 518 575 518 575 442.5 583.5 c 128,-1,66
 367 592 367 592 296 602 c 128,-1,67
 225 612 225 612 167 626.5 c 128,-1,68
 109 641 109 641 74 664 c 1,0,1
EndSplineSet
Validated: 1
EndChar

StartChar: t
Encoding: 116 116 87
Width: 1609
GlyphClass: 2
Flags: W
LayerCount: 3
Fore
SplineSet
37 934 m 1,0,1
 35 971 35 971 35 1010 c 0,2,3
 35 1068 35 1068 40 1132 c 0,4,5
 49 1238 49 1238 78 1337 c 1,6,7
 141 1364 141 1364 483 1382 c 1,8,9
 483 1431 483 1431 484 1498 c 128,-1,10
 485 1565 485 1565 486 1633.5 c 128,-1,11
 487 1702 487 1702 489.5 1766.5 c 128,-1,12
 492 1831 492 1831 494 1874 c 1,13,14
 553 1886 553 1886 632 1892 c 128,-1,15
 711 1898 711 1898 791.5 1901.5 c 128,-1,16
 872 1905 872 1905 950 1905 c 128,-1,17
 1028 1905 1028 1905 1088 1905 c 1,18,19
 1088 1856 1088 1856 1088 1788 c 128,-1,20
 1088 1720 1088 1720 1086.5 1648.5 c 128,-1,21
 1085 1577 1085 1577 1084 1510.5 c 128,-1,22
 1083 1444 1083 1444 1083 1395 c 1,23,24
 1165 1395 1165 1395 1243 1395 c 128,-1,25
 1321 1395 1321 1395 1385.5 1394 c 128,-1,26
 1450 1393 1450 1393 1497.5 1390.5 c 128,-1,27
 1545 1388 1545 1388 1565 1382 c 1,28,29
 1569 1345 1569 1345 1569 1296 c 128,-1,30
 1569 1247 1569 1247 1566 1198 c 128,-1,31
 1563 1149 1563 1149 1556.5 1105 c 128,-1,32
 1550 1061 1550 1061 1544 1032 c 1,33,34
 1495 1026 1495 1026 1434.5 1022 c 128,-1,35
 1374 1018 1374 1018 1312.5 1014 c 128,-1,36
 1251 1010 1251 1010 1190.5 1008 c 128,-1,37
 1130 1006 1130 1006 1081 1001 c 1,38,39
 1067 940 1067 940 1061 820 c 128,-1,40
 1055 700 1055 700 1052 558 c 0,41,42
 1050 452 1050 452 1050 344 c 0,43,44
 1050 308 1050 308 1050 272 c 0,45,46
 1051 128 1051 128 1053 18 c 1,47,48
 914 0 914 0 774 -22 c 0,49,50
 684 -36 684 -36 596 -35 c 0,51,52
 546 -35 546 -35 496 -31 c 1,53,54
 480 137 480 137 472 255 c 0,55,56
 465 372 465 372 463 478 c 0,57,58
 462 531 462 531 462 585 c 0,59,60
 462 640 462 640 463 694 c 0,61,62
 465 804 465 804 465 952 c 1,63,64
 410 957 410 957 353 957 c 0,65,66
 301 957 301 957 248 953 c 0,67,68
 135 944 135 944 37 934 c 1,0,1
EndSplineSet
Validated: 33
EndChar

StartChar: u
Encoding: 117 117 88
Width: 1777
GlyphClass: 2
Flags: W
LayerCount: 3
Fore
SplineSet
110 1118 m 0,0,1
 111 1222 111 1222 114 1307.5 c 128,-1,2
 117 1393 117 1393 125 1444 c 1,3,4
 272 1462 272 1462 410 1465 c 0,5,6
 430 1465 430 1465 450 1465 c 0,7,8
 571 1465 571 1465 707 1450 c 1,9,10
 695 1292 695 1292 691 1155 c 0,11,12
 687 1043 687 1043 687 938 c 0,13,14
 687 915 687 915 687 892 c 0,15,16
 688 766 688 766 694 650.5 c 128,-1,17
 700 535 700 535 709 420 c 1,18,19
 746 406 746 406 799 400 c 0,20,21
 835 396 835 396 872 395 c 0,22,23
 888 395 888 395 906 396 c 0,24,25
 960 399 960 399 1010.5 415.5 c 128,-1,26
 1061 432 1061 432 1094 459 c 1,27,28
 1094 578 1094 578 1092 707 c 128,-1,29
 1090 836 1090 836 1088.5 966 c 128,-1,30
 1087 1096 1087 1096 1087 1221 c 128,-1,31
 1087 1346 1087 1346 1090 1452 c 1,32,33
 1237 1481 1237 1481 1383 1481 c 128,-1,34
 1529 1481 1529 1481 1683 1485 c 1,35,36
 1681 1358 1681 1358 1677 1208.5 c 128,-1,37
 1673 1059 1673 1059 1671 906.5 c 128,-1,38
 1669 754 1669 754 1669 611.5 c 128,-1,39
 1669 469 1669 469 1673 356 c 1,40,41
 1661 319 1661 319 1635.5 275 c 128,-1,42
 1610 231 1610 231 1577 184 c 128,-1,43
 1544 137 1544 137 1509.5 93 c 128,-1,44
 1475 49 1475 49 1444 14 c 1,45,46
 1340 12 1340 12 1200.5 6 c 128,-1,47
 1061 0 1061 0 910.5 -5 c 128,-1,48
 760 -10 760 -10 611.5 -10 c 128,-1,49
 463 -10 463 -10 338 0 c 1,50,51
 313 25 313 25 280.5 67 c 128,-1,52
 248 109 248 109 216 156 c 128,-1,53
 184 203 184 203 158.5 250 c 128,-1,54
 133 297 133 297 121 332 c 1,55,56
 121 393 121 393 119 485.5 c 128,-1,57
 117 578 117 578 115 684 c 256,58,59
 113 790 113 790 111 902 c 0,60,61
 110 976 110 976 110 1048 c 0,62,63
 110 1084 110 1084 110 1118 c 0,0,1
EndSplineSet
Validated: 1
EndChar

StartChar: v
Encoding: 118 118 89
Width: 1691
GlyphClass: 2
Flags: W
LayerCount: 3
Fore
SplineSet
61 1464 m 1,0,1
 129 1472 129 1472 215 1481.5 c 128,-1,2
 301 1491 301 1491 379 1500 c 0,3,4
 457 1508 457 1508 516 1512 c 0,5,6
 536 1513 536 1513 550 1514 c 0,7,8
 580 1514 580 1514 590 1509 c 1,9,10
 602 1437 602 1437 624.5 1334 c 128,-1,11
 647 1231 647 1231 672.5 1128.5 c 128,-1,12
 698 1026 698 1026 720.5 939 c 128,-1,13
 743 852 743 852 752 815 c 0,14,15
 754 809 754 809 762 787.5 c 128,-1,16
 770 766 770 766 780.5 744.5 c 128,-1,17
 791 723 791 723 803 706.5 c 128,-1,18
 815 690 815 690 823 690 c 0,19,20
 839 690 839 690 851.5 700.5 c 128,-1,21
 864 711 864 711 873.5 725 c 128,-1,22
 883 739 883 739 890 755.5 c 128,-1,23
 897 772 897 772 899 780 c 0,24,25
 952 958 952 958 1021 1144.5 c 128,-1,26
 1090 1331 1090 1331 1151 1505 c 1,27,28
 1226 1513 1226 1513 1295 1513 c 0,29,30
 1309 1513 1309 1513 1322 1513 c 0,31,32
 1403 1511 1403 1511 1467.5 1502 c 128,-1,33
 1532 1493 1532 1493 1578 1482.5 c 128,-1,34
 1624 1472 1624 1472 1642 1464 c 1,35,36
 1579 1302 1579 1302 1506.5 1121 c 128,-1,37
 1434 940 1434 940 1358 751.5 c 128,-1,38
 1282 563 1282 563 1207.5 373.5 c 128,-1,39
 1133 184 1133 184 1065 4 c 1,40,41
 999 -2 999 -2 922.5 -8 c 128,-1,42
 846 -14 846 -14 767 -18.5 c 128,-1,43
 688 -23 688 -23 611.5 -23 c 128,-1,44
 535 -23 535 -23 467 -20 c 1,45,46
 410 125 410 125 347.5 322.5 c 128,-1,47
 285 520 285 520 228.5 729 c 128,-1,48
 172 938 172 938 127 1132.5 c 128,-1,49
 82 1327 82 1327 61 1464 c 1,0,1
EndSplineSet
Validated: 1
EndChar

StartChar: w
Encoding: 119 119 90
Width: 2410
GlyphClass: 2
Flags: W
LayerCount: 3
Fore
SplineSet
72 1485 m 1,0,1
 205 1504 205 1504 342 1514 c 0,2,3
 383 1517 383 1517 424 1517 c 0,4,5
 523 1517 523 1517 627 1499 c 1,6,7
 662 1339 662 1339 690.5 1180.5 c 128,-1,8
 719 1022 719 1022 748 860 c 0,9,10
 750 852 750 852 757 846 c 128,-1,11
 764 840 764 840 773 839 c 128,-1,12
 782 838 782 838 790.5 839 c 128,-1,13
 799 840 799 840 801 848 c 0,14,15
 830 911 830 911 859.5 1000.5 c 128,-1,16
 889 1090 889 1090 918.5 1183 c 128,-1,17
 948 1276 948 1276 974.5 1364 c 128,-1,18
 1001 1452 1001 1452 1024 1516 c 1,19,20
 1151 1528 1151 1528 1283 1532 c 0,21,22
 1305 1533 1305 1533 1327 1533 c 0,23,24
 1436 1533 1436 1533 1540 1516 c 1,25,26
 1595 1356 1595 1356 1650.5 1200 c 128,-1,27
 1706 1044 1706 1044 1759 883 c 0,28,29
 1763 873 1763 873 1771.5 864.5 c 128,-1,30
 1780 856 1780 856 1790 857 c 128,-1,31
 1800 858 1800 858 1809.5 872.5 c 128,-1,32
 1819 887 1819 887 1825 924 c 0,33,34
 1848 1071 1848 1071 1868 1223.5 c 128,-1,35
 1888 1376 1888 1376 1907 1528 c 1,36,37
 1994 1545 1994 1545 2090 1545 c 0,38,39
 2109 1545 2109 1545 2129 1544 c 0,40,41
 2247 1540 2247 1540 2372 1528 c 1,42,43
 2366 1413 2366 1413 2349.5 1276 c 128,-1,44
 2333 1139 2333 1139 2311.5 993.5 c 128,-1,45
 2290 848 2290 848 2265.5 704.5 c 128,-1,46
 2241 561 2241 561 2216 430 c 128,-1,47
 2191 299 2191 299 2168.5 190.5 c 128,-1,48
 2146 82 2146 82 2130 8 c 1,49,50
 2032 0 2032 0 1941.5 -4 c 128,-1,51
 1851 -8 1851 -8 1763 -11 c 128,-1,52
 1675 -14 1675 -14 1588 -14 c 128,-1,53
 1501 -14 1501 -14 1405 -14 c 1,54,55
 1401 0 1401 0 1393.5 42 c 128,-1,56
 1386 84 1386 84 1376 141.5 c 128,-1,57
 1366 199 1366 199 1353.5 263.5 c 128,-1,58
 1341 328 1341 328 1330 387 c 128,-1,59
 1319 446 1319 446 1309.5 493.5 c 128,-1,60
 1300 541 1300 541 1294 563 c 0,61,62
 1279 620 1279 620 1249 620 c 0,63,64
 1247 620 1247 620 1245 620 c 0,65,66
 1212 616 1212 616 1196 563 c 0,67,68
 1184 524 1184 524 1164.5 459.5 c 128,-1,69
 1145 395 1145 395 1122.5 316.5 c 128,-1,70
 1100 238 1100 238 1075.5 150.5 c 128,-1,71
 1051 63 1051 63 1028 -23 c 1,72,73
 928 -29 928 -29 842 -33 c 128,-1,74
 756 -37 756 -37 676 -37 c 128,-1,75
 596 -37 596 -37 515 -33 c 128,-1,76
 434 -29 434 -29 342 -25 c 1,77,78
 295 163 295 163 261 352 c 128,-1,79
 227 541 227 541 198.5 730.5 c 128,-1,80
 170 920 170 920 140.5 1107 c 128,-1,81
 111 1294 111 1294 72 1485 c 1,0,1
EndSplineSet
Validated: 1
EndChar

StartChar: x
Encoding: 120 120 91
Width: 1724
GlyphClass: 2
Flags: W
LayerCount: 3
Fore
SplineSet
41 -45 m 1,0,1
 74 35 74 35 121 133 c 128,-1,2
 168 231 168 231 224.5 333.5 c 128,-1,3
 281 436 281 436 342 538.5 c 128,-1,4
 403 641 403 641 467 731 c 1,5,6
 428 780 428 780 372.5 880.5 c 128,-1,7
 317 981 317 981 262 1095.5 c 128,-1,8
 207 1210 207 1210 162 1321 c 128,-1,9
 117 1432 117 1432 98 1497 c 1,10,11
 149 1503 149 1503 218 1511.5 c 128,-1,12
 287 1520 287 1520 360.5 1527 c 128,-1,13
 434 1534 434 1534 504 1538 c 0,14,15
 539 1540 539 1540 570.5 1540 c 128,-1,16
 602 1540 602 1540 629 1538 c 1,17,18
 678 1444 678 1444 726 1356 c 128,-1,19
 774 1268 774 1268 797 1219 c 0,20,21
 799 1213 799 1213 807 1200.5 c 128,-1,22
 815 1188 815 1188 826.5 1175.5 c 128,-1,23
 838 1163 838 1163 849 1154 c 128,-1,24
 860 1145 860 1145 870 1145 c 0,25,26
 899 1145 899 1145 917.5 1166.5 c 128,-1,27
 936 1188 936 1188 944 1200 c 0,28,29
 960 1231 960 1231 986 1271 c 128,-1,30
 1012 1311 1012 1311 1042.5 1358 c 128,-1,31
 1073 1405 1073 1405 1105 1453 c 128,-1,32
 1137 1501 1137 1501 1163 1542 c 1,33,34
 1228 1548 1228 1548 1294 1548 c 0,35,36
 1320 1548 1320 1548 1344 1547 c 0,37,38
 1434 1544 1434 1544 1509.5 1537 c 128,-1,39
 1585 1530 1585 1530 1639.5 1519.5 c 128,-1,40
 1694 1509 1694 1509 1714 1505 c 1,41,42
 1646 1390 1646 1390 1582 1289 c 128,-1,43
 1518 1188 1518 1188 1454.5 1096 c 128,-1,44
 1391 1004 1391 1004 1329.5 916.5 c 128,-1,45
 1268 829 1268 829 1208 741 c 1,46,47
 1257 657 1257 657 1318.5 559 c 128,-1,48
 1380 461 1380 461 1442.5 360.5 c 128,-1,49
 1505 260 1505 260 1566.5 164 c 128,-1,50
 1628 68 1628 68 1679 -8 c 1,51,52
 1611 -14 1611 -14 1525.5 -23.5 c 128,-1,53
 1440 -33 1440 -33 1360 -40 c 128,-1,54
 1280 -47 1280 -47 1220 -51 c 0,55,56
 1190 -53 1190 -53 1172 -53 c 128,-1,57
 1154 -53 1154 -53 1147 -51 c 1,58,59
 1122 -10 1122 -10 1090.5 41 c 128,-1,60
 1059 92 1059 92 1026 140 c 128,-1,61
 993 188 993 188 964.5 228 c 128,-1,62
 936 268 936 268 920 291 c 0,63,64
 912 299 912 299 900.5 317.5 c 128,-1,65
 889 336 889 336 868 336 c 0,66,67
 839 336 839 336 821 313.5 c 128,-1,68
 803 291 803 291 795 279 c 0,69,70
 742 203 742 203 682.5 115 c 128,-1,71
 623 27 623 27 584 -59 c 1,72,73
 494 -68 494 -68 404 -68 c 0,74,75
 395 -68 395 -68 387 -68 c 0,76,77
 308 -68 308 -68 242 -64 c 0,78,79
 168 -60 168 -60 114.5 -55.5 c 128,-1,80
 61 -51 61 -51 41 -45 c 1,0,1
EndSplineSet
Validated: 1
EndChar

StartChar: y
Encoding: 121 121 92
Width: 1777
GlyphClass: 2
Flags: W
LayerCount: 3
Fore
SplineSet
66 1497 m 1,0,1
 138 1503 138 1503 226.5 1509.5 c 128,-1,2
 315 1516 315 1516 398 1521 c 128,-1,3
 481 1526 481 1526 544 1528 c 0,4,5
 564 1529 564 1529 580 1529 c 0,6,7
 611 1529 611 1529 621 1526 c 1,8,9
 633 1483 633 1483 663.5 1420.5 c 128,-1,10
 694 1358 694 1358 728 1296.5 c 128,-1,11
 762 1235 762 1235 790.5 1184 c 128,-1,12
 819 1133 819 1133 829 1110 c 0,13,14
 831 1104 831 1104 839.5 1091.5 c 128,-1,15
 848 1079 848 1079 859 1066 c 128,-1,16
 870 1053 870 1053 882.5 1043.5 c 128,-1,17
 895 1034 895 1034 905 1034 c 0,18,19
 936 1034 936 1034 956.5 1055.5 c 128,-1,20
 977 1077 977 1077 983 1090 c 0,21,22
 1040 1194 1040 1194 1092.5 1306.5 c 128,-1,23
 1145 1419 1145 1419 1208 1522 c 1,24,25
 1293 1529 1293 1529 1370 1529 c 0,26,27
 1380 1529 1380 1529 1390 1529 c 0,28,29
 1475 1528 1475 1528 1542.5 1523 c 128,-1,30
 1610 1518 1610 1518 1658 1510.5 c 128,-1,31
 1706 1503 1706 1503 1726 1497 c 1,32,33
 1660 1405 1660 1405 1588 1287 c 128,-1,34
 1516 1169 1516 1169 1439 1044.5 c 128,-1,35
 1362 920 1362 920 1285 797 c 128,-1,36
 1208 674 1208 674 1137 567 c 1,37,38
 1133 413 1133 413 1128.5 273 c 128,-1,39
 1124 133 1124 133 1120 14 c 1,40,41
 1059 2 1059 2 990.5 -2 c 128,-1,42
 922 -6 922 -6 853 -6 c 128,-1,43
 784 -6 784 -6 716.5 -2 c 128,-1,44
 649 2 649 2 588 2 c 1,45,46
 588 149 588 149 584 293.5 c 128,-1,47
 580 438 580 438 575 586 c 1,48,49
 534 633 534 633 485 704.5 c 128,-1,50
 436 776 436 776 384 859 c 128,-1,51
 332 942 332 942 280.5 1034 c 128,-1,52
 229 1126 229 1126 185 1212 c 128,-1,53
 141 1298 141 1298 110.5 1372 c 128,-1,54
 80 1446 80 1446 66 1497 c 1,0,1
EndSplineSet
Validated: 1
EndChar

StartChar: z
Encoding: 122 122 93
Width: 1400
GlyphClass: 2
Flags: W
LayerCount: 3
Fore
SplineSet
70 232 m 0,0,1
 68 253 68 253 68 270.5 c 128,-1,2
 68 288 68 288 70 303 c 1,3,4
 154 414 154 414 246 543 c 128,-1,5
 338 672 338 672 425 797 c 128,-1,6
 512 922 512 922 584.5 1032.5 c 128,-1,7
 657 1143 657 1143 698 1217 c 1,8,9
 635 1220 635 1220 571 1220 c 0,10,11
 492 1220 492 1220 408 1216 c 0,12,13
 369 1214 369 1214 330 1214 c 0,14,15
 222 1214 222 1214 121 1229 c 1,16,17
 96 1308 96 1308 90 1384 c 0,18,19
 86 1430 86 1430 86 1479 c 0,20,21
 86 1512 86 1512 88 1546 c 1,22,23
 178 1552 178 1552 320 1564 c 0,24,25
 464 1577 464 1577 626 1584 c 0,26,27
 707 1588 707 1588 790.5 1588 c 128,-1,28
 874 1588 874 1588 959 1584 c 0,29,30
 1130 1577 1130 1577 1278 1542 c 1,31,32
 1280 1505 1280 1505 1283 1458 c 128,-1,33
 1286 1411 1286 1411 1288 1363 c 0,34,35
 1289 1339 1289 1339 1289 1315.5 c 128,-1,36
 1289 1292 1289 1292 1288 1269 c 0,37,38
 1286 1223 1286 1223 1280 1186 c 1,39,40
 1208 1049 1208 1049 1135.5 933 c 128,-1,41
 1063 817 1063 817 989 711.5 c 128,-1,42
 915 606 915 606 841.5 504.5 c 128,-1,43
 768 403 768 403 696 299 c 1,44,45
 757 291 757 291 838.5 291.5 c 128,-1,46
 920 292 920 292 1005 292 c 128,-1,47
 1090 292 1090 292 1171 292 c 128,-1,48
 1252 292 1252 292 1311 287 c 1,49,50
 1315 251 1315 251 1315 216 c 0,51,52
 1316 174 1316 174 1310 133 c 0,53,54
 1300 57 1300 57 1282 -20 c 1,55,56
 1139 -40 1139 -40 987.5 -46.5 c 128,-1,57
 836 -53 836 -53 686.5 -53 c 128,-1,58
 537 -53 537 -53 396.5 -48 c 128,-1,59
 256 -43 256 -43 137 -39 c 1,60,61
 121 0 121 0 106.5 48 c 128,-1,62
 92 96 92 96 83 143 c 128,-1,63
 74 190 74 190 70 232 c 0,0,1
EndSplineSet
Validated: 33
EndChar

StartChar: braceleft
Encoding: 123 123 94
Width: 1032
GlyphClass: 2
Flags: W
LayerCount: 3
Fore
SplineSet
94 950 m 1,0,1
 135 983 135 983 170 1020 c 0,2,3
 199 1051 199 1051 224.5 1088.5 c 128,-1,4
 250 1126 250 1126 254 1167 c 0,5,6
 264 1253 264 1253 247.5 1337 c 128,-1,7
 231 1421 231 1421 216 1499 c 128,-1,8
 201 1577 201 1577 202 1644.5 c 128,-1,9
 203 1712 203 1712 246 1761 c 0,10,11
 336 1863 336 1863 499 1908.5 c 128,-1,12
 662 1954 662 1954 866 1978 c 1,13,14
 878 1955 878 1955 894.5 1919.5 c 128,-1,15
 911 1884 911 1884 925.5 1843 c 128,-1,16
 940 1802 940 1802 949 1759 c 128,-1,17
 958 1716 958 1716 958 1679 c 1,18,19
 884 1671 884 1671 824 1635 c 128,-1,20
 764 1599 764 1599 723 1544 c 0,21,22
 707 1524 707 1524 716 1472.5 c 128,-1,23
 725 1421 725 1421 742.5 1357.5 c 128,-1,24
 760 1294 760 1294 776.5 1224.5 c 128,-1,25
 793 1155 793 1155 786 1094 c 0,26,27
 784 1065 784 1065 761.5 1040.5 c 128,-1,28
 739 1016 739 1016 713 997 c 0,29,30
 682 972 682 972 643 950 c 1,31,32
 678 905 678 905 705 866 c 0,33,34
 728 831 728 831 747 797.5 c 128,-1,35
 766 764 766 764 766 739 c 0,36,37
 766 665 766 665 745.5 597.5 c 128,-1,38
 725 530 725 530 705.5 474 c 128,-1,39
 686 418 686 418 675 377 c 128,-1,40
 664 336 664 336 680 313 c 0,41,42
 690 299 690 299 711.5 281.5 c 128,-1,43
 733 264 733 264 760.5 248.5 c 128,-1,44
 788 233 788 233 819 221 c 128,-1,45
 850 209 850 209 879 203 c 1,46,47
 871 105 871 105 848 19.5 c 128,-1,48
 825 -66 825 -66 795 -106 c 1,49,50
 727 -96 727 -96 646 -74.5 c 128,-1,51
 565 -53 565 -53 485.5 -23.5 c 128,-1,52
 406 6 406 6 334 40 c 128,-1,53
 262 74 262 74 213 104 c 0,54,55
 180 124 180 124 176 180 c 128,-1,56
 172 236 172 236 181 312.5 c 128,-1,57
 190 389 190 389 205.5 479 c 128,-1,58
 221 569 221 569 229 659 c 0,59,60
 233 694 233 694 213 742.5 c 128,-1,61
 193 791 193 791 166 838 c 0,62,63
 135 891 135 891 94 950 c 1,0,1
EndSplineSet
Validated: 33
EndChar

StartChar: bar
Encoding: 124 124 95
Width: 1175
GlyphClass: 2
Flags: W
LayerCount: 3
Fore
SplineSet
75 1655.5 m 128,-1,1
 78 1722 78 1722 86 1778.5 c 128,-1,2
 94 1835 94 1835 106 1870 c 1,3,4
 153 1872 153 1872 231 1876 c 128,-1,5
 309 1880 309 1880 402.5 1881 c 128,-1,6
 496 1882 496 1882 596 1883 c 128,-1,7
 696 1884 696 1884 788.5 1884 c 128,-1,8
 881 1884 881 1884 957.5 1882 c 128,-1,9
 1034 1880 1034 1880 1077 1874 c 1,10,11
 1083 1837 1083 1837 1088.5 1778.5 c 128,-1,12
 1094 1720 1094 1720 1097 1657.5 c 128,-1,13
 1100 1595 1100 1595 1098 1536 c 128,-1,14
 1096 1477 1096 1477 1090 1440 c 1,15,16
 1049 1436 1049 1436 995.5 1434 c 128,-1,17
 942 1432 942 1432 897 1430 c 1,18,19
 893 1178 893 1178 885 924 c 128,-1,20
 877 670 877 670 866 412 c 1,21,22
 913 412 913 412 963.5 411 c 128,-1,23
 1014 410 1014 410 1042 406 c 1,24,25
 1048 373 1048 373 1052.5 317.5 c 128,-1,26
 1057 262 1057 262 1060 204.5 c 128,-1,27
 1063 147 1063 147 1061 93 c 128,-1,28
 1059 39 1059 39 1053 6 c 1,29,30
 949 0 949 0 830 -4 c 128,-1,31
 711 -8 711 -8 589 -10 c 128,-1,32
 467 -12 467 -12 348 -17.5 c 128,-1,33
 229 -23 229 -23 125 -35 c 1,34,35
 111 18 111 18 105.5 81.5 c 128,-1,36
 100 145 100 145 103 204.5 c 128,-1,37
 106 264 106 264 113.5 316.5 c 128,-1,38
 121 369 121 369 131 399 c 1,39,40
 145 399 145 399 167.5 401 c 128,-1,41
 190 403 190 403 216 404.5 c 128,-1,42
 242 406 242 406 268.5 407 c 128,-1,43
 295 408 295 408 315 408 c 1,44,45
 307 656 307 656 305 912.5 c 128,-1,46
 303 1169 303 1169 307 1407 c 1,47,48
 287 1407 287 1407 259 1406 c 128,-1,49
 231 1405 231 1405 202.5 1403 c 128,-1,50
 174 1401 174 1401 146.5 1398 c 128,-1,51
 119 1395 119 1395 98 1393 c 1,52,53
 82 1452 82 1452 77 1520.5 c 128,-1,0
 72 1589 72 1589 75 1655.5 c 128,-1,1
EndSplineSet
Validated: 33
EndChar

StartChar: braceright
Encoding: 125 125 96
Width: 1032
GlyphClass: 2
Flags: W
LayerCount: 3
Fore
SplineSet
80 211 m 1,0,1
 154 221 154 221 215 257 c 128,-1,2
 276 293 276 293 315 346 c 0,3,4
 331 369 331 369 322 419 c 128,-1,5
 313 469 313 469 296 534.5 c 128,-1,6
 279 600 279 600 262.5 669.5 c 128,-1,7
 246 739 246 739 252 799 c 0,8,9
 256 826 256 826 278.5 851.5 c 128,-1,10
 301 877 301 877 328 897 c 0,11,12
 359 922 359 922 397 942 c 1,13,14
 362 985 362 985 336 1024 c 0,15,16
 313 1059 313 1059 292.5 1094.5 c 128,-1,17
 272 1130 272 1130 272 1153 c 0,18,19
 274 1227 274 1227 293.5 1294.5 c 128,-1,20
 313 1362 313 1362 333.5 1418.5 c 128,-1,21
 354 1475 354 1475 364.5 1515.5 c 128,-1,22
 375 1556 375 1556 358 1577 c 0,23,24
 348 1593 348 1593 326.5 1609.5 c 128,-1,25
 305 1626 305 1626 277.5 1642.5 c 128,-1,26
 250 1659 250 1659 220 1672.5 c 128,-1,27
 190 1686 190 1686 162 1688 c 1,28,29
 168 1786 168 1786 190.5 1871 c 128,-1,30
 213 1956 213 1956 244 1999 c 1,31,32
 312 1989 312 1989 392.5 1966.5 c 128,-1,33
 473 1944 473 1944 553 1914 c 128,-1,34
 633 1884 633 1884 704.5 1851.5 c 128,-1,35
 776 1819 776 1819 825 1786 c 0,36,37
 858 1768 858 1768 863 1712.5 c 128,-1,38
 868 1657 868 1657 859 1579 c 128,-1,39
 850 1501 850 1501 834.5 1412 c 128,-1,40
 819 1323 819 1323 809 1231 c 0,41,42
 805 1200 805 1200 826.5 1151 c 128,-1,43
 848 1102 848 1102 874 1055 c 0,44,45
 905 1000 905 1000 944 942 c 1,46,47
 903 909 903 909 868 872 c 0,48,49
 839 839 839 839 813.5 801.5 c 128,-1,50
 788 764 788 764 784 725 c 0,51,52
 776 641 776 641 791.5 556 c 128,-1,53
 807 471 807 471 822.5 393 c 128,-1,54
 838 315 838 315 837 247.5 c 128,-1,55
 836 180 836 180 793 131 c 0,56,57
 748 78 748 78 684.5 43 c 128,-1,58
 621 8 621 8 541 -15.5 c 128,-1,59
 461 -39 461 -39 367.5 -55.5 c 128,-1,60
 274 -72 274 -72 172 -86 c 1,61,62
 160 -63 160 -63 143.5 -27.5 c 128,-1,63
 127 8 127 8 112.5 48 c 128,-1,64
 98 88 98 88 89 131 c 128,-1,65
 80 174 80 174 80 211 c 1,0,1
EndSplineSet
Validated: 33
EndChar

StartChar: asciitilde
Encoding: 126 126 97
Width: 1454
GlyphClass: 2
Flags: W
LayerCount: 3
Fore
SplineSet
78 1120 m 1,0,1
 109 1194 109 1194 151 1279 c 128,-1,2
 193 1364 193 1364 241 1441 c 128,-1,3
 289 1518 289 1518 341 1579 c 128,-1,4
 393 1640 393 1640 442 1667 c 0,5,6
 495 1698 495 1698 553.5 1680.5 c 128,-1,7
 612 1663 612 1663 674.5 1624 c 128,-1,8
 737 1585 737 1585 803.5 1536 c 128,-1,9
 870 1487 870 1487 940 1450 c 0,10,11
 987 1425 987 1425 1034 1452 c 128,-1,12
 1081 1479 1081 1479 1118 1520 c 0,13,14
 1161 1569 1161 1569 1202 1638 c 1,15,16
 1259 1603 1259 1603 1311.5 1554 c 128,-1,17
 1364 1505 1364 1505 1393 1442 c 1,18,19
 1379 1417 1379 1417 1348 1367 c 128,-1,20
 1317 1317 1317 1317 1279 1255.5 c 128,-1,21
 1241 1194 1241 1194 1196 1129.5 c 128,-1,22
 1151 1065 1151 1065 1105 1013 c 128,-1,23
 1059 961 1059 961 1015 930 c 128,-1,24
 971 899 971 899 934 901 c 0,25,26
 873 909 873 909 794 947 c 128,-1,27
 715 985 715 985 641 1028 c 128,-1,28
 567 1071 567 1071 508 1100.5 c 128,-1,29
 449 1130 449 1130 426 1118 c 0,30,31
 412 1110 412 1110 392.5 1091.5 c 128,-1,32
 373 1073 373 1073 352.5 1047.5 c 128,-1,33
 332 1022 332 1022 311.5 992.5 c 128,-1,34
 291 963 291 963 272 934 c 1,35,36
 196 975 196 975 148 1023 c 128,-1,37
 100 1071 100 1071 78 1120 c 1,0,1
EndSplineSet
Validated: 33
EndChar

StartChar: exclamdown
Encoding: 161 161 99
Width: 905
GlyphClass: 2
Flags: W
LayerCount: 3
Fore
SplineSet
113 -6 m 1,0,1
 144 193 144 193 171.5 384 c 128,-1,2
 199 575 199 575 221.5 740 c 128,-1,3
 244 905 244 905 260 1029 c 128,-1,4
 276 1153 276 1153 285 1221 c 1,5,6
 314 1225 314 1225 373 1233 c 128,-1,7
 432 1241 432 1241 498.5 1247 c 128,-1,8
 565 1253 565 1253 623.5 1256.5 c 128,-1,9
 682 1260 682 1260 707 1251 c 1,10,11
 730 927 730 927 724.5 608 c 128,-1,12
 719 289 719 289 719 -29 c 1,13,14
 557 -49 557 -49 401.5 -52 c 128,-1,15
 246 -55 246 -55 113 -6 c 1,0,1
225 1901 m 1,16,17
 237 1926 237 1926 281.5 1946 c 128,-1,18
 326 1966 326 1966 383 1980.5 c 128,-1,19
 440 1995 440 1995 505.5 2001 c 128,-1,20
 571 2007 571 2007 628.5 2005 c 128,-1,21
 686 2003 686 2003 728 1992.5 c 128,-1,22
 770 1982 770 1982 782 1960 c 0,23,24
 794 1937 794 1937 797.5 1901.5 c 128,-1,25
 801 1866 801 1866 799 1826 c 128,-1,26
 797 1786 797 1786 791.5 1747 c 128,-1,27
 786 1708 786 1708 782 1683 c 0,28,29
 774 1644 774 1644 741.5 1617.5 c 128,-1,30
 709 1591 709 1591 666 1572.5 c 128,-1,31
 623 1554 623 1554 580 1543 c 128,-1,32
 537 1532 537 1532 508 1528 c 0,33,34
 485 1522 485 1522 453.5 1526 c 128,-1,35
 422 1530 422 1530 389 1537 c 128,-1,36
 356 1544 356 1544 325.5 1556.5 c 128,-1,37
 295 1569 295 1569 272 1579 c 1,38,39
 243 1653 243 1653 229 1735 c 128,-1,40
 215 1817 215 1817 225 1901 c 1,16,17
EndSplineSet
Validated: 33
EndChar

StartChar: cent
Encoding: 162 162 100
Width: 1589
GlyphClass: 2
Flags: W
LayerCount: 3
Fore
SplineSet
101 705 m 128,-1,1
 100 858 100 858 118.5 1012.5 c 128,-1,2
 137 1167 137 1167 171 1301.5 c 128,-1,3
 205 1436 205 1436 248 1509 c 1,4,5
 279 1519 279 1519 307.5 1527.5 c 128,-1,6
 336 1536 336 1536 368.5 1545 c 128,-1,7
 401 1554 401 1554 443 1562.5 c 128,-1,8
 485 1571 485 1571 545 1579 c 1,9,10
 543 1642 543 1642 541 1693.5 c 128,-1,11
 539 1745 539 1745 537 1790 c 128,-1,12
 535 1835 535 1835 532.5 1876 c 128,-1,13
 530 1917 530 1917 526 1962 c 1,14,15
 592 1989 592 1989 665.5 2005 c 128,-1,16
 739 2021 739 2021 815 2029.5 c 128,-1,17
 891 2038 891 2038 963.5 2038 c 128,-1,18
 1036 2038 1036 2038 1098 2032 c 1,19,20
 1078 1911 1078 1911 1072.5 1811.5 c 128,-1,21
 1067 1712 1067 1712 1057 1622 c 1,22,23
 1125 1630 1125 1630 1177 1635 c 128,-1,24
 1229 1640 1229 1640 1272 1643.5 c 128,-1,25
 1315 1647 1315 1647 1353 1649 c 128,-1,26
 1391 1651 1391 1651 1430 1647 c 1,27,28
 1434 1631 1434 1631 1439 1592.5 c 128,-1,29
 1444 1554 1444 1554 1449 1508 c 128,-1,30
 1454 1462 1454 1462 1456 1418 c 128,-1,31
 1458 1374 1458 1374 1454 1339 c 1,32,33
 1382 1335 1382 1335 1299.5 1323 c 128,-1,34
 1217 1311 1217 1311 1134 1293.5 c 128,-1,35
 1051 1276 1051 1276 973 1258.5 c 128,-1,36
 895 1241 895 1241 831 1227 c 1,37,38
 806 1180 806 1180 787 1109 c 128,-1,39
 768 1038 768 1038 760 960.5 c 128,-1,40
 752 883 752 883 759 806 c 128,-1,41
 766 729 766 729 795 672 c 1,42,43
 826 658 826 658 906.5 644.5 c 128,-1,44
 987 631 987 631 1085.5 619.5 c 128,-1,45
 1184 608 1184 608 1283 598 c 128,-1,46
 1382 588 1382 588 1450 582 c 1,47,48
 1452 562 1452 562 1447 516.5 c 128,-1,49
 1442 471 1442 471 1432.5 420 c 128,-1,50
 1423 369 1423 369 1409 322.5 c 128,-1,51
 1395 276 1395 276 1376 254 c 1,52,53
 1325 258 1325 258 1289 260 c 128,-1,54
 1253 262 1253 262 1220.5 262 c 128,-1,55
 1188 262 1188 262 1150 265 c 128,-1,56
 1112 268 1112 268 1057 276 c 1,57,58
 1053 206 1053 206 1053 137 c 128,-1,59
 1053 68 1053 68 1051 -41 c 1,60,61
 1014 -51 1014 -51 948.5 -57 c 128,-1,62
 883 -63 883 -63 811 -64.5 c 128,-1,63
 739 -66 739 -66 675.5 -63.5 c 128,-1,64
 612 -61 612 -61 580 -51 c 1,65,66
 555 41 555 41 549 131 c 128,-1,67
 543 221 543 221 537 326 c 1,68,69
 488 338 488 338 432.5 344 c 128,-1,70
 377 350 377 350 323.5 361.5 c 128,-1,71
 270 373 270 373 219 392.5 c 128,-1,72
 168 412 168 412 127 446 c 1,73,0
 102 552 102 552 101 705 c 128,-1,1
EndSplineSet
Validated: 33
EndChar

StartChar: sterling
Encoding: 163 163 101
Width: 1556
GlyphClass: 2
Flags: W
LayerCount: 3
Fore
SplineSet
101 352.5 m 128,-1,1
 102 408 102 408 111 453 c 1,2,3
 197 580 197 580 245 653.5 c 128,-1,4
 293 727 293 727 324 770 c 1,5,6
 265 764 265 764 221.5 761 c 128,-1,7
 178 758 178 758 152 752 c 1,8,9
 132 875 132 875 136.5 964 c 128,-1,10
 141 1053 141 1053 156 1122 c 1,11,12
 179 1128 179 1128 244 1129 c 128,-1,13
 309 1130 309 1130 403 1133 c 1,14,15
 352 1172 352 1172 289.5 1223 c 128,-1,16
 227 1274 227 1274 168 1313 c 1,17,18
 178 1401 178 1401 191.5 1513.5 c 128,-1,19
 205 1626 205 1626 240 1731 c 1,20,21
 525 1833 525 1833 841 1875 c 128,-1,22
 1157 1917 1157 1917 1456 1905 c 1,23,24
 1470 1860 1470 1860 1478.5 1810.5 c 128,-1,25
 1487 1761 1487 1761 1491 1710 c 128,-1,26
 1495 1659 1495 1659 1495 1607.5 c 128,-1,27
 1495 1556 1495 1556 1495 1509 c 1,28,29
 1413 1497 1413 1497 1340.5 1487 c 128,-1,30
 1268 1477 1268 1477 1198 1468.5 c 128,-1,31
 1128 1460 1128 1460 1056.5 1449 c 128,-1,32
 985 1438 985 1438 901 1423 c 1,33,34
 868 1372 868 1372 868 1314.5 c 128,-1,35
 868 1257 868 1257 887 1225 c 1,36,37
 955 1205 955 1205 1005 1193.5 c 128,-1,38
 1055 1182 1055 1182 1103 1174.5 c 128,-1,39
 1151 1167 1151 1167 1204 1161 c 128,-1,40
 1257 1155 1257 1155 1331 1141 c 1,41,42
 1339 1069 1339 1069 1340 981 c 128,-1,43
 1341 893 1341 893 1331 821 c 1,44,45
 1306 819 1306 819 1279.5 811 c 128,-1,46
 1253 803 1253 803 1216.5 794.5 c 128,-1,47
 1180 786 1180 786 1130.5 779 c 128,-1,48
 1081 772 1081 772 1012 772 c 1,49,50
 955 692 955 692 898.5 606 c 128,-1,51
 842 520 842 520 758 416 c 1,52,53
 836 414 836 414 917.5 415 c 128,-1,54
 999 416 999 416 1081 417 c 128,-1,55
 1163 418 1163 418 1244 416 c 128,-1,56
 1325 414 1325 414 1401 401 c 1,57,58
 1430 309 1430 309 1436 217 c 128,-1,59
 1442 125 1442 125 1438 25 c 1,60,61
 1370 23 1370 23 1276 12.5 c 128,-1,62
 1182 2 1182 2 1071.5 -6 c 128,-1,63
 961 -14 961 -14 839 -20.5 c 128,-1,64
 717 -27 717 -27 592 -25 c 128,-1,65
 467 -23 467 -23 345 -10.5 c 128,-1,66
 223 2 223 2 115 29 c 1,67,68
 113 74 113 74 108.5 128 c 128,-1,69
 104 182 104 182 102 239.5 c 128,-1,0
 100 297 100 297 101 352.5 c 128,-1,1
EndSplineSet
Validated: 33
EndChar

StartChar: yen
Encoding: 165 165 102
Width: 1880
GlyphClass: 2
Flags: W
LayerCount: 3
Fore
SplineSet
63 1927 m 1,0,1
 86 1933 86 1933 143.5 1942.5 c 128,-1,2
 201 1952 201 1952 280.5 1959 c 128,-1,3
 360 1966 360 1966 457.5 1967 c 128,-1,4
 555 1968 555 1968 653 1960 c 1,5,6
 702 1806 702 1806 764.5 1668 c 128,-1,7
 827 1530 827 1530 887 1391 c 0,8,9
 895 1375 895 1375 915.5 1346 c 128,-1,10
 936 1317 936 1317 969 1317 c 0,11,12
 992 1317 992 1317 1005 1340.5 c 128,-1,13
 1018 1364 1018 1364 1022 1378 c 0,14,15
 1032 1407 1032 1407 1063 1478.5 c 128,-1,16
 1094 1550 1094 1550 1130.5 1637 c 128,-1,17
 1167 1724 1167 1724 1203 1813.5 c 128,-1,18
 1239 1903 1239 1903 1264 1964 c 1,19,20
 1280 1968 1280 1968 1340.5 1967 c 128,-1,21
 1401 1966 1401 1966 1481 1960 c 128,-1,22
 1561 1954 1561 1954 1649.5 1946.5 c 128,-1,23
 1738 1939 1738 1939 1812 1933 c 1,24,25
 1755 1822 1755 1822 1683.5 1666.5 c 128,-1,26
 1612 1511 1612 1511 1536 1339 c 1,27,28
 1581 1339 1581 1339 1618 1336 c 128,-1,29
 1655 1333 1655 1333 1679 1329 c 1,30,31
 1683 1294 1683 1294 1686.5 1237 c 128,-1,32
 1690 1180 1690 1180 1691 1118.5 c 128,-1,33
 1692 1057 1692 1057 1691 998.5 c 128,-1,34
 1690 940 1690 940 1686 907 c 1,35,36
 1602 895 1602 895 1513.5 892 c 128,-1,37
 1425 889 1425 889 1335 885 c 1,38,39
 1286 774 1286 774 1243 686 c 1,40,41
 1298 688 1298 688 1362.5 689 c 128,-1,42
 1427 690 1427 690 1486.5 690 c 128,-1,43
 1546 690 1546 690 1597.5 688 c 128,-1,44
 1649 686 1649 686 1679 680 c 1,45,46
 1683 645 1683 645 1686.5 587.5 c 128,-1,47
 1690 530 1690 530 1691 469 c 128,-1,48
 1692 408 1692 408 1691 350.5 c 128,-1,49
 1690 293 1690 293 1686 258 c 1,50,51
 1573 244 1573 244 1453 242 c 128,-1,52
 1333 240 1333 240 1217 227 c 1,53,-1
 1204 -23 l 1,54,55
 1188 -33 1188 -33 1145 -41 c 128,-1,56
 1102 -49 1102 -49 1045.5 -55 c 128,-1,57
 989 -61 989 -61 925.5 -65.5 c 128,-1,58
 862 -70 862 -70 803.5 -71 c 128,-1,59
 745 -72 745 -72 699 -72 c 128,-1,60
 653 -72 653 -72 633 -70 c 1,61,62
 629 6 629 6 626 85 c 128,-1,63
 623 164 623 164 618 246 c 1,64,65
 507 240 507 240 394 236.5 c 128,-1,66
 281 233 281 233 174 213 c 1,67,68
 164 272 164 272 161 339 c 128,-1,69
 158 406 158 406 160 469 c 128,-1,70
 162 532 162 532 167 587.5 c 128,-1,71
 172 643 172 643 178 678 c 1,72,73
 209 680 209 680 260 684 c 128,-1,74
 311 688 311 688 369.5 689 c 128,-1,75
 428 690 428 690 490.5 691 c 128,-1,76
 553 692 553 692 608 690 c 1,77,-1
 608 735 l 1,78,79
 563 803 563 803 514 889 c 1,80,81
 428 887 428 887 342 882 c 128,-1,82
 256 877 256 877 174 862 c 1,83,84
 164 921 164 921 161 988 c 128,-1,85
 158 1055 158 1055 160 1118.5 c 128,-1,86
 162 1182 162 1182 167 1237 c 128,-1,87
 172 1292 172 1292 178 1327 c 1,88,89
 219 1329 219 1329 297 1333 c 1,90,91
 225 1499 225 1499 164.5 1653.5 c 128,-1,92
 104 1808 104 1808 63 1927 c 1,0,1
EndSplineSet
Validated: 33
EndChar

StartChar: section
Encoding: 167 167 103
Width: 1662
GlyphClass: 2
Flags: W
LayerCount: 3
Fore
SplineSet
98 1060 m 128,-1,1
 102 1182 102 1182 116.5 1304.5 c 128,-1,2
 131 1427 131 1427 153.5 1537 c 128,-1,3
 176 1647 176 1647 206 1733 c 128,-1,4
 236 1819 236 1819 272 1868 c 1,5,6
 331 1884 331 1884 424.5 1901.5 c 128,-1,7
 518 1919 518 1919 629.5 1934.5 c 128,-1,8
 741 1950 741 1950 862 1965 c 128,-1,9
 983 1980 983 1980 1097.5 1988.5 c 128,-1,10
 1212 1997 1212 1997 1310.5 2002 c 128,-1,11
 1409 2007 1409 2007 1475 2005 c 1,12,13
 1479 1985 1479 1985 1485 1946 c 128,-1,14
 1491 1907 1491 1907 1496 1861 c 128,-1,15
 1501 1815 1501 1815 1503 1769.5 c 128,-1,16
 1505 1724 1505 1724 1501 1690 c 1,17,18
 1431 1686 1431 1686 1336 1674.5 c 128,-1,19
 1241 1663 1241 1663 1140.5 1649.5 c 128,-1,20
 1040 1636 1040 1636 946 1623 c 128,-1,21
 852 1610 852 1610 782 1599 c 1,22,23
 753 1572 753 1572 743 1527.5 c 128,-1,24
 733 1483 733 1483 750 1442 c 1,25,26
 785 1434 785 1434 846 1424.5 c 128,-1,27
 907 1415 907 1415 983 1404 c 128,-1,28
 1059 1393 1059 1393 1142 1381.5 c 128,-1,29
 1225 1370 1225 1370 1302.5 1359 c 128,-1,30
 1380 1348 1380 1348 1444.5 1339.5 c 128,-1,31
 1509 1331 1509 1331 1548 1327 c 1,32,33
 1587 1182 1587 1182 1595.5 1025 c 128,-1,34
 1604 868 1604 868 1588.5 716.5 c 128,-1,35
 1573 565 1573 565 1538 427 c 128,-1,36
 1503 289 1503 289 1456 180 c 1,37,38
 1325 129 1325 129 1176.5 90 c 128,-1,39
 1028 51 1028 51 872.5 22.5 c 128,-1,40
 717 -6 717 -6 560 -24.5 c 128,-1,41
 403 -43 403 -43 256 -57 c 1,42,43
 238 -34 238 -34 224.5 13.5 c 128,-1,44
 211 61 211 61 202 112.5 c 128,-1,45
 193 164 193 164 187.5 211 c 128,-1,46
 182 258 182 258 184 276 c 1,47,48
 229 282 229 282 292.5 290.5 c 128,-1,49
 356 299 356 299 428 309 c 128,-1,50
 500 319 500 319 573.5 328.5 c 128,-1,51
 647 338 647 338 711.5 350 c 128,-1,52
 776 362 776 362 824 373.5 c 128,-1,53
 872 385 872 385 893 395 c 0,54,55
 907 401 907 401 919.5 418.5 c 128,-1,56
 932 436 932 436 935 455.5 c 128,-1,57
 938 475 938 475 926.5 492.5 c 128,-1,58
 915 510 915 510 881 512 c 0,59,60
 844 518 844 518 784.5 526.5 c 128,-1,61
 725 535 725 535 672 541 c 0,62,63
 625 545 625 545 555 552 c 128,-1,64
 485 559 485 559 408.5 569.5 c 128,-1,65
 332 580 332 580 256 593 c 128,-1,66
 180 606 180 606 119 623 c 1,67,68
 103 713 103 713 98.5 825.5 c 128,-1,0
 94 938 94 938 98 1060 c 128,-1,1
636 989 m 128,-1,70
 633 952 633 952 647 901 c 1,71,72
 688 885 688 885 745.5 873.5 c 128,-1,73
 803 862 803 862 859 856 c 128,-1,74
 915 850 915 850 964.5 847 c 128,-1,75
 1014 844 1014 844 1038 844 c 1,76,77
 1054 899 1054 899 1057 938 c 128,-1,78
 1060 977 1060 977 1044 1022 c 1,79,80
 1015 1022 1015 1022 969.5 1028 c 128,-1,81
 924 1034 924 1034 871.5 1043.5 c 128,-1,82
 819 1053 819 1053 766 1063 c 128,-1,83
 713 1073 713 1073 666 1081 c 1,84,69
 639 1026 639 1026 636 989 c 128,-1,70
EndSplineSet
Validated: 33
EndChar

StartChar: dieresis
Encoding: 168 168 104
Width: 1339
GlyphClass: 2
Flags: W
LayerCount: 3
Fore
SplineSet
128 1312 m 128,-1,1
 129 1358 129 1358 133 1401 c 128,-1,2
 137 1444 137 1444 141 1470 c 0,3,4
 147 1513 147 1513 173 1544 c 128,-1,5
 199 1575 199 1575 232.5 1596.5 c 128,-1,6
 266 1618 266 1618 301 1630 c 128,-1,7
 336 1642 336 1642 358 1649 c 0,8,9
 376 1653 376 1653 402 1650 c 128,-1,10
 428 1647 428 1647 453.5 1636.5 c 128,-1,11
 479 1626 479 1626 503.5 1614 c 128,-1,12
 528 1602 528 1602 545 1589 c 1,13,14
 568 1505 568 1505 580 1413 c 128,-1,15
 592 1321 592 1321 582 1229 c 1,16,17
 572 1200 572 1200 537 1177.5 c 128,-1,18
 502 1155 502 1155 457 1139.5 c 128,-1,19
 412 1124 412 1124 359.5 1116 c 128,-1,20
 307 1108 307 1108 262 1110 c 128,-1,21
 217 1112 217 1112 183.5 1124.5 c 128,-1,22
 150 1137 150 1137 141 1159 c 0,23,24
 133 1184 133 1184 130 1225 c 128,-1,0
 127 1266 127 1266 128 1312 c 128,-1,1
798 1324 m 128,-1,26
 799 1366 799 1366 803 1408 c 128,-1,27
 807 1450 807 1450 809 1475 c 0,28,29
 815 1516 815 1516 838.5 1545.5 c 128,-1,30
 862 1575 862 1575 893 1594.5 c 128,-1,31
 924 1614 924 1614 955.5 1626 c 128,-1,32
 987 1638 987 1638 1008 1642 c 0,33,34
 1043 1650 1043 1650 1095 1631 c 128,-1,35
 1147 1612 1147 1612 1180 1587 c 1,36,37
 1203 1507 1203 1507 1212.5 1419 c 128,-1,38
 1222 1331 1222 1331 1214 1243 c 1,39,40
 1200 1204 1200 1204 1139.5 1176.5 c 128,-1,41
 1079 1149 1079 1149 1009.5 1137.5 c 128,-1,42
 940 1126 940 1126 880.5 1136.5 c 128,-1,43
 821 1147 821 1147 809 1182 c 0,44,45
 801 1205 801 1205 799 1243.5 c 128,-1,25
 797 1282 797 1282 798 1324 c 128,-1,26
EndSplineSet
Validated: 33
EndChar

StartChar: copyright
Encoding: 169 169 105
Width: 2101
GlyphClass: 2
Flags: W
LayerCount: 3
Fore
SplineSet
105 970.5 m 128,-1,1
 104 1112 104 1112 109.5 1246 c 128,-1,2
 115 1380 115 1380 123 1493 c 1,3,4
 195 1573 195 1573 268.5 1668 c 128,-1,5
 342 1763 342 1763 420 1847 c 1,6,7
 508 1863 508 1863 622.5 1874.5 c 128,-1,8
 737 1886 737 1886 859 1893.5 c 128,-1,9
 981 1901 981 1901 1102 1904 c 128,-1,10
 1223 1907 1223 1907 1325 1907 c 128,-1,11
 1427 1907 1427 1907 1502 1908 c 128,-1,12
 1577 1909 1577 1909 1608 1909 c 1,13,14
 1653 1872 1653 1872 1697 1818.5 c 128,-1,15
 1741 1765 1741 1765 1783 1708 c 128,-1,16
 1825 1651 1825 1651 1864 1591.5 c 128,-1,17
 1903 1532 1903 1532 1935 1479 c 1,18,19
 1945 1407 1945 1407 1953.5 1312 c 128,-1,20
 1962 1217 1962 1217 1967 1112.5 c 128,-1,21
 1972 1008 1972 1008 1975 899.5 c 128,-1,22
 1978 791 1978 791 1978 696.5 c 128,-1,23
 1978 602 1978 602 1976 525.5 c 128,-1,24
 1974 449 1974 449 1970 406 c 1,25,26
 1902 308 1902 308 1842 207 c 128,-1,27
 1782 106 1782 106 1708 14 c 1,28,29
 1538 -9 1538 -9 1346.5 -20 c 128,-1,30
 1155 -31 1155 -31 975 -32 c 128,-1,31
 795 -33 795 -33 641 -29 c 128,-1,32
 487 -25 487 -25 391 -20 c 1,33,34
 358 15 358 15 320.5 69 c 128,-1,35
 283 123 283 123 248 184.5 c 128,-1,36
 213 246 213 246 183.5 305.5 c 128,-1,37
 154 365 154 365 135 414 c 1,38,39
 121 545 121 545 113.5 687 c 128,-1,0
 106 829 106 829 105 970.5 c 128,-1,1
492.5 950 m 128,-1,41
 489 774 489 774 509.5 604 c 128,-1,42
 530 434 530 434 573 322 c 1,43,44
 675 287 675 287 806.5 264.5 c 128,-1,45
 938 242 938 242 1070 239 c 128,-1,46
 1202 236 1202 236 1321 250 c 128,-1,47
 1440 264 1440 264 1516 301 c 1,48,49
 1551 451 1551 451 1561 625 c 128,-1,50
 1571 799 1571 799 1561.5 971 c 128,-1,51
 1552 1143 1552 1143 1526.5 1303.5 c 128,-1,52
 1501 1464 1501 1464 1466 1589 c 1,53,54
 1360 1618 1360 1618 1228 1628 c 128,-1,55
 1096 1638 1096 1638 970 1630 c 128,-1,56
 844 1622 844 1622 742.5 1595.5 c 128,-1,57
 641 1569 641 1569 598 1526 c 1,58,59
 547 1440 547 1440 521.5 1283 c 128,-1,40
 496 1126 496 1126 492.5 950 c 128,-1,41
599 762 m 128,-1,61
 596 848 596 848 602 937 c 128,-1,62
 608 1026 608 1026 621.5 1107 c 128,-1,63
 635 1188 635 1188 655.5 1253.5 c 128,-1,64
 676 1319 676 1319 698 1354 c 1,65,66
 845 1432 845 1432 1005 1461.5 c 128,-1,67
 1165 1491 1165 1491 1339 1493 c 1,68,69
 1349 1483 1349 1483 1359.5 1457.5 c 128,-1,70
 1370 1432 1370 1432 1377 1396 c 128,-1,71
 1384 1360 1384 1360 1388.5 1323 c 128,-1,72
 1393 1286 1393 1286 1393 1255 c 1,73,74
 1375 1245 1375 1245 1324.5 1235 c 128,-1,75
 1274 1225 1274 1225 1216.5 1212.5 c 128,-1,76
 1159 1200 1159 1200 1104 1184.5 c 128,-1,77
 1049 1169 1049 1169 1020 1147 c 1,78,79
 1002 1110 1002 1110 994.5 1052.5 c 128,-1,80
 987 995 987 995 987 928.5 c 128,-1,81
 987 862 987 862 994 795.5 c 128,-1,82
 1001 729 1001 729 1014 678 c 1,83,84
 1057 655 1057 655 1105 647 c 128,-1,85
 1153 639 1153 639 1205 636 c 128,-1,86
 1257 633 1257 633 1312.5 632 c 128,-1,87
 1368 631 1368 631 1425 627 c 1,88,89
 1435 547 1435 547 1432 477.5 c 128,-1,90
 1429 408 1429 408 1425 373 c 1,91,92
 1392 365 1392 365 1332 363.5 c 128,-1,93
 1272 362 1272 362 1197 368.5 c 128,-1,94
 1122 375 1122 375 1040 385 c 128,-1,95
 958 395 958 395 883.5 409.5 c 128,-1,96
 809 424 809 424 748.5 442.5 c 128,-1,97
 688 461 688 461 655 481 c 1,98,99
 628 528 628 528 615 602 c 128,-1,60
 602 676 602 676 599 762 c 128,-1,61
EndSplineSet
Validated: 33
EndChar

